<svg width="800" height="800" viewBox="0 0 512 512" xmlns="http://www.w3.org/2000/svg" xmlns:xlink="http://www.w3.org/1999/xlink" id="Layer_1" overflow="hidden"><defs></defs><path d="M254 183.7 254 183.7C181.18 182.48 152.62 205.99 142.75 222.7 128.03 247.62 115.75 304.07 150.39 324.93 161.31 331.5 175.76 328.02 187.79 319.11 206.79 305.02 229.6 296.9 253.28 296.9L258.74 296.9C282.42 296.9 305.21 305.02 324.23 319.11 336.23 328.02 350.71 331.5 361.63 324.93 396.3 304.07 383.99 247.62 369.27 222.7 359.4 205.98 330.84 182.47 258.02 183.7L254.02 183.7Z" stroke="#F2F2F2" stroke-width="8.34216" stroke-linecap="round" stroke-linejoin="round" fill="none"/><path d="M201.9 233.93 201.9 222.36C201.906 221.09 200.88 220.056 199.61 220.05 199.607 220.05 199.603 220.05 199.6 220.05L188 220.05C186.73 220.05 185.7 221.08 185.7 222.35 185.7 222.353 185.7 222.357 185.7 222.36L185.7 233.93C185.7 235.206 184.666 236.24 183.39 236.24L171.83 236.24C170.56 236.24 169.53 237.27 169.53 238.54L169.53 250.12C169.53 251.39 170.56 252.42 171.83 252.42L183.41 252.42C184.682 252.42 185.714 253.448 185.72 254.72L185.72 266.3C185.72 267.57 186.75 268.6 188.02 268.6L199.6 268.6C200.87 268.6 201.9 267.57 201.9 266.3L201.9 254.72C201.9 253.45 202.93 252.42 204.2 252.42L215.78 252.42C217.05 252.42 218.08 251.39 218.08 250.12L218.08 238.54C218.08 237.27 217.05 236.24 215.78 236.24L204.2 236.24C202.93 236.24 201.9 235.21 201.9 233.94 201.9 233.937 201.9 233.933 201.9 233.93Z" stroke="#F2F2F2" stroke-width="8.34216" fill="none"/><circle cx="328.06" cy="228.14" r="8.09" stroke="#F2F2F2" stroke-width="8.34216" fill="none"/><circle cx="328.06" cy="228.14" r="8.09" stroke="#F2F2F2" stroke-width="8.34216" fill="none"/><circle cx="328.06" cy="260.51" r="8.09" stroke="#F2F2F2" stroke-width="8.34216" fill="none"/><circle cx="344.24" cy="244.33" r="8.09" stroke="#F2F2F2" stroke-width="8.34216" fill="none"/><circle cx="344.24" cy="244.33" r="8.09" stroke="#F2F2F2" stroke-width="8.34216" fill="none"/><circle cx="311.87" cy="244.33" r="8.09" stroke="#F2F2F2" stroke-width="8.34216" fill="none"/></svg>