<svg width="800" height="800" viewBox="0 0 24 24" xmlns="http://www.w3.org/2000/svg" xmlns:xlink="http://www.w3.org/1999/xlink" overflow="hidden"><path d="M21.15 5.89C17.778 0.836595 10.9479-0.52646 5.89447 2.84553 0.841064 6.21752-0.521991 13.0477 2.85 18.1011 6.22199 23.1545 13.0521 24.5175 18.1055 21.1455 21.1622 19.1059 22.9985 15.6747 23 12 23.0009 9.82524 22.3571 7.69901 21.15 5.89ZM19.48 17C16.7158 21.1311 11.1261 22.2392 6.99504 19.475 2.86395 16.7109 1.75584 11.1212 4.52 6.99008 7.28417 2.85899 12.8739 1.75088 17.005 4.51504 19.5029 6.18644 21.0017 8.99446 21 12 20.999 13.7803 20.47 15.5204 19.48 17ZM15 11 15 9C15 7.34315 13.6569 6 12 6 10.3431 6 9 7.34315 9 9L9 11C8.44771 11 8 11.4477 8 12L8 16C8 16.5523 8.44771 17 9 17L15 17C15.5523 17 16 16.5523 16 16L16 12C16 11.4477 15.5523 11 15 11ZM13.5 11 10.5 11 10.5 9C10.5 8.17157 11.1716 7.5 12 7.5 12.8284 7.5 13.5 8.17157 13.5 9Z" stroke="#F2F2F2"/><path d="M19.29 15.06C19.3644 14.9842 19.4253 14.8963 19.47 14.8 19.5144 14.7026 19.5382 14.597 19.54 14.49 19.5368 14.3863 19.513 14.2844 19.47 14.19 19.4253 14.0937 19.3644 14.0058 19.29 13.93 19.2083 13.8608 19.1129 13.8097 19.01 13.78 18.9077 13.7598 18.8023 13.7598 18.7 13.78 18.5688 13.7813 18.4406 13.8194 18.33 13.89 18.2212 13.96 18.1318 14.0563 18.07 14.17L16 14.17 16 14.87 18.05 14.87C18.1097 14.991 18.2036 15.0918 18.32 15.16 18.4341 15.2309 18.5656 15.269 18.7 15.27 18.8023 15.2902 18.9077 15.2902 19.01 15.27 19.1184 15.2227 19.2143 15.1508 19.29 15.06ZM19 14.49C19.0056 14.639 18.8894 14.7644 18.7404 14.77 18.7336 14.7703 18.7268 14.7703 18.72 14.77 18.6839 14.7793 18.6461 14.7793 18.61 14.77 18.5423 14.7416 18.4884 14.6877 18.46 14.62 18.4507 14.5839 18.4507 14.5461 18.46 14.51 18.4544 14.361 18.5706 14.2356 18.7196 14.23 18.7264 14.2297 18.7332 14.2297 18.74 14.23 18.7759 14.2197 18.8141 14.2197 18.85 14.23 18.8883 14.2402 18.923 14.261 18.95 14.29 18.9788 14.3131 18.9997 14.3446 19.01 14.38 19.0203 14.4159 19.0203 14.4541 19.01 14.49ZM19.26 10.55 20.58 9.23C20.66 9.49 20.73 9.75 20.79 10.01L19.54 11.25 17.79 11.25 17.79 12 17.09 12 17.09 10.6ZM9.8 19 10.49 19 10.49 20.14 9.94 20.7C9.68 20.64 9.42 20.57 9.17 20.49L9.8 19.86ZM12.36 18.39 12.36 17 11.66 17 11.66 18.43C11.5434 18.4915 11.4438 18.5808 11.37 18.69 11.2994 18.8006 11.2613 18.9288 11.26 19.06 11.26 19.4742 11.5958 19.81 12.01 19.81 12.1027 19.8251 12.1973 19.8251 12.29 19.81 12.3824 19.7723 12.4671 19.7181 12.54 19.65 12.6078 19.5806 12.6621 19.4993 12.7 19.41 12.7399 19.3221 12.7604 19.2266 12.76 19.13 12.7573 18.856 12.6034 18.6059 12.36 18.48ZM12.21 19.22C12.1018 19.3305 11.9245 19.3323 11.814 19.2241 11.7593 19.1704 11.7289 19.0967 11.73 19.02 11.7244 18.871 11.8406 18.7456 11.9896 18.74 11.9964 18.7397 12.0032 18.7397 12.01 18.74 12.1646 18.7377 12.2918 18.8613 12.294 19.0159 12.2952 19.0926 12.2648 19.1663 12.21 19.22ZM21 12C21.0049 12.0699 21.0049 12.1401 21 12.21L20 13.21 16 13.21 16 12.51 19.7 12.51 21 11.25C21 11.5 21 11.75 21 12ZM14.84 8.09 17.84 5.09C18.0226 5.23604 18.1963 5.39299 18.36 5.56L15 8.93C14.9925 8.64318 14.9385 8.35949 14.84 8.09ZM5.3 13.75C5.19761 13.7303 5.09239 13.7303 4.99 13.75 4.88714 13.7797 4.79173 13.8308 4.71 13.9 4.6356 13.9758 4.57472 14.0637 4.53 14.16 4.48696 14.2544 4.46316 14.3563 4.46 14.46 4.46181 14.567 4.48564 14.6726 4.53 14.77 4.57472 14.8663 4.6356 14.9542 4.71 15.03 4.79173 15.0992 4.88714 15.1503 4.99 15.18 5.09239 15.1997 5.19761 15.1997 5.3 15.18 5.57402 15.1773 5.82411 15.0234 5.95 14.78L8 14.78 8 14.08 6 14.08C5.92901 13.9572 5.8251 13.8568 5.7 13.79 5.57235 13.7424 5.43455 13.7286 5.3 13.75ZM5.48 14.67C5.42974 14.7207 5.36142 14.7495 5.29 14.75L5.19 14.75C5.15167 14.7398 5.117 14.719 5.09 14.69 5.04618 14.6672 5.01364 14.6275 5 14.58 4.98972 14.5441 4.98972 14.5059 5 14.47 4.99529 14.4335 4.99529 14.3965 5 14.36L5.06 14.27 5.15 14.21 5.26 14.21C5.41462 14.2078 5.54179 14.3313 5.54404 14.4859 5.54516 14.5626 5.51478 14.6363 5.46 14.69ZM17.09 16.43 18.69 18C18.53 18.17 18.36 18.32 18.19 18.48L16.81 17.11 15.65 17.11 15.65 18.65 16.65 19.65C16.44 19.77 16.22 19.87 16 19.98L15 19 15 17.13 14 17.13 14 18.57 13.3 18.57 13.3 17 15 17C15.3871 17.0164 15.743 16.7884 15.89 16.43ZM12 4.1C11.8012 4.10017 11.6105 4.17931 11.47 4.32 11.3279 4.45547 11.2483 4.64371 11.25 4.84 11.2577 4.97468 11.299 5.1053 11.37 5.22 11.4405 5.33713 11.5405 5.43369 11.66 5.5L11.66 6 12 6C12.1198 5.99017 12.2402 5.99017 12.36 6L12.36 5.5C12.4795 5.43369 12.5795 5.33713 12.65 5.22 12.7224 5.10654 12.7606 4.97461 12.76 4.84 12.7479 4.64275 12.6622 4.45721 12.52 4.32 12.3782 4.18742 12.1939 4.10946 12 4.1ZM12.23 5C12.1999 5.04368 12.1584 5.07827 12.11 5.1 12.0586 5.12008 12.0014 5.12008 11.95 5.1 11.8326 5.09057 11.7394 4.99737 11.73 4.88 11.7099 4.82856 11.7099 4.77144 11.73 4.72 11.7517 4.67161 11.7863 4.6301 11.83 4.6 11.8814 4.5701 11.9406 4.55618 12 4.56L12.11 4.56 12.2 4.62 12.26 4.71C12.2647 4.74652 12.2647 4.78348 12.26 4.82 12.2689 4.88166 12.2584 4.94457 12.23 5ZM9 17 9.05 17 9.05 18.94 8 20C7.78 19.89 7.58 19.77 7.37 19.65L8.37 18.65 8.37 17.52 7.56 18.34 5.93 18.34 5.93 18.62C5.82869 18.5387 5.73188 18.4519 5.64 18.36 5.49 18.22 5.37 18.05 5.23 17.89L5.23 17.64 7.23 17.64 8.23 16.64C8.22809 16.6666 8.22809 16.6934 8.23 16.72 8.4349 16.919 8.71512 17.0209 9 17ZM4.18 13.21 3 12.05C3 11.72 3 11.4 3 11.05L4.44 12.48 8 12.48 8 13.18ZM5.18 8.41C5.21249 8.54313 5.2818 8.66442 5.38 8.76 5.65897 9.02924 6.10103 9.02924 6.38 8.76 6.63464 8.4753 6.63464 8.0447 6.38 7.76 6.19061 7.57358 5.91671 7.5013 5.66 7.57L4.76 6.64C4.62 6.82 4.49 7 4.37 7.19L5.23 8C5.18641 8.13271 5.18293 8.27532 5.22 8.41ZM5.74 8C5.84902 7.90545 6.01098 7.90545 6.12 8 6.17227 8.05333 6.20107 8.12533 6.2 8.2 6.19951 8.27142 6.17075 8.33974 6.12 8.39 6.01098 8.48455 5.84902 8.48455 5.74 8.39 5.70201 8.33382 5.68117 8.26781 5.68 8.2 5.6798 8.12887 5.70068 8.05927 5.74 8ZM8.09 16.41 4.43 16.41 4.27 16.57C4.15 16.36 4.03 16.16 3.93 15.94L4.16 15.71 8 15.71 8 16C8.00482 16.141 8.03532 16.2799 8.09 16.41ZM14 19.25 15 20.3 15 20.45C14.77 20.53 14.54 20.62 14.3 20.68L14.3 20.6 13.44 19.74ZM17.67 8C17.5393 8.02137 17.4176 8.08045 17.32 8.17 17.0654 8.4547 17.0654 8.8853 17.32 9.17 17.6047 9.42464 18.0353 9.42464 18.32 9.17 18.496 8.97487 18.5635 8.705 18.5 8.45L19.65 7.3C19.53 7.11 19.41 6.92 19.28 6.74L18.05 8C17.9258 7.96496 17.7942 7.96496 17.67 8ZM18.13 8.68C18.1393 8.71607 18.1393 8.75393 18.13 8.79 18.1172 8.82198 18.1004 8.85222 18.08 8.88 18.055 8.90659 18.0242 8.92711 17.99 8.94 17.9191 8.9669 17.8409 8.9669 17.77 8.94 17.7358 8.92711 17.705 8.90659 17.68 8.88 17.5855 8.77098 17.5855 8.60902 17.68 8.5 17.7341 8.45672 17.8008 8.43215 17.87 8.43 17.9359 8.43357 17.999 8.4581 18.05 8.5 18.0784 8.52176 18.1022 8.54896 18.12 8.58 18.1262 8.60624 18.1295 8.63305 18.13 8.66ZM19.49 15.85 19.91 16.27C19.79 16.48 19.68 16.7 19.55 16.9L19 16.32ZM4.72 11 3.33 9.63C3.4 9.39 3.48 9.14 3.57 8.9L5 10.32 6.44 10.32 6.44 9.67 7.14 9.67 7.14 11ZM14.34 4.29 13.64 4.29 13.64 3.16C13.88 3.16 14.11 3.26 14.34 3.32ZM14.9 5.8C14.9851 5.84879 15.082 5.87302 15.18 5.87 15.2914 5.86846 15.401 5.84107 15.5 5.79 15.603 5.74309 15.6925 5.67084 15.76 5.58 15.8304 5.48913 15.8784 5.38292 15.9 5.27 15.9248 5.1614 15.9248 5.0486 15.9 4.94L16.6 4.24 15.95 3.89 15.41 4.43C15.2823 4.39513 15.1477 4.39513 15.02 4.43 14.8918 4.46051 14.7764 4.53046 14.69 4.63 14.4354 4.9147 14.4354 5.3453 14.69 5.63 14.7432 5.70971 14.8154 5.77499 14.9 5.82ZM15 5C15.109 4.90545 15.271 4.90545 15.38 5 15.4066 5.02504 15.4271 5.05583 15.44 5.09 15.4669 5.16087 15.4669 5.23913 15.44 5.31 15.4271 5.34417 15.4066 5.37496 15.38 5.4 15.271 5.49455 15.109 5.49455 15 5.4 14.8933 5.288 14.8933 5.112 15 5ZM9.36 3.4 10.82 4.87 10.82 6.25C10.5681 6.36056 10.3325 6.50525 10.12 6.68L10.12 5.15 8.65 3.67C8.88193 3.568 9.1189 3.47788 9.36 3.4ZM8.12 5.51 7.12 4.51C7.32 4.38 7.53 4.27 7.75 4.15L8.65 5.05ZM6.19 5.15 9.19 8.15C9.09006 8.42389 9.02619 8.70962 9 9L5.68 5.62C5.84 5.46 6 5.3 6.19 5.15Z" stroke="#F2F2F2" opacity="0.5"/><rect x="0" y="0" width="24" height="24" stroke="#F2F2F2" fill="none"/></svg>