<?xml version="1.0" encoding="UTF-8"?>
<svg version="1.1" xmlns="http://www.w3.org/2000/svg" width="1565" height="1559">
<path d="M0 0 C19.76315137 14.95353488 34.38997901 34.68700302 39.9609375 59.06640625 C40.12045898 59.76145264 40.27998047 60.45649902 40.44433594 61.17260742 C43.22699771 74.48546333 42.81373789 88.22931909 42.85375977 101.75708008 C42.86335594 103.82793872 42.873367 105.89879547 42.88375854 107.96965027 C42.91062536 113.55546698 42.93173274 119.14129199 42.95176053 124.72713685 C42.97373346 130.57809066 43.00106647 136.42901944 43.02781677 142.279953 C43.0775916 153.34345451 43.12258642 164.40697002 43.16583914 175.47049874 C43.21534207 188.07275355 43.2702115 200.67498323 43.32551873 213.27721369 C43.43910508 239.18608774 43.54599433 265.09498592 43.6484375 291.00390625 C44.1376021 290.715521 44.6267667 290.42713575 45.13075447 290.13001156 C47.36699323 288.81201665 49.60365877 287.49474764 51.84033203 286.17749023 C52.60984695 285.72380821 53.37936188 285.27012619 54.17219543 284.80269623 C59.24872284 281.81383605 64.35202982 278.88835249 69.5234375 276.06640625 C76.51375806 272.21533192 83.43655913 268.25944532 90.3359375 264.24804688 C96.21757886 260.82904397 102.11497317 257.43883989 108.0234375 254.06640625 C108.90080566 253.5655249 109.77817383 253.06464355 110.68212891 252.54858398 C114.18822952 250.54762108 117.69491393 248.54768274 121.20166016 246.54785156 C131.65920668 240.58307218 142.1006017 234.59166412 152.5234375 228.56640625 C161.68502746 223.27050294 170.87944461 218.03757897 180.1027832 212.85009766 C187.0152336 208.95241756 193.86828318 204.96008177 200.7109375 200.94140625 C233.69077259 181.64084439 263.85059728 166.44771719 302.89770508 176.47509766 C317.05728744 180.41382609 329.62225806 187.29654435 340.6484375 197.00390625 C341.6590625 197.76703125 342.6696875 198.53015625 343.7109375 199.31640625 C351.42671249 206.37551954 357.39412816 215.01349253 362.6484375 224.00390625 C363.09960938 224.76832031 363.55078125 225.53273437 364.015625 226.3203125 C375.33113842 247.088848 377.46533808 274.91281255 370.84765625 297.4140625 C366.44966994 310.57937005 360.52162883 322.30140771 351.6484375 333.00390625 C350.8440625 334.03515625 350.0396875 335.06640625 349.2109375 336.12890625 C332.91414819 354.41310889 308.28781907 365.30611368 287.28662109 377.11279297 C280.44799432 380.96395233 273.66569774 384.90391896 266.8984375 388.87890625 C257.25520275 394.53879175 247.50966267 399.99349934 237.72021484 405.39575195 C229.26639508 410.0732738 220.9102046 414.89935022 212.58178711 419.79589844 C204.28940563 424.66010231 195.91055304 429.35892727 187.51123047 434.03540039 C181.67987008 437.28812167 175.88656703 440.58954624 170.1484375 444.00390625 C162.18864816 448.74002519 154.10592453 453.24695059 146.01660156 457.75732422 C138.83794037 461.76470242 131.70044733 465.83481534 124.59448242 469.96948242 C118.94077108 473.25903442 113.26842988 476.51433951 107.5859375 479.75390625 C99.63250813 484.28906901 91.69959606 488.85876675 83.7734375 493.44140625 C74.54269714 498.77576393 65.2840935 504.05735393 55.99633789 509.29174805 C49.55455489 512.9227748 43.1280837 516.57952535 36.7109375 520.25390625 C30.55706836 523.77702207 24.39486621 527.28380429 18.2109375 530.75390625 C13.22409221 533.5530227 8.24220982 536.3603066 3.2734375 539.19140625 C2.13132812 539.84109375 0.98921875 540.49078125 -0.1875 541.16015625 C-2.95700237 542.77398973 -5.65059835 544.4670122 -8.3515625 546.19140625 C-28.75894298 558.48259449 -55.48405056 560.6150793 -78.4375 555.54296875 C-105.09874998 548.90319385 -127.17311818 532.3291979 -141.49853516 509.00805664 C-155.81052286 484.88050345 -154.80113461 457.81254865 -154.74373651 430.73792529 C-154.73688834 425.95123719 -154.74745545 421.16458076 -154.75567627 416.37789917 C-154.76895424 407.02544979 -154.76616267 397.673073 -154.75743835 388.32062088 C-154.75063951 380.71490218 -154.74975455 373.10920369 -154.7530098 365.50348282 C-154.7534695 364.41747309 -154.75392919 363.33146336 -154.75440282 362.21254424 C-154.75536208 360.00577281 -154.75633472 357.79900139 -154.7573206 355.59222998 C-154.76585689 334.94310208 -154.75606765 314.29401427 -154.7399195 293.64489295 C-154.72651413 275.95578749 -154.72884965 258.26674111 -154.74267578 240.57763672 C-154.75875623 219.99496748 -154.76503706 199.41233327 -154.75583899 178.82965863 C-154.75488342 176.63200514 -154.75394031 174.43435165 -154.7530098 172.23669815 C-154.75231556 170.61510429 -154.75231556 170.61510429 -154.75160729 168.96075096 C-154.74902508 161.36974898 -154.75337169 153.77876936 -154.76044846 146.18777084 C-154.76889093 136.92907933 -154.76652564 127.67046404 -154.75060622 118.41178118 C-154.74276094 113.69467976 -154.73956756 108.97770513 -154.74955368 104.26060486 C-154.75857909 99.93162924 -154.75344053 95.60289637 -154.73762102 91.27394237 C-154.73430613 89.71903883 -154.73589172 88.16411421 -154.74324839 86.60922454 C-154.85519736 60.95346708 -148.1941135 37.80303918 -131.3515625 18.00390625 C-130.83207031 17.33875 -130.31257812 16.67359375 -129.77734375 15.98828125 C-99.13591551 -21.98547868 -39.18093755 -26.29711575 0 0 Z " fill="#29B5E8" transform="translate(1015.3515625,15.99609375)"/>
<path d="M0 0 C2.47260406 1.52913261 4.97978065 2.93107907 7.53881836 4.31005859 C21.48988026 11.87178329 35.34877871 19.61367704 48.98632812 27.72802734 C55.11936088 31.36024734 61.33875833 34.83101344 67.56616211 38.29833984 C76.98153972 43.54250114 86.31650955 48.90774478 95.61206055 54.36108398 C103.43243834 58.94223304 111.30862442 63.41740816 119.20678711 67.86279297 C125.9822009 71.67920555 132.72281363 75.55131797 139.44677734 79.45751953 C145.24404808 82.82387332 151.05683113 86.16214853 156.87866211 89.48583984 C157.75643311 89.98696289 158.6342041 90.48808594 159.53857422 91.00439453 C163.04428305 93.00508679 166.55055066 95.00479837 170.05688477 97.00439453 C172.60193169 98.45603937 175.14665224 99.90825386 177.69116211 101.36083984 C178.54726074 101.8494751 179.40335938 102.33811035 180.28540039 102.84155273 C185.10666811 105.59662627 189.92025675 108.36447406 194.72631836 111.14599609 C205.632919 117.45818094 216.55875381 123.72575565 227.56616211 129.86083984 C235.02172355 134.01686765 242.43365507 138.22661565 249.77246094 142.58520508 C256.55725659 146.60495583 263.40402402 150.51553788 270.25366211 154.42333984 C270.85934021 154.7689093 271.46501831 155.11447876 272.08905029 155.47052002 C275.10137381 157.18888014 278.11414924 158.90644578 281.12719727 160.62353516 C284.16380709 162.35460036 287.19936941 164.08747434 290.23413086 165.82177734 C291.10779297 166.32104736 291.98145508 166.82031738 292.8815918 167.3347168 C294.57661607 168.3039719 296.27128267 169.27385281 297.96557617 170.24438477 C302.3028254 172.72734572 306.64828869 175.19407824 311.00756836 177.63818359 C334.50653415 190.85518509 334.50653415 190.85518509 344.50366211 199.54833984 C344.50366211 200.20833984 344.50366211 200.86833984 344.50366211 201.54833984 C345.05538086 201.75072266 345.60709961 201.95310547 346.17553711 202.16162109 C349.41864 204.09333506 351.47328314 206.79404706 353.75366211 209.73583984 C354.47610107 210.66698608 354.47610107 210.66698608 355.21313477 211.61694336 C371.63396489 233.36322702 377.15440783 259.25656517 374.21508789 286.19287109 C370.55142926 310.54513622 356.73685917 334.13765905 337.00366211 348.92333984 C335.18428152 350.15258141 333.35099533 351.36152035 331.50366211 352.54833984 C330.63999023 353.14001953 329.77631836 353.73169922 328.88647461 354.34130859 C315.1631106 363.14680986 298.67735185 367.60516571 282.50366211 368.54833984 C281.43374023 368.61794922 280.36381836 368.68755859 279.26147461 368.75927734 C250.07395007 369.70550632 226.12723513 355.30876993 201.81884766 340.99682617 C194.70421884 336.81072618 187.53301426 332.74278111 180.31616211 328.73583984 C171.13525834 323.63196791 162.05068089 318.38416774 153.00366211 313.04833984 C142.82252283 307.04382738 132.57613418 301.17860652 122.24707031 295.43066406 C115.4411313 291.6415207 108.6788012 287.78710026 101.94775391 283.86669922 C97.27045783 281.14471872 92.58061722 278.44629695 87.87866211 275.76708984 C86.99317436 275.26246719 86.99317436 275.26246719 86.08979797 274.74765015 C83.20320158 273.10299126 80.3155923 271.46018088 77.42626953 269.8203125 C69.9168654 265.54359437 62.46513855 261.17593625 55.02832031 256.77441406 C54.01333717 256.17414902 52.99835403 255.57388397 51.95261383 254.95542908 C49.46940596 253.48677738 46.98642791 252.0177387 44.50366211 250.54833984 C44.50035196 251.62433882 44.49704182 252.70033779 44.49363136 253.80894279 C44.41245197 280.05261549 44.32008065 306.29623088 44.21613503 332.53982353 C44.1661228 345.23128951 44.11967903 357.92274939 44.08178711 370.61425781 C44.04873154 381.68279305 44.00882649 392.75127937 43.96087205 403.81976044 C43.93574127 409.67439229 43.91392118 415.52899225 43.90031815 421.38366318 C43.88737496 426.90759776 43.86519184 432.43142222 43.83627892 437.95529556 C43.82729798 439.96986949 43.82153545 441.98446109 43.81944847 443.99905396 C43.78266374 474.14618143 40.00062558 501.03711704 19.50366211 524.54833984 C18.71088867 525.66789062 18.71088867 525.66789062 17.90209961 526.81005859 C17.44061523 527.38369141 16.97913086 527.95732422 16.50366211 528.54833984 C15.84366211 528.54833984 15.18366211 528.54833984 14.50366211 528.54833984 C14.50366211 529.20833984 14.50366211 529.86833984 14.50366211 530.54833984 C12.5026211 532.35475072 10.50371137 534.02297329 8.37866211 535.67333984 C7.74774658 536.16398926 7.11683105 536.65463867 6.46679688 537.16015625 C-14.70476845 553.27860998 -40.40431448 561.09319009 -66.94238281 557.78710938 C-77.50201563 556.31898836 -86.7552921 553.85794733 -96.49633789 549.54833984 C-97.3690332 549.19255859 -98.24172852 548.83677734 -99.14086914 548.47021484 C-104.82837216 545.94243572 -109.70783913 542.36444029 -114.68383789 538.67333984 C-115.34963867 538.17946777 -116.01543945 537.6855957 -116.70141602 537.17675781 C-135.40062098 522.92908 -148.2982396 501.13621245 -152.08336419 477.95289177 C-153.3640704 468.19429492 -153.78349307 458.6532792 -153.7570343 448.81886292 C-153.76006322 447.19612149 -153.76395637 445.57338149 -153.76862687 443.95064396 C-153.77882002 439.53877036 -153.77674749 435.1269788 -153.77244627 430.71509874 C-153.76996316 425.938587 -153.77901267 421.16209423 -153.78648376 416.3855896 C-153.79918827 407.0467821 -153.80102984 397.70800342 -153.7986835 388.36918873 C-153.79689568 380.77436596 -153.79865989 373.17955188 -153.80290794 365.58473015 C-153.80350313 364.50108931 -153.80409832 363.41744847 -153.80471155 362.30097003 C-153.80592338 360.099111 -153.80713751 357.89725198 -153.80835392 355.69539296 C-153.81921275 335.07919433 -153.81707463 314.46301208 -153.81096908 293.84681254 C-153.80579945 275.01260234 -153.81705956 256.17844386 -153.8360673 237.34424389 C-153.85546729 217.9718478 -153.86369803 198.59947614 -153.85994405 179.22707027 C-153.85803553 168.36426429 -153.86048554 157.50150233 -153.87465858 146.6387043 C-153.88660081 137.39275422 -153.88794535 128.14687527 -153.87586842 118.90092415 C-153.87000013 114.18991578 -153.86882329 109.47903734 -153.88087082 104.7680378 C-153.89179846 100.44449915 -153.88854548 96.12119786 -153.87460914 91.79767 C-153.87198104 90.2446933 -153.87426839 88.69169757 -153.882345 87.13873965 C-154.01826753 59.02275519 -145.5558172 32.91117612 -125.49633789 12.54833984 C-124.83633789 12.54833984 -124.17633789 12.54833984 -123.49633789 12.54833984 C-123.49633789 11.88833984 -123.49633789 11.22833984 -123.49633789 10.54833984 C-90.84537355 -21.48801811 -37.6154622 -23.92755505 0 0 Z " fill="#29B5E8" transform="translate(1014.496337890625,1000.45166015625)"/>
<path d="M0 0 C0.61939453 0.20898926 1.23878906 0.41797852 1.87695312 0.63330078 C27.04265102 9.17760563 45.92044714 27.56759956 58.1875 50.875 C65.63323045 66.24298764 67.3037109 81.77529666 67.26742554 98.62809753 C67.27116833 100.28863506 67.27577234 101.94917082 67.28115618 103.60970384 C67.29332382 108.14462591 67.29313312 112.67947387 67.29076743 117.21440852 C67.29035768 122.11642047 67.30141343 127.01840917 67.31088257 131.92041016 C67.32745907 141.51376582 67.33299059 151.10709691 67.33410732 160.7004657 C67.33505935 168.50228761 67.33917735 176.30410144 67.34550858 184.10592079 C67.36311152 206.24993479 67.37234888 228.39392944 67.37084763 250.53795048 C67.37072776 252.3267126 67.37072776 252.3267126 67.37060547 254.15161133 C67.37052371 255.34558379 67.37044195 256.53955624 67.37035771 257.76970968 C67.36954498 277.11504259 67.38868169 296.46029761 67.4168822 315.805608 C67.44564328 335.69316377 67.45942073 355.58068159 67.45769465 375.46825868 C67.45703188 386.62401103 67.4624745 397.77968171 67.48405075 408.93541527 C67.50230495 418.43400002 67.5065751 427.93246607 67.4930319 437.43106081 C67.48652376 442.27169532 67.48630682 447.11210237 67.5037384 451.95271492 C67.51956985 456.39489592 67.51650386 460.83667102 67.49917014 465.27884272 C67.49612226 466.87500929 67.49964786 468.47120693 67.51089029 470.06733682 C67.68661044 496.81337192 58.35196537 521.0827003 39.6796875 540.3203125 C19.92872992 560.07127008 -4.83602119 569.46054037 -32.625 570.25 C-61.02910452 569.32318661 -84.23263727 555.90985265 -108.06152344 541.73583984 C-112.51236673 539.1066029 -117.00443247 536.55175834 -121.5 534 C-129.05516719 529.70331793 -136.56541387 525.33464594 -144.0625 520.9375 C-151.31965552 516.68489931 -158.6112764 512.51966789 -166 508.5 C-174.26431857 504.00271546 -182.39782922 499.3048531 -190.51342773 494.54516602 C-198.33572285 489.96079577 -206.18866045 485.43251533 -214.0625 480.9375 C-214.65309204 480.60023895 -215.24368408 480.26297791 -215.85217285 479.91549683 C-223.80372815 475.37639114 -231.77256252 470.8684672 -239.75 466.375 C-248.558329 461.41308951 -257.298168 456.34127724 -266.02050781 451.22998047 C-273.7564583 446.70458744 -281.54745456 442.28406281 -289.35986328 437.89233398 C-296.23888578 434.01695212 -303.06508503 430.05788688 -309.875 426.0625 C-318.03150563 421.27890567 -326.23790677 416.59876076 -334.5 412 C-343.77442273 406.83776688 -352.96627738 401.55083139 -362.12109375 396.1796875 C-368.87823626 392.221047 -375.6740124 388.33856067 -382.5 384.5 C-386.33529423 382.3367894 -390.16847164 380.16987362 -394 378 C-395.04881348 377.40622559 -396.09762695 376.81245117 -397.17822266 376.20068359 C-400.39536222 374.3727524 -403.60475308 372.53185511 -406.8125 370.6875 C-408.27042969 369.86185547 -408.27042969 369.86185547 -409.7578125 369.01953125 C-434.73204541 354.58076312 -451.56247144 333.00559314 -459.0234375 305.18359375 C-464.91102137 278.41939367 -459.62104523 251.11741019 -445 228 C-442.21115631 224.11902171 -439.21699737 220.53126887 -436 217 C-435.38769531 216.30648437 -434.77539062 215.61296875 -434.14453125 214.8984375 C-416.02998887 195.50931112 -391.02212748 186.47341616 -365.0703125 184.8125 C-337.15642923 184.14985589 -315.04542571 196.91177224 -291.68359375 210.44873047 C-287.40415711 212.92248779 -283.10724385 215.36545185 -278.8125 217.8125 C-269.79423928 222.95983919 -260.80374706 228.1546968 -251.81396484 233.3515625 C-243.58760694 238.10029845 -235.32435992 242.78057141 -227.046875 247.43945312 C-221.53681627 250.54700363 -216.06346674 253.70648498 -210.625 256.9375 C-202.57957372 261.71708793 -194.40929991 266.26510702 -186.23461914 270.8190918 C-179.45080396 274.60577953 -172.72767006 278.47625276 -166.05004883 282.4465332 C-160.29198501 285.85853651 -154.45639032 289.12050538 -148.58813477 292.33886719 C-144.26137317 294.71769578 -139.98085525 297.16558263 -135.71801758 299.6574707 C-134.64497879 300.28442337 -133.57194 300.91137604 -132.46638489 301.55732727 C-131.65247787 302.03340927 -130.83857086 302.50949127 -130 303 C-129.99641747 301.32139137 -129.99641747 301.32139137 -129.99276257 299.60887146 C-129.93386769 272.33107976 -129.85792332 245.05337568 -129.76428509 217.77568054 C-129.71939296 204.5841858 -129.67996315 191.39271766 -129.65356445 178.20117188 C-129.63053102 166.69828598 -129.59707345 155.19548474 -129.55129844 143.69266605 C-129.52743827 137.60669274 -129.50866234 131.52080289 -129.50238609 125.43478394 C-129.49630257 119.69577191 -129.47618551 113.95697324 -129.44572449 108.21804047 C-129.43699637 106.12200151 -129.43321072 104.02593461 -129.43499184 101.92987823 C-129.4526915 71.46467257 -121.33091853 45.58881016 -100.375 22.875 C-74.55339396 -1.69968744 -33.92775773 -12.20942851 0 0 Z " fill="#29B5E8" transform="translate(636,4)"/>
<path d="M0 0 C1.70736328 0.49306641 1.70736328 0.49306641 3.44921875 0.99609375 C15.49579685 4.89470637 26.98673922 11.2477981 37 19 C37 19.66 37 20.32 37 21 C37.55171875 21.22042969 38.1034375 21.44085937 38.671875 21.66796875 C53.46165386 30.12990598 63.40224609 51.32955845 67.78613281 66.90869141 C69.8619725 74.66324282 71.12235898 82.06717708 71.13422108 90.10764885 C71.13657331 90.79104721 71.13892554 91.47444558 71.14134905 92.17855299 C71.1479893 94.46132656 71.14758234 96.74404257 71.14717102 99.02682495 C71.15047275 100.68304598 71.15419897 102.33926621 71.1583125 103.99548542 C71.1683055 108.54168501 71.17204494 113.0878714 71.17470181 117.63408041 C71.1786129 122.53958284 71.18819069 127.44507489 71.19691467 132.35057068 C71.21665657 144.19507452 71.2267425 156.03957919 71.23564246 167.88409537 C71.24002917 173.46657567 71.245395 179.04905502 71.25063133 184.63153458 C71.26764149 203.19706716 71.28213463 221.76259917 71.28938007 240.32813835 C71.29128986 245.1435636 71.29321021 249.95898884 71.29516602 254.77441406 C71.29564976 255.97121403 71.2961335 257.16801399 71.2966319 258.40108062 C71.30492837 277.77906016 71.33025981 297.15697789 71.36274669 316.53493045 C71.39585249 336.44492387 71.41383203 356.35488592 71.41702431 376.264907 C71.41918617 387.43750666 71.42788726 398.61001619 71.45348549 409.78258896 C71.47524061 419.29958758 71.48321927 428.81647416 71.47351871 438.33349483 C71.46898793 443.1842254 71.47078878 448.03472507 71.49028015 452.88542366 C71.50801247 457.33704883 71.50683333 461.78827634 71.49138286 466.23990633 C71.48902196 467.83959009 71.49325031 469.43930213 71.50521151 471.03894292 C71.69119536 497.5827804 62.51482362 522.19079347 43.83203125 541.203125 C42.43017578 542.58757812 42.43017578 542.58757812 41 544 C40.32324219 544.67546875 39.64648438 545.3509375 38.94921875 546.046875 C22.87464633 561.05439871 -0.0916658 570.10339558 -22 571 C-22.66257812 571.03996094 -23.32515625 571.07992187 -24.0078125 571.12109375 C-43.83159924 571.76178648 -64.67486189 566.35661781 -81 555 C-82.01320313 554.29875 -83.02640625 553.5975 -84.0703125 552.875 C-104.73812263 537.95688141 -118.52866168 517.17757778 -123.59108543 492.06825066 C-125.31623468 481.18076525 -125.30785958 470.39799748 -125.31884766 459.39892578 C-125.32816224 457.24910105 -125.33833315 455.09927989 -125.34928894 452.94946289 C-125.37643055 447.15296367 -125.39169106 441.35648854 -125.40471697 435.55994272 C-125.42041728 429.48743353 -125.44718529 423.41497302 -125.4727478 417.34249878 C-125.51941394 405.86112684 -125.55621672 394.37974561 -125.58942068 382.89832771 C-125.62772831 369.8196243 -125.67711569 356.74096995 -125.72740483 343.66230798 C-125.83054364 316.7749084 -125.91986242 289.88747728 -126 263 C-129.69583386 265.08603526 -133.39117267 267.17294597 -137.08642578 269.26000977 C-138.12797318 269.84787514 -139.16952057 270.43574051 -140.24263 271.04141998 C-147.15665623 274.94716228 -154.03588128 278.90197514 -160.875 282.9375 C-170.22775533 288.42643561 -179.66163682 293.75569212 -189.13623047 299.03100586 C-195.63644227 302.65669316 -202.07501346 306.36617081 -208.47045898 310.17285156 C-215.82353862 314.52826647 -223.3004602 318.66053894 -230.76586914 322.81933594 C-237.55323189 326.60806404 -244.27988465 330.48060709 -250.9609375 334.453125 C-256.6683102 337.83527179 -262.46053995 341.05050056 -268.27124023 344.25097656 C-273.39855742 347.08465429 -278.46245952 350.00996466 -283.5 353 C-292.23773196 358.17637186 -301.0698116 363.16324839 -310 368 C-310.63566895 368.34724121 -311.27133789 368.69448242 -311.92626953 369.05224609 C-335.21612735 381.67717837 -361.67812586 384.29506804 -387.23046875 377.39794922 C-413.3832301 369.33095837 -434.38240028 351.15076193 -447.27075195 327.14477539 C-458.88510763 304.62648045 -460.07256262 278.60990949 -452.96875 254.5 C-448.4230584 240.74006867 -441.78989065 228.70974614 -432 218 C-431.25234375 217.15953125 -430.5046875 216.3190625 -429.734375 215.453125 C-416.37273131 201.20660425 -397.76716038 192.53426767 -381 183 C-379.13108538 181.93173283 -377.26256896 180.8627686 -375.39453125 179.79296875 C-371.10323946 177.33591269 -366.80905651 174.8839747 -362.51367188 172.43408203 C-358.32029093 170.04170444 -354.12900559 167.64566121 -349.9375 165.25 C-348.19662475 164.25519053 -346.45573903 163.2603994 -344.71484375 162.265625 C-343.80460449 161.74548828 -342.89436523 161.22535156 -341.95654297 160.68945312 C-338.7014974 158.82942708 -335.44645182 156.96940104 -332.19140625 155.109375 C-331.60491806 154.77423889 -331.01842987 154.43910278 -330.41416931 154.09381104 C-286.71874999 129.125 -286.71874999 129.125 -284.98762512 128.13578796 C-283.8036118 127.45920746 -282.61960099 126.78262255 -281.43559265 126.10603333 C-278.41520986 124.3800747 -275.39478368 122.6541921 -272.37426758 120.9284668 C-267.03372393 117.87713621 -261.6935357 114.8251937 -256.35546875 111.76953125 C-254.63286361 110.78376485 -252.91020889 109.79808508 -251.1875 108.8125 C-250.35637695 108.33699707 -249.52525391 107.86149414 -248.66894531 107.37158203 C-243.19747161 104.24517729 -237.71260593 101.14320227 -232.22241211 98.04980469 C-224.65118627 93.78379982 -217.0966182 89.50100354 -209.625 85.0625 C-201.62023441 80.30875324 -193.49545555 75.77778991 -185.36425781 71.24462891 C-178.23358852 67.26454464 -171.14707839 63.21759912 -164.09106445 59.10693359 C-158.02799728 55.58014788 -151.9255094 52.1268724 -145.8125 48.6875 C-137.76659247 44.15960829 -129.7749067 39.54805881 -121.8125 34.875 C-113.73600541 30.13837499 -105.61027425 25.51912163 -97.37963867 21.05566406 C-93.07149442 18.71355691 -88.80680787 16.31798088 -84.58203125 13.828125 C-74.93855415 8.15230397 -65.84604685 3.01205686 -55 0 C-53.99324219 -0.31453125 -52.98648437 -0.6290625 -51.94921875 -0.953125 C-35.68649463 -5.32162232 -16.10514771 -4.71882738 0 0 Z " fill="#29B5E8" transform="translate(632,988)"/>
<path d="M0 0 C20.03646263 16.87556044 32.57827308 40.28560583 34.99609375 66.5234375 C36.64279203 94.45952937 27.75940157 120.26898243 9.28125 141.2421875 C6.99609375 143.5234375 6.99609375 143.5234375 4.99609375 143.5234375 C4.66609375 144.5134375 4.33609375 145.5034375 3.99609375 146.5234375 C-6.04055827 156.35975714 -19.30576962 162.61972271 -31.46588135 169.41564941 C-37.78633784 172.95038272 -44.05206666 176.57782828 -50.31640625 180.2109375 C-59.454704 185.49604398 -68.62754597 190.7160771 -77.82470703 195.89794922 C-84.40040017 199.60652629 -90.94338485 203.36748034 -97.47070312 207.16040039 C-104.4432526 211.2082566 -111.43998778 215.21326746 -118.44140625 219.2109375 C-119.03374054 219.54919556 -119.62607483 219.88745361 -120.23635864 220.23596191 C-125.0894557 223.00719087 -129.94332607 225.77706418 -134.79730225 228.54675293 C-148.25386333 236.22526426 -161.70501642 243.91291377 -175.12890625 251.6484375 C-176.1770752 252.25179932 -177.22524414 252.85516113 -178.30517578 253.47680664 C-184.57708642 257.09560677 -190.80837273 260.77535336 -197.00390625 264.5234375 C-191.1506037 268.55553939 -185.20615174 272.17243753 -178.94140625 275.5234375 C-171.31638656 279.65817681 -163.79367315 283.93991825 -156.31640625 288.3359375 C-148.09846361 293.16372267 -139.83265162 297.88943288 -131.50390625 302.5234375 C-122.18423107 307.71135856 -112.94372435 313.01964661 -103.7421875 318.4140625 C-96.50514849 322.6554809 -89.23385817 326.83220353 -81.94311523 330.98046875 C-75.20524808 334.82085566 -68.50811984 338.72829579 -61.81640625 342.6484375 C-54.79142575 346.75947621 -47.74958546 350.83018528 -40.62890625 354.7734375 C-39.91226807 355.17062988 -39.19562988 355.56782227 -38.45727539 355.97705078 C-34.77864437 358.00926349 -31.08846555 360.01802659 -27.38671875 362.0078125 C-17.7354828 367.22716199 -8.68683877 372.80476735 -0.00390625 379.5234375 C0.81335937 380.15507813 1.630625 380.78671875 2.47265625 381.4375 C21.0944956 396.90086483 31.9326802 420.424291 34.71484375 444.1796875 C36.91397602 470.3249267 29.47885443 497.10693348 12.62109375 517.4609375 C10.09765625 520.42578125 10.09765625 520.42578125 7.99609375 522.5234375 C7.33609375 522.5234375 6.67609375 522.5234375 5.99609375 522.5234375 C5.99609375 523.1834375 5.99609375 523.8434375 5.99609375 524.5234375 C-13.34991893 543.54768698 -39.11978806 551.79811917 -65.7421875 551.77001953 C-93.70763591 551.46145276 -116.01988765 537.7783212 -139.34643555 523.82421875 C-148.65343593 518.26687179 -158.08865984 512.97755585 -167.58178711 507.74536133 C-174.24039177 504.07122884 -180.83952884 500.3245137 -187.37451172 496.43554688 C-194.12271532 492.42813703 -200.93687338 488.53711822 -207.75390625 484.6484375 C-208.36209198 484.30144806 -208.97027771 483.95445862 -209.59689331 483.59695435 C-212.61693785 481.8741693 -215.63742073 480.15215496 -218.65820312 478.43066406 C-223.27551519 475.79855359 -227.88986029 473.16126773 -232.50390625 470.5234375 C-238.20463315 467.26500384 -243.90630895 464.00824439 -249.609375 460.75390625 C-262.15829043 453.59161271 -274.69168823 446.40379854 -287.20263672 439.17529297 C-298.70387275 432.53412725 -310.2374313 425.94989553 -321.77246094 419.36767578 C-327.34347008 416.18821045 -332.9122304 413.0048111 -338.48120117 409.82177734 C-342.75217053 407.38086749 -347.02387556 404.94126081 -351.296875 402.50390625 C-359.56761973 397.78468989 -367.83073268 393.05363347 -376.06640625 388.2734375 C-383.28450603 384.08403981 -390.52439251 379.93353022 -397.77288818 375.79699707 C-424.2260234 360.70021035 -424.2260234 360.70021035 -437.33154297 353.07714844 C-438.96160575 352.12943059 -440.59308591 351.18413834 -442.22705078 350.24316406 C-450.01122998 345.74964998 -456.55928192 340.78423865 -463.00390625 334.5234375 C-464.12539062 333.51216797 -464.12539062 333.51216797 -465.26953125 332.48046875 C-481.52512633 317.33320969 -492.13796964 293.74914379 -493.00390625 271.5234375 C-493.05546875 270.440625 -493.10703125 269.3578125 -493.16015625 268.2421875 C-493.79873434 242.91192344 -485.4893055 221.37424454 -470.00390625 201.5234375 C-469.18986328 200.36134766 -469.18986328 200.36134766 -468.359375 199.17578125 C-467.91207031 198.63050781 -467.46476562 198.08523438 -467.00390625 197.5234375 C-466.34390625 197.5234375 -465.68390625 197.5234375 -465.00390625 197.5234375 C-464.79378906 196.96140625 -464.58367187 196.399375 -464.3671875 195.8203125 C-462.53710818 192.73696969 -460.02065306 190.88199604 -457.19140625 188.7734375 C-456.60665527 188.33298096 -456.0219043 187.89252441 -455.41943359 187.4387207 C-444.28298471 179.17537393 -432.02714727 172.65598635 -419.9609375 165.875 C-406.35752187 158.23006902 -392.83742498 150.43787601 -379.31640625 142.6484375 C-378.24156982 142.02984863 -377.1667334 141.41125977 -376.05932617 140.77392578 C-371.32105661 138.0408916 -366.59893933 135.28977604 -361.921875 132.453125 C-357.60610105 129.8495616 -353.21049552 127.42359006 -348.77636719 125.02832031 C-344.19526446 122.5417126 -339.66373494 119.96818694 -335.12890625 117.3984375 C-334.1335083 116.83495605 -333.13811035 116.27147461 -332.11254883 115.69091797 C-317.8534703 107.61292007 -303.63281027 99.46970171 -289.44140625 91.2734375 C-280.24426893 85.96208728 -271.03735163 80.66831767 -261.81640625 75.3984375 C-261.22926849 75.06285828 -260.64213074 74.72727905 -260.03720093 74.38153076 C-252.12434871 69.86056254 -244.19458586 65.37033356 -236.25390625 60.8984375 C-228.50250023 56.53276492 -220.80290473 52.08618724 -213.12890625 47.5859375 C-203.86706143 42.15598207 -194.53493429 36.86529812 -185.15771484 31.63745117 C-175.91918882 26.48589169 -166.73130417 21.24936756 -157.55566406 15.98681641 C-150.62977123 12.01496397 -143.69872535 8.05214632 -136.76318359 4.09716797 C-134.85422226 3.00840804 -132.94572372 1.91883642 -131.03759766 0.82861328 C-125.17569562 -2.51822545 -119.3028549 -5.84385433 -113.40771484 -9.13183594 C-111.44999161 -10.22701566 -109.50100218 -11.33779632 -107.5546875 -12.453125 C-73.44853228 -31.00459018 -29.36801764 -23.82435165 0 0 Z " fill="#29B5E8" transform="translate(1530.00390625,514.4765625)"/>
<path d="M0 0 C2.70990985 1.5497189 5.42965527 3.08066222 8.15283203 4.60693359 C25.79596486 14.50834699 43.31651104 24.62748355 60.7722168 34.85522461 C70.8926424 40.78341342 81.07646601 46.57910136 91.32495117 52.28295898 C98.49396705 56.28236249 105.60118243 60.37627894 112.68017578 64.53271484 C120.89900608 69.35805951 129.16773208 74.08030071 137.49267578 78.72021484 C147.08435385 84.06623941 156.61187038 89.50879603 166.10107422 95.03417969 C171.1411782 97.96263087 176.19274154 100.87125982 181.24267578 103.78271484 C188.01655918 107.6885529 194.78990317 111.59528985 201.55908203 115.50927734 C211.2225655 121.09470824 220.88482707 126.67679477 230.63232422 132.11450195 C236.65273941 135.48747012 242.60116954 138.98174218 248.55517578 142.47021484 C257.19407454 147.5300833 265.88645248 152.47128844 274.65283203 157.30615234 C289.12092325 165.28641798 303.37318944 173.67739852 317.49658203 182.25146484 C319.66958187 183.52649874 321.88293913 184.68268049 324.11767578 185.84521484 C345.5091914 197.63700437 360.1599749 219.45934215 367.10546875 242.43481445 C373.97322103 266.92431435 370.7078197 293.17972898 358.68017578 315.53271484 C344.55115251 339.98965508 322.40930804 352.7141969 298.50073242 366.02514648 C290.12995414 370.69345315 281.84279981 375.49241972 273.57666016 380.34301758 C265.70694319 384.95373522 257.77769482 389.45146545 249.82763672 393.921875 C244.28319567 397.04503366 238.77559306 400.21933844 233.30517578 403.47021484 C225.34259522 408.19748138 217.26448678 412.71017003 209.1784668 417.22216797 C198.97052921 422.92019453 188.81446681 428.70487544 178.68017578 434.53271484 C177.67374023 435.11134277 176.66730469 435.6899707 175.63037109 436.28613281 C161.11109419 444.6364716 161.11109419 444.6364716 146.64111328 453.07177734 C135.09624384 459.84784427 123.47565337 466.45414583 111.75561523 472.92285156 C103.2523129 477.62799999 94.84405811 482.47863537 86.46411133 487.39941406 C79.67506137 491.38197807 72.85027753 495.29443175 65.99267578 499.15771484 C65.04158936 499.69356201 64.09050293 500.22940918 63.1105957 500.78149414 C61.22040202 501.84623476 59.33018422 502.91093255 57.43994141 503.97558594 C45.46446 510.73245257 33.55090366 517.5936494 21.68017578 524.53271484 C10.71949597 530.9357853 -0.24464109 537.32911564 -11.31982422 543.53271484 C-12.43357422 544.16048828 -13.54732422 544.78826172 -14.69482422 545.43505859 C-36.20474844 556.92065672 -62.9504141 559.05244158 -86.31982422 552.53271484 C-87.32529297 552.26587891 -88.33076172 551.99904297 -89.36669922 551.72412109 C-113.02552657 544.68280343 -133.41119964 527.90071256 -145.47460938 506.48242188 C-150.56787466 496.87817 -154.07096695 487.16714158 -156.31982422 476.53271484 C-156.51060547 475.64583984 -156.70138672 474.75896484 -156.89794922 473.84521484 C-158.82937996 458.67990684 -158.15515248 443.06093102 -153.31982422 428.53271484 C-153.11083496 427.89188965 -152.9018457 427.25106445 -152.68652344 426.59082031 C-141.86463212 394.43318523 -116.27055094 377.68728383 -87.87939453 361.87353516 C-81.55807138 358.35253757 -75.26056031 354.79824549 -69.00732422 351.15771484 C-61.31973455 346.68363264 -53.60695279 342.25503402 -45.88232422 337.84521484 C-44.9960434 337.33918732 -44.9960434 337.33918732 -44.09185791 336.82293701 C-41.05995159 335.09193278 -38.02783291 333.36130101 -34.99560547 331.63085938 C-29.54940579 328.52254141 -24.10519957 325.41073502 -18.66085815 322.29916382 C-15.72564721 320.62166299 -12.79030807 318.94438653 -9.85498047 317.26708984 C-8.74396973 316.63222656 -7.63295898 315.99736328 -6.48828125 315.34326172 C-3.61832682 313.70328776 -0.7483724 312.0633138 2.12158203 310.42333984 C2.96454834 309.9416333 3.80751465 309.45992676 4.67602539 308.96362305 C6.34216369 308.01156722 8.00834192 307.05958126 9.67456055 306.10766602 C14.58104914 303.30442899 19.48648848 300.49936796 24.39111328 297.69287109 C26.17741826 296.67101158 27.96377786 295.6492477 29.75018311 294.62756348 C30.9485172 293.94218753 32.14680052 293.25672278 33.34503174 292.57116699 C39.67546845 288.94987373 46.01181851 285.33976698 52.36767578 281.76318359 C53.4132666 281.174646 54.45885742 280.5861084 55.53613281 279.97973633 C57.48900909 278.8820133 59.44303589 277.78633349 61.3984375 276.69311523 C65.95472177 274.13277743 70.38388006 271.51034554 74.68017578 268.53271484 C74.03282471 268.17145508 73.38547363 267.81019531 72.71850586 267.43798828 C53.07944077 256.47294462 33.52414664 245.38056021 14.10913086 234.02270508 C6.36746524 229.50051687 -1.40656121 225.03649231 -9.19482422 220.59521484 C-25.76104503 211.14694719 -42.29815262 201.64918757 -58.75634766 192.01367188 C-66.56862315 187.44011627 -74.38890654 182.8978285 -82.31982422 178.53271484 C-117.05870228 159.34049515 -117.05870228 159.34049515 -126.31982422 150.53271484 C-127.58052734 149.38802734 -127.58052734 149.38802734 -128.86669922 148.22021484 C-145.83825883 132.17437667 -156.73176959 108.80992378 -157.55810547 85.32958984 C-158.0968668 56.20265447 -150.02379902 31.76442947 -129.91455078 10.13037109 C-125.17258571 5.37969452 -119.75704535 1.44113297 -114.31982422 -2.46728516 C-113.29501953 -3.23298828 -113.29501953 -3.23298828 -112.24951172 -4.01416016 C-77.10454781 -28.28467335 -34.23270909 -19.61136678 0 0 Z " fill="#29B5E8" transform="translate(157.31982421875,510.46728515625)"/>
<path d="M0 0 C1.71415352 -0.01142029 1.71415352 -0.01142029 3.4629364 -0.02307129 C5.87427595 -0.03384809 8.28566207 -0.03673528 10.69702148 -0.03222656 C14.3645718 -0.03125586 18.03001776 -0.07287626 21.69726562 -0.1171875 C24.04817276 -0.12239636 26.3990871 -0.12508266 28.75 -0.125 C30.3786071 -0.1495929 30.3786071 -0.1495929 32.04011536 -0.17468262 C45.20517033 -0.05663272 52.29922556 6.05079211 61.14993286 15.00363159 C62.39832008 16.28088341 63.64651487 17.55832333 64.89453125 18.8359375 C66.20510792 20.1584079 67.51688776 21.47968691 68.82980347 22.79983521 C72.26702719 26.26167757 75.68939705 29.73782483 79.10827637 33.21777344 C83.92290307 38.11307022 88.75749643 42.98866061 93.59005737 47.86624146 C96.15747782 50.45764795 98.71921794 53.0544649 101.27639771 55.65597534 C106.54191925 61.00101589 111.77024493 66.30483461 117.52799988 71.12876892 C120.00988204 73.27961263 122.10010557 75.68432367 124.26171875 78.15625 C126.69864427 80.93962051 128.96623963 83.38366185 131.875 85.67578125 C132.60074219 86.26746094 133.32648438 86.85914063 134.07421875 87.46875 C134.07421875 88.12875 134.07421875 88.78875 134.07421875 89.46875 C134.69296875 89.71625 135.31171875 89.96375 135.94921875 90.21875 C138.47780502 91.70615369 138.79260879 92.90553009 140.07421875 95.46875 C140.94391296 95.88435181 140.94391296 95.88435181 141.83117676 96.30834961 C144.72136738 97.80354156 146.64300093 99.75255816 148.96289062 102.03515625 C149.43497452 102.49731033 149.90705841 102.95946442 150.39344788 103.43562317 C151.94888843 104.96192894 153.49650716 106.49585032 155.04296875 108.03125 C155.57490341 108.55752991 156.10683807 109.08380981 156.65489197 109.6260376 C159.47249659 112.41369312 162.2843145 115.20703296 165.09130859 118.00537109 C167.97606528 120.87919262 170.8788729 123.73400924 173.78652191 126.5846405 C176.0324908 128.79313808 178.26471409 131.01515704 180.49354553 133.24093628 C181.55698639 134.29836729 182.62537602 135.35084765 183.69895935 136.39797974 C192.70097569 145.19393616 197.45018763 152.30190393 197.65565491 165.12097168 C197.6482151 166.6698407 197.6482151 166.6698407 197.640625 168.25 C197.64682358 169.34413208 197.65302216 170.43826416 197.65940857 171.56555176 C197.66647103 173.86481849 197.66339577 176.16413674 197.65063477 178.46337891 C197.63675498 181.95962468 197.67091473 185.45319759 197.70898438 188.94921875 C197.70993563 191.19531315 197.70807639 193.44141086 197.703125 195.6875 C197.71638321 196.72007935 197.72964142 197.75265869 197.74330139 198.81652832 C197.56011619 213.25761581 189.13400738 221.13338397 179.40625 230.6953125 C178.16170384 231.93560165 176.91812296 233.17686009 175.67546082 234.41903687 C173.08492762 237.00343916 170.48640464 239.57941295 167.88110352 242.14892578 C164.53649464 245.44795662 161.20763781 248.76234726 157.88390064 252.08239174 C155.32400959 254.63786644 152.75872952 257.18786939 150.19147301 259.73594284 C148.96117468 260.9573499 147.73195479 262.1798442 146.50382423 263.40343094 C144.79513824 265.1031186 143.07996082 266.79595215 141.36254883 268.48681641 C140.85395325 268.99474731 140.34535767 269.50267822 139.8213501 270.02600098 C136.30341216 273.46875 136.30341216 273.46875 134.07421875 273.46875 C133.73390625 274.335 133.73390625 274.335 133.38671875 275.21875 C131.73638397 278.04789534 129.64163298 279.45149596 127.07421875 281.46875 C126.35234375 282.37625 125.63046875 283.28375 124.88671875 284.21875 C124.28859375 284.96125 123.69046875 285.70375 123.07421875 286.46875 C122.41421875 286.46875 121.75421875 286.46875 121.07421875 286.46875 C121.07421875 287.12875 121.07421875 287.78875 121.07421875 288.46875 C119.81613159 289.70065308 119.81613159 289.70065308 117.94873047 291.21435547 C111.9683846 296.30526872 106.55444685 301.94347994 101.0518837 307.5381813 C98.351962 310.28063166 95.64230905 313.01338336 92.93327141 315.74682426 C87.90680089 320.81878625 82.88430158 325.89452677 77.87841797 330.98681641 C74.37882594 334.54606006 70.8669197 338.09274337 67.34676743 341.63164902 C66.01626244 342.97382786 64.69028307 344.32050995 63.36914444 345.67190933 C53.8909907 355.3617183 46.40673861 362.94441466 32.11706543 363.16348267 C30.50257507 363.14830093 30.50257507 363.14830093 28.85546875 363.1328125 C27.71694458 363.13759613 26.57842041 363.14237976 25.40539551 363.14730835 C23.01194873 363.15069217 20.61845477 363.141597 18.22509766 363.12060547 C14.58390189 363.09382123 10.9457886 363.12040858 7.3046875 363.15234375 C4.96744119 363.14903939 2.63019677 363.14263261 0.29296875 363.1328125 C-0.78335815 363.14293365 -1.85968506 363.15305481 -2.96862793 363.16348267 C-12.26910642 363.02090157 -20.14336939 360.02508147 -26.92578125 353.46875 C-26.92578125 352.80875 -26.92578125 352.14875 -26.92578125 351.46875 C-27.91578125 351.13875 -28.90578125 350.80875 -29.92578125 350.46875 C-29.92578125 349.80875 -29.92578125 349.14875 -29.92578125 348.46875 C-30.50571712 348.21399241 -31.085653 347.95923483 -31.68316269 347.69675732 C-34.16723082 346.33653766 -35.81114582 344.82671486 -37.80767822 342.82063293 C-38.56730362 342.06231171 -39.32692902 341.30399048 -40.10957336 340.52268982 C-41.34552498 339.27359581 -41.34552498 339.27359581 -42.60644531 337.99926758 C-43.481754 337.12264465 -44.35706268 336.24602173 -45.25889587 335.34283447 C-47.16056103 333.43690402 -49.06029952 331.52926081 -50.95700836 329.61841774 C-53.96209301 326.5910169 -56.97429521 323.57076534 -59.98748779 320.55143738 C-64.75924284 315.7683015 -69.52630566 310.98052047 -74.29133868 306.19068879 C-82.80671358 297.63105682 -91.32754054 289.0768617 -99.85375571 280.52802771 C-102.84141958 277.5320066 -105.82625037 274.53320049 -108.80876112 271.53204978 C-111.11306739 269.21448947 -113.42060892 266.90015312 -115.72753906 264.58520508 C-116.54340988 263.76259689 -117.3592807 262.93998871 -118.19987488 262.092453 C-122.41925935 257.86477291 -126.71078538 253.81086709 -131.27332687 249.95415783 C-133.4411782 248.0054545 -135.14919596 245.77173094 -136.92578125 243.46875 C-138.41078125 242.47875 -138.41078125 242.47875 -139.92578125 241.46875 C-139.92578125 240.80875 -139.92578125 240.14875 -139.92578125 239.46875 C-140.76109375 239.1284375 -140.76109375 239.1284375 -141.61328125 238.78125 C-144.58737713 237.09324964 -146.6458699 235.00198483 -148.92578125 232.46875 C-148.92578125 231.80875 -148.92578125 231.14875 -148.92578125 230.46875 C-149.76109375 230.1284375 -149.76109375 230.1284375 -150.61328125 229.78125 C-153.58737713 228.09324964 -155.6458699 226.00198483 -157.92578125 223.46875 C-157.92578125 222.80875 -157.92578125 222.14875 -157.92578125 221.46875 C-158.53164063 221.21480469 -159.1375 220.96085938 -159.76171875 220.69921875 C-162.20710885 219.30878936 -163.09927365 218.16453184 -164.55078125 215.78125 C-164.95554687 215.13800781 -165.3603125 214.49476563 -165.77734375 213.83203125 C-168.94449916 207.3145856 -169.24475571 201.23983911 -169.26171875 194.109375 C-169.26837555 193.12434998 -169.27503235 192.13932495 -169.28189087 191.12445068 C-169.29198068 189.04685319 -169.29670903 186.96922353 -169.29638672 184.89160156 C-169.30074865 181.74228385 -169.33707721 178.59438174 -169.375 175.4453125 C-169.5135688 151.26721865 -169.5135688 151.26721865 -161.05078125 142.65625 C-160.27863281 141.85832031 -159.50648438 141.06039062 -158.7109375 140.23828125 C-157.79183594 139.32433594 -156.87273438 138.41039062 -155.92578125 137.46875 C-154.71478725 136.22397653 -153.50524581 134.97778886 -152.296875 133.73046875 C-151.02872246 132.43354628 -149.75919347 131.13796826 -148.48828125 129.84375 C-147.87291504 129.2149292 -147.25754883 128.5861084 -146.62353516 127.93823242 C-146.04394043 127.3579126 -145.4643457 126.77759277 -144.8671875 126.1796875 C-144.34842041 125.65681152 -143.82965332 125.13393555 -143.29516602 124.59521484 C-141.92578125 123.46875 -141.92578125 123.46875 -139.92578125 123.46875 C-139.65765625 122.829375 -139.38953125 122.19 -139.11328125 121.53125 C-137.92578125 119.46875 -137.92578125 119.46875 -134.92578125 118.46875 C-134.22701665 117.15195455 -133.56393469 115.81596283 -132.92578125 114.46875 C-131.375 112.72265625 -131.375 112.72265625 -129.61328125 111.03125 C-128.99324219 110.43183594 -128.37320313 109.83242188 -127.734375 109.21484375 C-127.13753906 108.63863281 -126.54070313 108.06242188 -125.92578125 107.46875 C-125.01828125 106.52 -124.11078125 105.57125 -123.17578125 104.59375 C-120.92578125 102.46875 -120.92578125 102.46875 -117.92578125 101.46875 C-117.92578125 100.80875 -117.92578125 100.14875 -117.92578125 99.46875 C-116.44863701 98.01216793 -116.44863701 98.01216793 -114.41085815 96.32371521 C-110.11645233 92.66913179 -106.13015365 88.79482238 -102.16455078 84.78930664 C-101.43507736 84.05676666 -100.70560394 83.32422668 -99.95402527 82.56948853 C-98.38537562 80.99373535 -96.8178575 79.41685507 -95.25137711 77.83894539 C-92.77458291 75.34465516 -90.29416944 72.85401677 -87.81271362 70.36436462 C-80.76343137 63.29070613 -73.71993357 56.21130776 -66.68066406 49.12768555 C-62.36387269 44.78419959 -58.04229413 40.44552549 -53.71767807 36.10983086 C-52.0706841 34.45661278 -50.42559203 32.80149777 -48.78241348 31.14448738 C-46.49630691 28.83928648 -44.20421906 26.54019876 -41.91064453 24.24243164 C-41.22909805 23.55212357 -40.54755157 22.86181549 -39.84535217 22.15058899 C-39.22310257 21.52964355 -38.60085297 20.90869812 -37.95974731 20.26893616 C-37.41890566 19.7249521 -36.878064 19.18096804 -36.32083321 18.62049961 C-34.92578125 17.46875 -34.92578125 17.46875 -32.92578125 17.46875 C-32.67828125 16.85 -32.43078125 16.23125 -32.17578125 15.59375 C-30.71949486 13.11806313 -29.54765619 12.51749998 -26.92578125 11.46875 C-26.92578125 10.80875 -26.92578125 10.14875 -26.92578125 9.46875 C-25.421875 8.06640625 -25.421875 8.06640625 -23.36328125 6.53125 C-22.37134766 5.77521484 -22.37134766 5.77521484 -21.359375 5.00390625 C-14.17072261 0.46917047 -8.38399087 0.00154667 0 0 Z M-24.54492188 144.73779297 C-26.30066089 146.47691307 -28.0617563 148.210642 -29.828125 149.93896484 C-32.39904552 152.45497157 -34.9529883 154.98717134 -37.50390625 157.5234375 C-38.28936829 158.28623016 -39.07483032 159.04902283 -39.88409424 159.83493042 C-45.9820557 165.95654813 -50.50082427 172.46307712 -50.48828125 181.40625 C-50.51019531 182.32277344 -50.53210938 183.23929688 -50.5546875 184.18359375 C-48.647687 194.1450063 -42.29737632 200.81981894 -35.27734375 207.7109375 C-33.88121353 209.10712814 -33.88121353 209.10712814 -32.45687866 210.53152466 C-30.49946763 212.48729459 -28.53392837 214.43435498 -26.56152344 216.375 C-24.04749281 218.84924682 -21.5516109 221.34088799 -19.0611515 223.83883476 C-16.66203325 226.24177683 -14.25069547 228.63226599 -11.83984375 231.0234375 C-10.95108551 231.91199432 -10.06232727 232.80055115 -9.14663696 233.71603394 C-2.04536104 240.68346577 3.99609458 245.45704267 14.19921875 245.84375 C15.50246094 245.91722656 15.50246094 245.91722656 16.83203125 245.9921875 C25.90994856 244.52659603 32.17899225 239.04975392 38.26171875 232.53125 C39.58606441 231.14476495 40.91286274 229.7606182 42.2421875 228.37890625 C42.88075684 227.71391113 43.51932617 227.04891602 44.17724609 226.36376953 C46.50359621 224.03981463 48.96666082 221.93225404 51.48779297 219.82446289 C53.81661817 217.83431726 55.93042984 215.65548076 58.07421875 213.46875 C59.28183926 212.29219917 60.49165714 211.11790142 61.703125 209.9453125 C63.01446002 208.66159837 64.32565523 207.37774141 65.63671875 206.09375 C66.29607422 205.45953125 66.95542969 204.8253125 67.63476562 204.171875 C71.66188144 200.20546948 74.50986194 196.51053628 77.07421875 191.46875 C77.48671875 190.685 77.89921875 189.90125 78.32421875 189.09375 C80.55521478 181.28526391 78.78870432 174.52746695 75.07421875 167.46875 C73.54027042 165.16553802 72.04792352 163.44245477 70.07421875 161.46875 C69.41421875 161.46875 68.75421875 161.46875 68.07421875 161.46875 C68.07421875 160.80875 68.07421875 160.14875 68.07421875 159.46875 C66.45622373 157.83199492 66.45622373 157.83199492 64.38671875 156.15625 C59.5361255 152.09125189 55.17186343 147.58264718 50.7744751 143.04075623 C48.55350479 140.75209991 46.31848264 138.47736104 44.08300781 136.20288086 C42.91308282 135.00778397 41.74768096 133.80824193 40.58691406 132.60424805 C30.5167215 122.03289059 30.5167215 122.03289059 17.10546875 116.9375 C-1.23662455 117.1639456 -12.4407262 132.71759115 -24.54492188 144.73779297 Z " fill="#29B5E8" transform="translate(767.92578125,597.53125)"/>
</svg>
