<?xml version="1.0" encoding="UTF-8"?>
<svg version="1.1" xmlns="http://www.w3.org/2000/svg" width="800" height="600">
<path d="M0 0 C0.94051608 -0.00367669 1.88103216 -0.00735338 2.85004872 -0.01114148 C5.99787233 -0.02214383 9.14566288 -0.02601636 12.29350281 -0.02983093 C14.55249129 -0.03609837 16.81147875 -0.04274543 19.07046509 -0.04974365 C26.48814683 -0.07075975 33.90582871 -0.08114639 41.3235321 -0.09111023 C43.88194985 -0.09515924 46.44036749 -0.0992762 48.99878502 -0.10346031 C59.64730873 -0.12032788 70.29582906 -0.13496041 80.94436359 -0.14220905 C83.70462355 -0.14411866 86.46488351 -0.14603903 89.22514343 -0.147995 C90.25409894 -0.14872061 90.25409894 -0.14872061 91.30384143 -0.14946087 C102.39505317 -0.15774614 113.48615653 -0.18305854 124.57732103 -0.21557567 C135.98959746 -0.24875863 147.40179325 -0.26633611 158.81412286 -0.26985329 C165.21141343 -0.27219642 171.60853273 -0.28106028 178.00577736 -0.30631447 C184.03294969 -0.32972294 190.05983953 -0.33377723 196.08704567 -0.32355309 C198.28751062 -0.32306065 200.48799008 -0.32929375 202.68841171 -0.34310913 C232.83305692 -0.52163287 256.88419167 8.23958863 279.08525085 29.27217102 C292.59419468 43.23379551 301.1759579 60.31425873 305.58525085 79.14717102 C305.75959656 79.89023499 305.93394226 80.63329895 306.11357117 81.39888 C308.82289259 97.18502455 308.20753006 117.18494915 302.58525085 132.14717102 C302.19982117 133.21064758 301.81439148 134.27412415 301.4172821 135.36982727 C300.2486724 138.36131684 298.96910981 141.24958951 297.58525085 144.14717102 C297.15599304 145.04693665 296.72673523 145.94670227 296.2844696 146.87373352 C284.4216062 170.06479607 263.36565237 188.26677635 238.63212585 196.53388977 C233.52666511 198.0559152 228.94406001 199.38578219 223.58525085 199.14717102 C223.58525085 199.80717102 223.58525085 200.46717102 223.58525085 201.14717102 C224.71962585 201.18842102 225.85400085 201.22967102 227.02275085 201.27217102 C244.87391894 203.32112585 261.51855671 213.36540141 274.58525085 225.14717102 C275.42700867 225.89482727 276.26876648 226.64248352 277.1360321 227.41279602 C288.19580804 237.80176129 296.17586928 251.03498798 301.58525085 265.14717102 C301.84209656 265.80507629 302.09894226 266.46298157 302.36357117 267.14082336 C309.97677457 287.64956193 309.59803672 314.83800473 301.58525085 335.14717102 C301.30117371 335.87388 301.01709656 336.60058899 300.72441101 337.34931946 C290.11760917 363.57600239 270.63921355 383.0326614 244.58525085 394.14717102 C217.92678173 404.31948161 189.68740212 403.5775663 163.58525085 392.14717102 C146.46815734 384.05482329 131.77606304 371.06400886 121.58525085 355.14717102 C121.0850946 354.42658508 120.58493835 353.70599915 120.06962585 352.96357727 C116.40065207 347.39253023 114.13959352 341.54151381 111.89775085 335.29951477 C111.57741882 334.41840027 111.25708679 333.53728577 110.92704773 332.62947083 C110.14260667 330.47006265 109.36212939 328.30930893 108.58525085 326.14717102 C108.58166832 327.52925153 108.58166832 327.52925153 108.57801342 328.93925285 C108.51870583 351.42761287 108.44305584 373.91586713 108.34953594 396.40411186 C108.30469741 407.27955527 108.26525562 418.15496681 108.23881531 429.0304718 C108.21573807 438.51690225 108.18223269 448.0032308 108.13654929 457.48958027 C108.11274744 462.50585921 108.0939337 467.52203805 108.08763695 472.53837204 C108.0815265 477.27442168 108.06131574 482.01021565 108.03097534 486.74617004 C108.02228948 488.47047769 108.01845252 490.19481889 108.02024269 491.91914749 C108.04031754 520.21600376 101.08871341 546.84991174 81.58525085 568.14717102 C80.81439148 568.99924133 80.0435321 569.85131165 79.24931335 570.72920227 C64.13549635 586.65006776 41.52139707 599.14631763 19.2363739 600.32417297 C-14.32050763 600.88919459 -40.63721092 594.9693125 -65.91474915 571.02217102 C-79.42369297 557.06054653 -88.00545619 539.98008331 -92.41474915 521.14717102 C-92.58909485 520.40410706 -92.76344055 519.66104309 -92.94306946 518.89546204 C-95.65239088 503.10931749 -95.03702835 483.10939289 -89.41474915 468.14717102 C-89.02931946 467.08369446 -88.64388977 466.0202179 -88.2467804 464.92451477 C-87.07817069 461.9330252 -85.7986081 459.04475253 -84.41474915 456.14717102 C-83.77086243 454.79752258 -83.77086243 454.79752258 -83.1139679 453.42060852 C-71.25110449 430.22954597 -50.19515066 412.0275657 -25.46162415 403.76045227 C-20.3561634 402.23842684 -15.7735583 400.90855985 -10.41474915 401.14717102 C-10.41474915 400.48717102 -10.41474915 399.82717102 -10.41474915 399.14717102 C-11.54912415 399.10592102 -12.68349915 399.06467102 -13.85224915 399.02217102 C-31.70341723 396.97321619 -48.348055 386.92894063 -61.41474915 375.14717102 C-62.25650696 374.39951477 -63.09826477 373.65185852 -63.9655304 372.88154602 C-79.69811025 358.1031973 -92.40261967 334.7382444 -93.5917511 312.89595032 C-94.12879827 280.69237667 -94.12879827 280.69237667 -89.41474915 268.14717102 C-89.02931946 267.08369446 -88.64388977 266.0202179 -88.2467804 264.92451477 C-78.03607291 238.78642539 -59.0927707 218.29969597 -33.31513977 206.92597961 C-18.03617789 200.66443177 -18.03617789 200.66443177 -10.41474915 201.14717102 C-10.41474915 200.48717102 -10.41474915 199.82717102 -10.41474915 199.14717102 C-11.59037415 199.08529602 -12.76599915 199.02342102 -13.97724915 198.95967102 C-31.8422616 196.86611487 -48.34261757 187.07079263 -61.41474915 175.14717102 C-62.18045227 174.46267883 -62.9461554 173.77818665 -63.73506165 173.07295227 C-78.57230446 159.08872167 -87.80286322 140.84539565 -92.41474915 121.14717102 C-92.58909485 120.40410706 -92.76344055 119.66104309 -92.94306946 118.89546204 C-95.65239088 103.10931749 -95.03702835 83.10939289 -89.41474915 68.14717102 C-89.02931946 67.08369446 -88.64388977 66.0202179 -88.2467804 64.92451477 C-87.07817069 61.9330252 -85.7986081 59.04475253 -84.41474915 56.14717102 C-83.98549133 55.2474054 -83.55623352 54.34763977 -83.1139679 53.42060852 C-71.08630428 29.90737317 -50.09526835 12.12494697 -25.0292511 3.93525696 C-16.58000998 1.28566235 -8.84359362 -0.00186627 0 0 Z M107.58525085 201.14717102 C107.58525085 226.88717102 107.58525085 252.62717102 107.58525085 279.14717102 C107.91525085 279.14717102 108.24525085 279.14717102 108.58525085 279.14717102 C108.86497742 278.0824054 109.14470398 277.01763977 109.4329071 275.92060852 C116.97967917 248.18051368 132.80858853 226.64858828 157.96025085 212.20967102 C166.5314405 207.69031648 175.28710666 204.76755711 184.58525085 202.14717102 C184.58525085 201.81717102 184.58525085 201.48717102 184.58525085 201.14717102 C159.17525085 201.14717102 133.76525085 201.14717102 107.58525085 201.14717102 Z " fill="#A159FE" transform="translate(293.4147491455078,-0.1471710205078125)"/>
<path d="M0 0 C0.94051608 -0.00367669 1.88103216 -0.00735338 2.85004872 -0.01114148 C5.99787233 -0.02214383 9.14566288 -0.02601636 12.29350281 -0.02983093 C14.55249129 -0.03609837 16.81147875 -0.04274543 19.07046509 -0.04974365 C26.48814683 -0.07075975 33.90582871 -0.08114639 41.3235321 -0.09111023 C43.88194985 -0.09515924 46.44036749 -0.0992762 48.99878502 -0.10346031 C59.64730873 -0.12032788 70.29582906 -0.13496041 80.94436359 -0.14220905 C83.70462355 -0.14411866 86.46488351 -0.14603903 89.22514343 -0.147995 C90.25409894 -0.14872061 90.25409894 -0.14872061 91.30384143 -0.14946087 C102.39505317 -0.15774614 113.48615653 -0.18305854 124.57732103 -0.21557567 C135.98959746 -0.24875863 147.40179325 -0.26633611 158.81412286 -0.26985329 C165.21141343 -0.27219642 171.60853273 -0.28106028 178.00577736 -0.30631447 C184.03294969 -0.32972294 190.05983953 -0.33377723 196.08704567 -0.32355309 C198.28751062 -0.32306065 200.48799008 -0.32929375 202.68841171 -0.34310913 C232.83305692 -0.52163287 256.88419167 8.23958863 279.08525085 29.27217102 C292.59419468 43.23379551 301.1759579 60.31425873 305.58525085 79.14717102 C305.75959656 79.89023499 305.93394226 80.63329895 306.11357117 81.39888 C308.82289259 97.18502455 308.20753006 117.18494915 302.58525085 132.14717102 C302.19982117 133.21064758 301.81439148 134.27412415 301.4172821 135.36982727 C300.2486724 138.36131684 298.96910981 141.24958951 297.58525085 144.14717102 C297.15599304 145.04693665 296.72673523 145.94670227 296.2844696 146.87373352 C283.97575016 170.93641322 262.0881698 188.98232428 236.48635864 197.38319397 C227.33041369 200.12956525 218.19095752 200.5616212 208.68681335 200.76826477 C207.22922227 200.80568187 205.77163672 200.84331543 204.3140564 200.88114929 C187.67711267 201.28863627 171.03863604 201.30264372 154.39775085 201.27217102 C152.68168643 201.26958148 150.96562197 201.26700812 149.2495575 201.26445007 C138.68724574 201.24718254 128.12501947 201.21478814 117.56276131 201.17761707 C109.2165851 201.1495195 100.87042993 201.13613285 92.5242157 201.12519836 C80.52781424 201.108632 68.53165979 201.07090679 56.53539371 201.01186752 C49.92864937 200.97999122 43.32211145 200.95603427 36.71528625 200.9521637 C30.43564052 200.94792472 24.15653107 200.91949884 17.87705421 200.87386513 C15.55815567 200.86099141 13.239193 200.85637855 10.92026329 200.86098289 C-18.70302474 200.90665838 -43.51328178 192.57690352 -65.16474915 171.89717102 C-78.91324138 157.48245229 -87.87531624 140.5359353 -92.41474915 121.14717102 C-92.58909485 120.40410706 -92.76344055 119.66104309 -92.94306946 118.89546204 C-95.65239088 103.10931749 -95.03702835 83.10939289 -89.41474915 68.14717102 C-89.02931946 67.08369446 -88.64388977 66.0202179 -88.2467804 64.92451477 C-87.07817069 61.9330252 -85.7986081 59.04475253 -84.41474915 56.14717102 C-83.98549133 55.2474054 -83.55623352 54.34763977 -83.1139679 53.42060852 C-71.08630428 29.90737317 -50.09526835 12.12494697 -25.0292511 3.93525696 C-16.58000998 1.28566235 -8.84359362 -0.00186627 0 0 Z " fill="#FE7161" transform="translate(293.4147491455078,-0.1471710205078125)"/>
<path d="M0 0 C1.15053675 -0.00012053 2.30107349 -0.00024107 3.48647499 -0.00036526 C7.20145238 0.00037963 10.91637927 0.0079886 14.63134766 0.01586914 C16.92862931 0.01733987 19.2259113 0.01835977 21.52319336 0.0189209 C30.03060408 0.02415858 38.53800762 0.03811981 47.04541016 0.05102539 C66.06166016 0.07165039 85.07791016 0.09227539 104.67041016 0.11352539 C104.67041016 66.11352539 104.67041016 132.11352539 104.67041016 200.11352539 C76.30072266 200.26821289 76.30072266 200.26821289 47.35791016 200.42602539 C41.42266357 200.47154541 35.48741699 200.51706543 29.37231445 200.56396484 C22.03137207 200.58654785 22.03137207 200.58654785 18.57673645 200.59074402 C16.20335682 200.59833875 13.82999445 200.61574785 11.45674133 200.6414032 C-19.29455556 200.95673149 -44.52302846 193.40773058 -67.07958984 171.86352539 C-80.82808208 157.44880666 -89.79015694 140.50228967 -94.32958984 121.11352539 C-94.50393555 120.37046143 -94.67828125 119.62739746 -94.85791016 118.86181641 C-97.56723158 103.07567186 -96.95186905 83.07574726 -91.32958984 68.11352539 C-90.94416016 67.05004883 -90.55873047 65.98657227 -90.16162109 64.89086914 C-88.99301139 61.89937957 -87.7134488 59.0111069 -86.32958984 56.11352539 C-85.90033203 55.21375977 -85.47107422 54.31399414 -85.02880859 53.38696289 C-73.00114498 29.87372754 -52.01010905 12.09130134 -26.9440918 3.90161133 C-17.79639282 1.03298756 -9.57103329 -0.0323315 0 0 Z " fill="#F14E1E" transform="translate(295.32958984375,-0.113525390625)"/>
<path d="M0 0 C2.6184267 0.00934776 5.23686226 0.01645456 7.8553009 0.0214386 C13.98893334 0.03682356 20.12210669 0.07763746 26.25553924 0.12818605 C33.25215373 0.18456557 40.24879311 0.21168659 47.24557912 0.23666322 C61.6079639 0.2885723 75.96999113 0.37620677 90.33203125 0.48828125 C90.40189631 14.25882665 90.45502656 28.02932909 90.48746777 41.8000164 C90.50304692 48.19600614 90.52414189 54.59187358 90.55834961 60.98779297 C90.59122158 67.17348539 90.60894235 73.35906103 90.61666298 79.54483414 C90.62215694 81.89123495 90.63288342 84.2376302 90.64922142 86.58398056 C90.85326993 117.1350882 85.59546951 145.26917559 64.33203125 168.48828125 C63.56117188 169.34035156 62.7903125 170.19242188 61.99609375 171.0703125 C46.88227674 186.99117799 24.26817746 199.48742786 1.9831543 200.6652832 C-31.57372723 201.23030482 -57.89043052 195.31042273 -83.16796875 171.36328125 C-96.67691258 157.40165676 -105.25867579 140.32119354 -109.66796875 121.48828125 C-109.84231445 120.74521729 -110.01666016 120.00215332 -110.19628906 119.23657227 C-112.90561049 103.45042772 -112.29024796 83.45050312 -106.66796875 68.48828125 C-106.28253906 67.42480469 -105.89710938 66.36132812 -105.5 65.265625 C-104.33139029 62.27413543 -103.05182771 59.38586276 -101.66796875 56.48828125 C-101.23871094 55.58851563 -100.80945313 54.68875 -100.3671875 53.76171875 C-88.44133135 30.44750983 -67.41597895 12.50956445 -42.66654968 4.04548645 C-28.53230209 -0.30710008 -14.67112379 -0.15561282 0 0 Z " fill="#0ACE83" transform="translate(310.66796875,399.51171875)"/>
<path d="M0 0 C1.45029538 -0.01141585 2.90055231 -0.03169888 4.35058594 -0.06152344 C30.3681085 -0.59462057 53.06620221 9.2636727 71.99121094 26.99438477 C91.72067538 46.42691747 102.62350671 70.54698796 102.94586182 98.18511963 C102.98431395 111.09122505 102.0996575 123.19878882 97.32714844 135.29516602 C97.04307129 136.021875 96.75899414 136.74858398 96.46630859 137.49731445 C85.85950675 163.72399738 66.38111113 183.1806564 40.32714844 194.29516602 C13.66867931 204.4674766 -14.5707003 203.7255613 -40.67285156 192.29516602 C-57.78994508 184.20281828 -72.48203938 171.21200386 -82.67285156 155.29516602 C-83.42308594 154.21428711 -83.42308594 154.21428711 -84.18847656 153.11157227 C-87.7689884 147.67484771 -90.14549854 141.92526986 -92.42285156 135.85766602 C-92.71675781 135.08302002 -93.01066406 134.30837402 -93.31347656 133.51025391 C-97.26242255 122.57638119 -98.01458467 112.05312913 -97.98535156 100.48266602 C-98.00146484 99.21874023 -98.01757812 97.95481445 -98.03417969 96.65258789 C-98.04813359 69.40061736 -86.5007457 46.67532545 -67.98535156 27.23266602 C-49.43591842 9.16466854 -25.60350199 0.13945883 0 0 Z " fill="#1ABBFD" transform="translate(497.6728515625,199.704833984375)"/>
</svg>
