<svg width="480" height="480" xmlns="http://www.w3.org/2000/svg" xmlns:xlink="http://www.w3.org/1999/xlink" overflow="hidden"><path d="M0 0C0 3.98828-1.8993 5.98883-4.1875 9.0625-4.63311 9.67464-5.07873 10.2868-5.53784 10.9175-7.01845 12.95-8.50844 14.9755-10 17-44.492 63.9043-69.4929 108.613-61.0586 168.418-59.8109 176.559-58.1568 184.62-56.5345 192.693-54.2493 204.11-52.6078 215.372-52 227-51.9291 228.221-51.8582 229.441-51.7852 230.699-50.6483 271.308-64.489 310.941-89 343-89.6819 343.906-90.3638 344.812-91.0664 345.746-120.216 382.971-163.423 406.42-210.09 412.586-216.972 413.293-223.901 413.244-230.812 413.25-231.912 413.251-231.912 413.251-233.034 413.252-244.907 413.235-256.383 412.594-268 410-268.795 409.823-269.59 409.646-270.409 409.464-291.131 404.697-310.912 396.788-329.062 385.688-329.76 385.267-330.457 384.846-331.176 384.413-333.098 383.199-333.098 383.199-336 381-336 380.01-336 379.02-336 378-331.148 375.707-326.296 373.414-321.443 371.121-319.799 370.345-318.156 369.568-316.512 368.791-315.326 368.23-315.326 368.23-314.115 367.658-313.326 367.285-312.537 366.912-311.724 366.527-310.133 365.777-308.541 365.029-306.949 364.284-303.187 362.522-299.449 360.734-295.75 358.844-294.751 358.346-294.751 358.346-293.732 357.837-291.947 356.944-290.171 356.032-288.397 355.119-281.781 352.939-275.743 355.258-269.312 357.375-235.837 367.716-201.087 363.646-170 348-166.16 345.88-162.57 343.547-159 341-157.463 339.908-157.463 339.908-155.895 338.793-127.887 318.341-109.103 288.161-103.656 253.801-100.605 230.333-101.631 199.662-115 179-119.292 175.948-122.804 175.373-128 176-133.946 178.311-138.856 181.939-143.812 185.875-145.31 187.042-146.809 188.207-148.309 189.371-149.079 189.97-149.85 190.57-150.644 191.187-154.511 194.163-158.441 197.052-162.375 199.938-163.166 200.518-163.956 201.099-164.771 201.697-166.378 202.876-167.985 204.055-169.593 205.234-173.567 208.149-177.533 211.075-181.5 214-183.083 215.167-184.667 216.333-186.25 217.5-187.034 218.077-187.818 218.655-188.625 219.25-210 235-231.375 250.75-252.75 266.5-253.535 267.078-254.319 267.656-255.128 268.252-256.701 269.412-258.275 270.571-259.849 271.73-263.958 274.757-268.065 277.786-272.172 280.816-273.447 281.757-273.447 281.757-274.748 282.717-276.364 283.909-277.98 285.102-279.596 286.295-284.036 289.57-288.502 292.805-293 296-293 293-293 293-291.835 291.463-291.283 290.913-290.73 290.362-290.162 289.795-289.528 289.157-288.895 288.518-288.243 287.86-287.536 287.163-286.828 286.465-286.1 285.746-284.986 284.629-284.986 284.629-283.85 283.491-281.345 280.982-278.828 278.485-276.312 275.988-274.52 274.198-272.728 272.407-270.938 270.616-267.07 266.752-263.199 262.892-259.323 259.036-253.711 253.453-248.108 247.862-242.507 242.268-233.41 233.182-224.306 224.102-215.198 215.027-206.368 206.229-197.54 197.428-188.714 188.625-188.171 188.083-187.629 187.542-187.07 186.984-181.14 181.069-175.21 175.153-169.282 169.236-168.76 168.715-168.238 168.194-167.7 167.658-165.613 165.575-163.526 163.492-161.439 161.408-155.339 155.319-149.236 149.232-143.129 143.149-138.839 138.875-134.55 134.599-130.263 130.321-128.508 128.571-126.751 126.822-124.994 125.073-122.59 122.681-120.189 120.285-117.789 117.889-117.098 117.203-116.406 116.516-115.693 115.808-111.788 111.903-108.072 107.888-104.472 103.699-102.702 101.655-100.846 99.7191-98.9358 97.8064-98.2214 97.0888-97.507 96.3713-96.7709 95.6319-96.0228 94.8859-95.2747 94.1398-94.5039 93.3711-93.7115 92.5778-92.9192 91.7844-92.1028 90.9671-90.4375 89.3011-88.771 87.6364-87.1033 85.9729-84.5697 83.4446-82.0414 80.9111-79.5137 78.377-77.8857 76.7497-76.2575 75.1227-74.6289 73.4961-73.5098 72.3739-73.5098 72.3739-72.3681 71.2291-69.0985 67.9739-65.8145 64.7979-62.3025 61.8047-56.0607 56.4186-50.3447 50.4674-44.5312 44.6289-43.2425 43.3383-41.9536 42.048-40.6644 40.7578-37.2954 37.385-33.9294 34.0092-30.5641 30.6328-27.1201 27.1785-23.6732 23.7271-20.2266 20.2754-13.4816 13.5197-6.73977 6.76088 0 0Z" fill="#D9D9D9" transform="translate(479 10)"/><path d="M0 0C36.824-0.769703 71.9127 9.28107 103.211 28.4961 103.913 28.9252 104.614 29.3543 105.337 29.7964 107 30.8467 108.612 31.9769 110.211 33.1211 110.211 33.7811 110.211 34.4411 110.211 35.1211 104.63 37.7198 99.0468 40.3157 93.4629 42.9092 91.5696 43.789 89.6767 44.6695 87.7842 45.5508 83.2544 47.6599 78.7206 49.7592 74.1755 51.8352 71.1135 53.234 68.0777 54.6695 65.0608 56.1628 55.5262 60.7738 55.5262 60.7738 50.5039 59.5 49.1171 58.9378 47.7477 58.3307 46.3984 57.6836 44.8511 57.0694 43.3002 56.4641 41.7461 55.8672 40.9831 55.5641 40.2202 55.261 39.4341 54.9487 19.9727 47.7036-4.97351 49.1622-24.7891 54.1211-25.4637 54.2821-26.1384 54.443-26.8335 54.6089-60.7765 62.855-88.8328 84.5508-107.238 113.973-123.775 141.446-130.86 176.614-123.82 208.121-118.126 230.942-107.925 250.059-91.4414 266.965-89.7891 269.121-89.7891 269.121-89.7891 273.121-91.6953 275.234-91.6953 275.234-94.2891 277.434-95.2069 278.224-96.1247 279.014-97.0703 279.828-97.9675 280.585-98.8647 281.341-99.7891 282.121-101.125 283.285-102.458 284.451-103.789 285.621-104.431 286.181-105.073 286.74-105.734 287.316-109.789 290.877-113.784 294.505-117.789 298.121-123.072 302.891-128.368 307.64-133.734 312.316-137.789 315.877-141.784 319.505-145.789 323.121-151.072 327.891-156.368 332.64-161.734 337.316-165.789 340.877-169.784 344.505-173.789 348.121-179.072 352.891-184.368 357.64-189.734 362.316-193.789 365.877-197.784 369.505-201.789 373.121-207.072 377.891-212.368 382.64-217.734 387.316-220.06 389.359-222.364 391.425-224.664 393.496-225.497 394.245-226.33 394.994-227.188 395.766-228.993 397.4-230.789 399.044-232.578 400.695-233.473 401.516-234.367 402.338-235.289 403.184-236.104 403.938-236.918 404.692-237.758 405.469-239.789 407.121-239.789 407.121-241.789 407.121-237.627 397.96-229.497 390.47-222.789 383.121-221.268 381.413-219.747 379.705-218.227 377.996-214.824 374.209-211.292 370.601-207.668 367.027-205.285 364.609-203.086 362.062-200.879 359.484-199.256 357.65-197.611 355.87-195.918 354.102-175.208 332.418-156.337 307.352-156.42 276.134-156.736 263.678-160.963 252.434-165.14 240.836-167.251 234.891-169.053 228.924-170.602 222.809-170.796 222.058-170.991 221.307-171.191 220.534-174.346 207.595-175.17 194.684-175.102 181.434-175.1 180.692-175.098 179.95-175.096 179.186-175.047 167.286-174.387 155.762-171.789 144.121-171.54 142.971-171.54 142.971-171.285 141.797-165.938 117.835-156.21 95.0293-141.789 75.1211-140.644 73.5297-140.644 73.5297-139.477 71.9062-123.909 50.9117-104.321 35.025-81.7891 22.1211-80.8334 21.5681-80.8334 21.5681-79.8584 21.0039-60.2976 9.88005-37.9788 3.94686-15.7891 1.12109-14.0585 0.896797-14.0585 0.896797-12.293 0.667969-8.19526 0.24541-4.11618 0.131548 0 0Z" fill="#D9D9D9" transform="translate(241.789 62.8789)"/></svg>