<svg width="800" height="800" viewBox="0 0 512 512" xmlns="http://www.w3.org/2000/svg" xmlns:xlink="http://www.w3.org/1999/xlink" id="_x32_" xml:space="preserve" overflow="hidden"><g><path d="M502.472 256.833C495.981 195.758 461.782 146.373 416.39 112.732 370.503 78.692 313.094 60.008 258.715 59.972 202.272 59.981 167.453 67.145 144.403 77.054 121.627 86.698 110.629 100.034 104.59 107.897 79.91 111.926 55.328 126.245 35.82 146.594 15.107 168.343 0.054 197.423 0 229.381 0 264.351 8.112 293.901 24.299 315.879 38.653 335.475 59.587 348.351 84.506 353.027 86.144 362.483 90.066 373.03 98.178 382.674 106.59 392.734 118.066 400.057 131.632 404.706 145.216 409.381 160.961 411.542 178.866 411.559L253.95 411.559C255.8 416.288 258.058 420.795 261.167 424.772 268.809 434.557 279.816 441.428 293.001 445.732 306.249 450.062 321.86 452.02 339.996 452.028 348.905 452.028 357.344 451.621 364.508 451.276L364.534 451.276C369.67 451.002 374.089 450.807 377.232 450.807 386.698 450.807 395.758 448.505 403.55 443.988 411.343 439.49 417.807 432.822 422.226 424.631 424.458 420.477 425.928 416.121 427.026 411.729 443.753 408.603 457.63 402.493 468.433 394.701 481.096 385.58 489.8 374.591 495.716 364.611 507.272 345.059 511.983 323.364 512.001 303.227 511.982 286.064 508.511 270.08 502.472 256.833ZM475.862 352.849C471.213 360.686 464.51 369.09 454.946 375.97 445.365 382.842 432.905 388.35 415.886 390.289L406.367 391.361 405.667 400.916C405.375 405.043 404.091 409.683 401.93 413.676 399.424 418.254 396.095 421.638 392.012 424.011 387.912 426.367 383.006 427.721 377.232 427.729 373.159 427.729 368.518 427.969 363.374 428.225L365.296 428.137 363.382 428.225C356.237 428.58 348.204 428.961 339.996 428.961 318.053 428.996 301.697 425.605 291.249 420.097 285.998 417.361 282.189 414.191 279.365 410.586 276.558 406.964 274.654 402.846 273.583 397.702L271.679 388.484 178.867 388.484C162.857 388.484 149.565 386.492 139.142 382.906 128.702 379.284 121.202 374.228 115.862 367.852 108.902 359.546 106.838 350.532 106.573 342.615L106.263 332.538 96.239 331.494C72.72 328.914 55.354 318.97 42.86 302.18 30.436 285.365 23.069 260.88 23.069 229.382 23.015 204.96 34.943 180.908 52.512 162.507 69.975 144.053 92.972 131.833 111.931 130.044L116.279 129.592 119.245 126.386C120.573 124.934 121.627 123.535 122.539 122.384 128.525 114.91 134.653 106.578 153.541 98.245 172.386 90.089 204.193 83.023 258.715 83.032 307.791 82.996 360.993 100.264 402.647 131.249 444.373 162.295 474.427 206.402 479.741 260.827L479.944 262.925 480.866 264.812C485.71 274.588 488.96 288.42 488.932 303.226 488.932 319.776 484.992 337.451 475.862 352.849Z" fill="#F2F2F2"/><path d="M357.042 146.417 381.101 146.417C386.273 146.417 390.479 142.175 390.479 136.844 390.479 131.629 386.273 127.414 381.101 127.414L357.042 127.414C351.711 127.414 347.487 131.63 347.487 136.844 347.488 142.175 351.711 146.417 357.042 146.417Z" fill="#F2F2F2"/><path d="M244.21 237.307C244.21 242.594 248.46 246.871 253.711 246.871 258.873 246.871 263.186 242.595 263.186 237.307L263.186 185.487C263.186 183.088 263.895 182.529 264.072 182.308 267.092 179.342 278.346 179.342 286.236 179.342L286.537 179.448 348.763 179.448C349.967 179.448 351.243 179.342 352.669 179.342 357.681 179.121 363.871 178.908 366.465 181.414 368.112 183.025 369.069 186.604 369.069 191.402L369.069 223.211 369.069 224.627C368.865 231.171 368.829 242.187 376.197 249.669 379.066 252.627 384.397 256.133 393.093 256.133L441.983 256.133C447.119 256.133 451.335 251.9 451.335 246.578 451.335 241.38 447.119 237.059 441.983 237.059L393.093 237.059 389.675 236.253C387.939 234.456 388.054 227.921 388.054 224.786L388.054 191.401C388.054 181.094 385.168 173.124 379.66 167.802 371.176 159.664 359.638 160.001 352.031 160.319 350.773 160.319 349.729 160.364 348.763 160.364L317.399 160.364C317.771 157.742 317.771 155.104 317.673 152.731L317.673 125.129C317.673 119.94 313.405 115.653 308.225 115.653 302.939 115.653 298.795 119.939 298.795 125.129L298.795 152.881C298.795 155.103 298.795 158.619 298.325 159.531 298.325 159.531 297.024 160.363 292.011 160.363 290.569 160.363 289.019 160.363 287.327 160.363 274.407 160.203 259.549 160.159 250.712 168.837 247.825 171.759 244.212 177.045 244.212 185.485L244.212 237.307Z" fill="#F2F2F2"/><path d="M213.677 159.709C218.981 159.709 223.232 155.361 223.232 150.181L223.232 136.587 239.162 136.587C244.316 136.587 248.575 132.319 248.575 127.033 248.575 121.871 244.316 117.54 239.162 117.54L223.232 117.54 223.232 107.073C223.232 101.84 218.981 97.545 213.677 97.545 208.523 97.545 204.264 101.839 204.264 107.073L204.264 150.181C204.264 155.361 208.523 159.709 213.677 159.709Z" fill="#F2F2F2"/><path d="M110.841 173.682 150.309 173.682C156.747 173.453 162.874 173.453 165.761 176.489 168.32 178.987 169.728 184.6 169.728 192.659L169.728 229.71C169.728 234.952 173.961 239.256 179.309 239.256 184.463 239.256 188.767 234.953 188.767 229.71L188.767 221.828 203.653 221.828C208.904 221.828 213.093 217.551 213.093 212.318 213.093 207.067 208.905 202.719 203.653 202.719L188.767 202.719 188.767 192.659C188.767 178.987 185.632 169.308 179.141 162.923 170.72 154.475 159.341 154.555 150.264 154.635L110.841 154.635C105.457 154.635 101.33 158.947 101.33 164.11 101.33 169.387 105.457 173.682 110.841 173.682Z" fill="#F2F2F2"/><path d="M135.892 229.099C135.892 223.848 131.527 219.544 126.409 219.544L59.791 219.544C54.531 219.544 50.236 223.848 50.236 229.099 50.236 234.332 54.531 238.627 59.791 238.627L83.939 238.627 83.939 255.966C83.939 261.252 88.127 265.485 93.325 265.485 98.727 265.485 102.915 261.252 102.915 255.966L102.915 238.627 126.409 238.627C131.527 238.627 135.892 234.331 135.892 229.099Z" fill="#F2F2F2"/><path d="M194.576 291.412C196.241 291.412 197.818 291.412 199.225 291.412L275.929 291.412C293.427 291.412 306.701 286.772 315.529 277.528 329.095 263.165 328.148 241.894 327.448 227.841 327.324 225.158 327.2 222.635 327.2 220.518 327.2 215.222 322.95 211.008 317.592 211.008 312.412 211.008 308.224 215.223 308.224 220.518 308.224 222.926 308.348 225.689 308.472 228.629 309.056 240.885 309.712 255.966 301.618 264.502 296.677 269.762 287.936 272.392 275.929 272.392L199.225 272.392C197.888 272.392 196.525 272.392 194.877 272.392 179.744 272.162 154.293 271.754 138.124 287.711 129.056 296.655 124.443 309.256 124.443 325.107 124.443 330.26 128.613 334.627 133.927 334.627 139.107 334.627 143.437 330.261 143.437 325.107 143.437 314.339 146.031 306.528 151.486 301.189 161.935 290.934 181.612 291.235 194.576 291.412Z" fill="#F2F2F2"/><path d="M323.96 332.616C323.96 327.454 319.789 323.114 314.485 323.114L194.107 323.114C188.917 323.114 184.569 327.454 184.569 332.616 184.569 337.884 188.917 342.135 194.107 342.135L230.917 342.135 230.917 361.12C230.917 366.443 235.142 370.622 240.375 370.622 245.626 370.622 249.868 366.443 249.868 361.12L249.868 342.135 314.485 342.135C319.788 342.135 323.96 337.884 323.96 332.616Z" fill="#F2F2F2"/><path d="M377.887 370.065 373.416 370.065 373.416 352.372C373.416 346.988 369.236 342.844 363.941 342.844 358.681 342.844 354.439 346.989 354.439 352.372L354.439 370.065 321.498 370.065C316.256 370.065 311.996 374.306 311.996 379.593 311.996 384.817 316.256 389.041 321.498 389.041L377.888 389.041C383.096 389.041 387.372 384.817 387.372 379.593 387.371 374.305 383.095 370.065 377.887 370.065Z" fill="#F2F2F2"/><path d="M421.579 323.114 421.579 307.591 424.998 307.591C430.355 307.591 434.597 303.421 434.597 298.161 434.597 292.91 430.355 288.606 424.998 288.606L358.539 288.606C353.314 288.606 349.028 292.91 349.028 298.161 349.028 303.421 353.314 307.591 358.539 307.591L402.522 307.591 402.522 323.114C402.522 328.472 406.835 332.616 412.078 332.616 417.311 332.616 421.579 328.472 421.579 323.114Z" fill="#F2F2F2"/><path d="M451.333 347.909 427.291 347.909C421.987 347.909 417.745 352.089 417.745 357.376 417.745 362.662 421.986 366.806 427.291 366.806L451.333 366.806C456.663 366.806 460.949 362.662 460.949 357.376 460.95 352.089 456.663 347.909 451.333 347.909Z" fill="#F2F2F2"/></g></svg>