<?xml version="1.0" encoding="UTF-8"?>
<svg version="1.1" xmlns="http://www.w3.org/2000/svg" width="480" height="480">
<path d="M0 0 C0 3.98827771 -1.89930112 5.9888258 -4.1875 9.0625 C-4.63311279 9.67464355 -5.07872559 10.28678711 -5.5378418 10.91748047 C-7.01844704 12.95004235 -8.50843816 14.97546727 -10 17 C-44.49195898 63.9042524 -69.49284921 108.61272665 -61.05859375 168.41796875 C-59.8108807 176.55864199 -58.15679997 184.62036527 -56.5345459 192.69256592 C-54.24933511 204.10987633 -52.60781935 215.37249486 -52 227 C-51.92910156 228.22074219 -51.85820312 229.44148437 -51.78515625 230.69921875 C-50.64829152 271.30802692 -64.4890076 310.94105209 -89 343 C-89.68191406 343.90621094 -90.36382812 344.81242187 -91.06640625 345.74609375 C-120.21553697 382.97069522 -163.422985 406.42020885 -210.08984375 412.5859375 C-216.97184705 413.29281862 -223.90099442 413.24427357 -230.8125 413.25 C-231.91189911 413.25101212 -231.91189911 413.25101212 -233.0335083 413.25204468 C-244.9074739 413.23472342 -256.38295654 412.5943894 -268 410 C-268.7950293 409.82307617 -269.59005859 409.64615234 -270.40917969 409.46386719 C-291.13123379 404.69705379 -310.91188391 396.78767516 -329.0625 385.6875 C-329.75988281 385.26694336 -330.45726562 384.84638672 -331.17578125 384.41308594 C-333.09765625 383.19921875 -333.09765625 383.19921875 -336 381 C-336 380.01 -336 379.02 -336 378 C-331.14792382 375.70664945 -326.29561719 373.41378739 -321.44311523 371.12133789 C-319.7995003 370.34477268 -318.15594361 369.56808419 -316.51245117 368.79125977 C-315.32582886 368.23039673 -315.32582886 368.23039673 -314.11523438 367.65820312 C-313.32597565 367.28490875 -312.53671692 366.91161438 -311.72354126 366.52700806 C-310.13312909 365.77662769 -308.54146826 365.0288882 -306.94857788 364.28378296 C-303.18720879 362.52232183 -299.44936917 360.73380978 -295.75048828 358.84423828 C-294.75112999 358.34555992 -294.75112999 358.34555992 -293.73158264 357.83680725 C-291.94669871 356.94407376 -290.17129721 356.03245085 -288.39672852 355.11938477 C-281.78072512 352.93909471 -275.74350215 355.25818059 -269.3125 357.375 C-235.83720927 367.71625987 -201.08717996 363.64613153 -170 348 C-166.16008762 345.87952619 -162.56966325 343.5468075 -159 341 C-157.46279297 339.90751953 -157.46279297 339.90751953 -155.89453125 338.79296875 C-127.88733058 318.34059143 -109.10321157 288.16143017 -103.65625 253.80078125 C-100.60537343 230.33281541 -101.63056051 199.66186102 -115 179 C-119.29193364 175.9479583 -122.80424688 175.37292635 -128 176 C-133.94561203 178.31143305 -138.85645634 181.93910808 -143.8125 185.875 C-145.31002974 187.04186535 -146.80877264 188.20717507 -148.30859375 189.37109375 C-149.07929199 189.97034668 -149.84999023 190.56959961 -150.64404297 191.18701172 C-154.5110227 194.16278286 -158.44071218 197.051625 -162.375 199.9375 C-163.16559814 200.51806152 -163.95619629 201.09862305 -164.77075195 201.69677734 C-166.37776343 202.87626221 -167.98510448 204.05529817 -169.59277344 205.23388672 C-173.56665138 208.14940731 -177.53296477 211.07517969 -181.5 214 C-183.08329651 215.16671664 -184.66662986 216.33338329 -186.25 217.5 C-187.03375 218.0775 -187.8175 218.655 -188.625 219.25 C-210 235 -231.375 250.75 -252.75 266.5 C-253.5347168 267.0782251 -254.31943359 267.6564502 -255.12792969 268.25219727 C-256.70144825 269.41160642 -258.27501546 270.57094954 -259.84863281 271.73022461 C-263.95754639 274.75737424 -268.06545216 277.78587851 -272.171875 280.81640625 C-273.44708008 281.75709961 -273.44708008 281.75709961 -274.74804688 282.71679688 C-276.36424847 283.90907674 -277.98015493 285.10175681 -279.59570312 286.29492188 C-284.03621835 289.56994754 -288.50169341 292.80477429 -293 296 C-293 293 -293 293 -291.83465332 291.4632085 C-291.28253726 290.91277368 -290.73042121 290.36233885 -290.16157436 289.79522419 C-289.52842987 289.15672324 -288.89528537 288.5182223 -288.24295467 287.86037284 C-287.53568597 287.16252479 -286.82841727 286.46467673 -286.09971619 285.74568176 C-284.9861895 284.62936852 -284.9861895 284.62936852 -283.85016733 283.49050349 C-281.34460567 280.98232869 -278.82843762 278.48506624 -276.31225586 275.98754883 C-274.52003021 274.19780492 -272.72847049 272.40739396 -270.93753052 270.61636353 C-267.07043468 266.75197985 -263.19880986 262.89222381 -259.32310295 259.03647804 C-253.71131814 253.45348984 -248.10830167 247.86176872 -242.50749023 242.26777466 C-233.41013813 233.18187808 -224.30647266 224.10233529 -215.19848633 215.02709961 C-206.36817949 206.2285043 -197.53955401 197.4282304 -188.71411133 188.62475586 C-188.17144896 188.08344706 -187.62878659 187.54213827 -187.06967991 186.98442618 C-181.1395967 181.06899771 -175.21022074 175.15286106 -169.28169346 169.23587322 C-168.75981984 168.71501798 -168.23794622 168.19416275 -167.70025824 167.65752402 C-165.61322937 165.57454804 -163.52620869 163.49156386 -161.43927867 161.40848883 C-155.3386182 155.31913119 -149.2357848 149.23197106 -143.12894959 143.14880558 C-138.83851554 138.87487892 -134.55046092 134.59857342 -130.26321793 130.32144547 C-128.50776211 128.57104645 -126.75142732 126.82152844 -124.99413872 125.07296944 C-122.59014485 122.6807229 -120.1893064 120.28535158 -117.78916931 117.88923645 C-117.09751566 117.202542 -116.40586202 116.51584756 -115.69324917 115.80834419 C-111.78838028 111.90263035 -108.07214296 107.88758552 -104.47153425 103.69916701 C-102.70160402 101.65544492 -100.84605 99.71911616 -98.93579102 97.80639648 C-98.22137344 97.08882675 -97.50695587 96.37125702 -96.77088928 95.63194275 C-96.02278488 94.88586258 -95.27468048 94.13978241 -94.50390625 93.37109375 C-93.71153061 92.57776138 -92.91915497 91.78442902 -92.10276794 90.96705627 C-90.43749717 89.30110919 -88.77097971 87.63640744 -87.10327148 85.97290039 C-84.56965378 83.44463866 -82.04141833 80.91108339 -79.51367188 78.37695312 C-77.88573717 76.7496793 -76.25749225 75.12271575 -74.62890625 73.49609375 C-73.509786 72.37393715 -73.509786 72.37393715 -72.36805725 71.22911072 C-69.0984593 67.97387554 -65.8145131 64.79787502 -62.30249023 61.8046875 C-56.06070386 56.41858326 -50.34474983 50.4673521 -44.53125 44.62890625 C-43.24252928 43.33831715 -41.95358515 42.0479511 -40.66442871 40.75779724 C-37.29542172 37.38499816 -33.92943045 34.00920538 -30.56408691 30.63275146 C-27.12008377 27.17846255 -23.67319751 23.72705315 -20.2265625 20.27539062 C-13.48157161 13.51972087 -6.73976742 6.76088066 0 0 Z " fill="#000000" transform="translate(479,10)"/>
<path d="M0 0 C36.82399272 -0.7697032 71.91273956 9.28106963 103.2109375 28.49609375 C103.9126709 28.92519043 104.6144043 29.35428711 105.33740234 29.79638672 C106.99992881 30.84673446 108.61157212 31.97686692 110.2109375 33.12109375 C110.2109375 33.78109375 110.2109375 34.44109375 110.2109375 35.12109375 C104.62950242 37.71981239 99.04676726 40.31571135 93.46289062 42.90917969 C91.56964077 43.78896891 89.67672766 44.6694832 87.78417969 45.55078125 C83.25436121 47.65990308 78.72062492 49.75916999 74.17553711 51.83520508 C71.1135309 53.2340183 68.07771863 54.66951509 65.06079102 56.1628418 C55.52618423 60.77378215 55.52618423 60.77378215 50.50390625 59.5 C49.11707068 58.93782277 47.74771532 58.33074559 46.3984375 57.68359375 C44.85107303 57.06944548 43.30018096 56.46411952 41.74609375 55.8671875 C40.98312988 55.56409668 40.22016602 55.26100586 39.43408203 54.94873047 C19.97273457 47.70362088 -4.97350711 49.16218576 -24.7890625 54.12109375 C-25.46372559 54.28206543 -26.13838867 54.44303711 -26.83349609 54.60888672 C-60.77652645 62.85502315 -88.83280385 84.55081631 -107.23828125 113.97265625 C-123.77529723 141.44555247 -130.86049434 176.61415484 -123.8203125 208.12109375 C-118.12635954 230.9420957 -107.92479063 250.05880849 -91.44140625 266.96484375 C-89.7890625 269.12109375 -89.7890625 269.12109375 -89.7890625 273.12109375 C-91.6953125 275.234375 -91.6953125 275.234375 -94.2890625 277.43359375 C-95.206875 278.22378906 -96.1246875 279.01398438 -97.0703125 279.828125 C-97.9675 280.58480469 -98.8646875 281.34148437 -99.7890625 282.12109375 C-101.12486296 283.28493482 -102.45843531 284.45134157 -103.7890625 285.62109375 C-104.43101562 286.18054688 -105.07296875 286.74 -105.734375 287.31640625 C-109.78875253 290.87747548 -113.7841918 294.50457415 -117.7890625 298.12109375 C-123.07165308 302.89143312 -128.36840385 307.64003782 -133.734375 312.31640625 C-137.78875253 315.87747548 -141.7841918 319.50457415 -145.7890625 323.12109375 C-151.07165308 327.89143312 -156.36840385 332.64003782 -161.734375 337.31640625 C-165.78875253 340.87747548 -169.7841918 344.50457415 -173.7890625 348.12109375 C-179.07165308 352.89143312 -184.36840385 357.64003782 -189.734375 362.31640625 C-193.78875253 365.87747548 -197.7841918 369.50457415 -201.7890625 373.12109375 C-207.07165308 377.89143312 -212.36840385 382.64003782 -217.734375 387.31640625 C-220.060056 389.35911466 -222.36363328 391.42499081 -224.6640625 393.49609375 C-225.49679688 394.24503906 -226.32953125 394.99398438 -227.1875 395.765625 C-228.99252157 397.39990129 -230.78882224 399.04384119 -232.578125 400.6953125 C-233.47273437 401.51644531 -234.36734375 402.33757812 -235.2890625 403.18359375 C-236.10375 403.93769531 -236.9184375 404.69179688 -237.7578125 405.46875 C-239.7890625 407.12109375 -239.7890625 407.12109375 -241.7890625 407.12109375 C-237.62691865 397.96019423 -229.49661368 390.46963958 -222.7890625 383.12109375 C-221.26791131 381.41304344 -219.74707587 379.70471187 -218.2265625 377.99609375 C-214.82403811 374.20893617 -211.29160247 370.60133865 -207.66796875 367.02734375 C-205.28467028 364.6093611 -203.08642158 362.0623124 -200.87890625 359.484375 C-199.25644607 357.64963031 -197.61062914 355.8698419 -195.91796875 354.1015625 C-175.20785286 332.4176366 -156.33653362 307.35174681 -156.42041016 276.13354492 C-156.73581584 263.67758483 -160.96273924 252.43387573 -165.13964844 240.83569336 C-167.25099618 234.89085174 -169.05256425 228.92402698 -170.6015625 222.80859375 C-170.79613037 222.05803711 -170.99069824 221.30748047 -171.19116211 220.53417969 C-174.34550507 207.59485113 -175.16964121 194.68394961 -175.1015625 181.43359375 C-175.09973969 180.69196991 -175.09791687 179.95034607 -175.09603882 179.18624878 C-175.04697679 167.28622985 -174.3873777 155.76236422 -171.7890625 144.12109375 C-171.53962891 142.97060547 -171.53962891 142.97060547 -171.28515625 141.796875 C-165.93828774 117.83498277 -156.20989546 95.02926572 -141.7890625 75.12109375 C-140.644375 73.52974609 -140.644375 73.52974609 -139.4765625 71.90625 C-123.90928991 50.91171539 -104.32088447 35.02504515 -81.7890625 22.12109375 C-80.83338379 21.56808594 -80.83338379 21.56808594 -79.85839844 21.00390625 C-60.29755443 9.88004841 -37.97881448 3.94686018 -15.7890625 1.12109375 C-14.05849609 0.89679687 -14.05849609 0.89679687 -12.29296875 0.66796875 C-8.19526449 0.24541037 -4.11618247 0.1315481 0 0 Z " fill="#000000" transform="translate(241.7890625,62.87890625)"/>
</svg>
