<svg width="514" height="478" xmlns="http://www.w3.org/2000/svg" xmlns:xlink="http://www.w3.org/1999/xlink" overflow="hidden"><defs><clipPath id="clip0"><rect x="384" y="429" width="512" height="151"/></clipPath><clipPath id="clip1"><rect x="384" y="429" width="512" height="151"/></clipPath><clipPath id="clip2"><rect x="384" y="105" width="512" height="511"/></clipPath><clipPath id="clip3"><rect x="384" y="104" width="512" height="325"/></clipPath><clipPath id="clip4"><rect x="384" y="104" width="512" height="325"/></clipPath><clipPath id="clip5"><rect x="384" y="104" width="512" height="513"/></clipPath></defs><g transform="translate(-383 -103)"><g clip-path="url(#clip0)"><g clip-path="url(#clip1)"><g clip-path="url(#clip2)"><path d="M0 0C0.582093 1.81182 0.582093 1.81182 1.17595 3.66024 5.11115 15.5727 9.87 26.6999 15.8373 37.736 16.7966 39.585 17.628 41.4994 18.4336 43.4205 20.1928 47.1626 21.7393 49.9532 25.7175 51.565 30.6602 52.9876 35.7285 53.654 40.8126 54.3671 66.1726 58.182 92.2944 64.8413 114.635 77.7527 115.622 78.309 115.622 78.309 116.629 78.8765 126.189 84.3148 134.325 90.5229 142.121 98.2709 143.465 99.605 144.831 100.916 146.199 102.226 150.181 106.085 153.828 109.752 156.502 114.635 156.502 115.622 156.502 116.609 156.502 117.626 155.724 117.735 154.945 117.844 154.144 117.957 125.146 122.094 96.8155 128.161 68.5943 136.005 67.4043 136.335 67.4043 136.335 66.1903 136.673 63.9644 137.295 61.7406 137.923 59.5177 138.555 58.519 138.836 58.519 138.836 57.5001 139.123 54.4111 139.852 54.4111 139.852 51.8351 141.55 51.9223 143.262 52.076 144.972 52.2557 146.678 56.7379 195.643 44.3909 241.514 24.9207 286.09-12.666 287.486-62.033 277.941-91.4396 252.868-97.9118 246.659-102.661 240.37-102.984 231.14-102.83 221.695-97.9598 214.096-91.7083 207.34-88.4735 204.242-85.1504 201.272-81.74 198.369-81.0821 198.698-80.4242 199.027-79.7463 199.366-80.3477 199.921-80.9491 200.476-81.5686 201.048-88.5402 207.704-91.7062 213.268-94.6988 222.293-93.567 221.991-92.4352 221.689-91.269 221.378-87.0734 220.259-82.8765 219.146-78.6791 218.034-76.862 217.552-75.0452 217.069-73.2288 216.583-70.6192 215.887-68.0085 215.195-65.3975 214.506-64.5843 214.287-63.7711 214.069-62.9334 213.845-59.8233 213.025-57.0596 212.325-53.8288 212.325-54.425 211.359-55.0213 210.392-55.6355 209.396-59.0794 202.643-59.6946 194.817-60.8066 187.404-64.754 189.707-68.7015 192.009-72.7685 194.382-72.7685 191.391-72.7685 191.391-70.8978 189.212-70.0361 188.38-69.1745 187.546-68.2867 186.687-67.8212 186.231-67.3557 185.774-66.8762 185.304-65.379 183.837-63.8726 182.38-62.3641 180.924-55.002 173.803-48.2065 166.573-41.8668 158.496-41.0267 157.464-40.1858 156.433-39.3437 155.404-24.4122 136.266-17.3079 115.98-18.9398 91.7083-21.278 77.3061-29.8221 65.0016-39.8732 54.8256-40.7888 53.8195-40.7888 53.8195-41.7228 52.793-46.8262 47.3303-52.714 43.2049-58.8362 38.9776-61.8034 36.8827-61.8034 36.8827-63.7971 34.889-49.3507 22.9325-33.2453 14.4508-16.4477 6.29248-15.4783 5.81959-15.4783 5.81959-14.4893 5.33715-12.6431 4.43981-10.7928 3.55175-8.94031 2.6673-7.86543 2.15242-6.79055 1.63755-5.68309 1.10708-2.99049 0-2.99049 0 0 0ZM-11.8996 11.5881C-12.5647 11.8537-13.2297 12.1191-13.9149 12.3927-19.8249 14.8065-25.3939 17.7044-30.9017 20.9334-27.2674 23.3563-23.8485 23.8623-19.6251 24.5469-18.8318 24.6784-18.0384 24.8099-17.2211 24.9454-10.1057 26.045-3.2127 26.2301 3.98732 25.9176 3.56713 24.9449 3.14694 23.9721 2.71403 22.9699 2.16233 21.6888 1.6107 20.4078 1.05913 19.1267 0.643763 18.1658 0.643763 18.1658 0.220003 17.1855-0.948863 14.4676-2.05437 11.7798-2.99049 8.97146-6.18425 8.97146-8.97148 10.4146-11.8996 11.5881ZM-34.889 25.9176C-30.6242 31.1419-26.14 35.5922-20.9334 39.8732-19.9671 40.7366-19.0009 41.6002-18.0052 42.4898-14.6611 43.9913-14.1202 43.9837-10.7782 42.9883-5.28369 40.7849-0.134373 37.8453 4.98415 34.889 2.09308 33.2962-0.450902 32.486-3.69917 31.9336-4.60556 31.7752-5.51195 31.6168-6.44581 31.4536-7.40263 31.2921-8.35945 31.1305-9.34527 30.964-11.3185 30.6192-13.2913 30.2726-15.2639 29.9243-16.2277 29.7543-17.1914 29.5842-18.1844 29.4089-23.7831 28.3889-29.3376 27.1681-34.889 25.9176ZM-45.6789 29.6557C-46.5983 30.7659-46.5983 30.7659-47.5363 31.8985-48.4672 33.0088-48.4672 33.0088-49.417 34.1414-50.1206 35.0049-50.1206 35.0049-50.8383 35.8858-50.2343 36.1801-49.6304 36.4744-49.0082 36.7775-46.851 37.8795-46.851 37.8795-44.2343 39.5617-39.5833 41.3704-35.7433 40.6673-30.9017 39.8732-31.2872 39.4273-31.6727 38.9814-32.0699 38.522-32.589 37.9194-33.1081 37.3167-33.643 36.6958-34.1891 36.0636-34.7352 35.4314-35.2979 34.78-36.6088 33.221-37.8466 31.6009-39.0632 29.9672-39.6594 29.2887-40.2557 28.6103-40.87 27.9112-43.9208 27.5662-43.9208 27.5662-45.6789 29.6557ZM3.11509 40.7454C1.5153 41.5434 1.5153 41.5434-0.116816 42.3575-3.07156 43.8383-3.07156 43.8383-5.98098 45.8541-0.966415 49.1972 3.90165 48.9801 9.78139 48.9069 10.4721 48.9024 11.1627 48.898 11.8743 48.8933 13.565 48.8816 15.2556 48.8638 16.9461 48.8446 15.6335 46.085 14.1764 43.6036 12.3981 41.1192 11.965 40.5075 11.532 39.8959 11.0858 39.2657 10.717 38.8083 10.3483 38.3508 9.96829 37.8795 7.68283 37.8795 5.07867 39.7612 3.11509 40.7454ZM-42.8637 44.8573C-42.2057 45.5152-41.5478 46.1731-40.87 46.851-35.8858 51.8351-30.9017 56.8193-25.9176 61.8034-27.8591 53.825-27.8591 53.825-31.8985 46.851-35.6356 45.1449-38.7773 44.617-42.8637 44.8573ZM-23.9239 49.8415C-21.9502 57.0784-19.9765 64.3154-17.9429 71.7717-15.6402 69.798-13.3376 67.8243-10.9651 65.7907-9.67222 64.8576-8.35988 63.9493-7.01285 63.0962-6.36073 62.6747-5.7086 62.2532-5.03671 61.819-3.68764 60.9611-2.33773 60.1045-0.987094 59.249 0.703123 58.1549 2.3499 56.9941 3.98732 55.8224 3.98732 55.1645 3.98732 54.5066 3.98732 53.8288-5.43484 51.3024-14.2233 50.2947-23.9239 49.8415ZM14.9524 56.8193C15.5584 65.5255 16.6285 74.1103 17.9429 82.7368 21.7892 81.3793 24.6304 79.6192 27.8489 77.1297 32.7557 73.4645 37.8069 70.401 43.1789 67.4879 46.1566 65.8543 48.5113 64.264 50.8383 61.8034 38.8249 58.9682 27.2993 57.1355 14.9524 56.8193ZM-7.16471 69.5911C-10.1128 72.2224-10.1128 72.2224-10.9651 75.759-7.54097 76.9293-4.1135 78.0895-0.68532 79.2479 0.288049 79.5808 1.26142 79.9135 2.26428 80.2564 3.1991 80.5712 4.13392 80.8861 5.09707 81.2105 5.95841 81.5027 6.81974 81.7951 7.70717 82.0963 10.0561 82.8727 10.0561 82.8727 12.9588 82.7368 12.3009 74.513 11.643 66.2891 10.9651 57.8161 4.47234 57.8161-2.80589 65.3153-7.16471 69.5911ZM56.8193 64.7939C37.988 73.3769 37.988 73.3769 24.9207 87.721 26.0946 88.1739 26.0946 88.1739 27.2921 88.6361 33.4682 91.0989 38.5806 93.6719 43.8605 97.6893 44.5184 97.6893 45.1763 97.6893 45.8541 97.6893 49.999 90.1521 53.396 82.7726 55.8224 74.513 56.0411 73.7767 56.2598 73.0406 56.4851 72.2821 57.7512 68.4882 57.7512 68.4882 56.8193 64.7939ZM61.8034 65.7907C61.585 66.829 61.3665 67.8672 61.1414 68.9369 58.8883 79.2494 55.7853 88.9029 51.8351 98.6861 56.135 97.3763 60.1095 95.6822 64.168 93.7815 76.7006 87.9151 89.6037 83.2658 102.673 78.7495 97.8165 75.5116 92.2378 74.1041 86.7241 72.2701 85.5458 71.8679 84.3675 71.4657 83.1535 71.0513 76.0889 68.6913 69.1771 66.8667 61.8034 65.7907ZM-13.9556 83.7337C-13.6267 91.6285-13.2977 99.5234-12.9588 107.658-7.40379 102.903-7.40379 102.903-1.86905 98.1254-1.24969 97.5896-0.630339 97.0537 0.00778773 96.5016 2.40879 94.3219 4.68477 92.0076 6.9778 89.7146 0.069778 87.7409-6.83825 85.7672-13.9556 83.7337ZM98.0475 86.105C97.2906 86.354 96.5338 86.6029 95.7541 86.8594 94.1444 87.3909 92.5357 87.9248 90.9276 88.461 88.5223 89.2607 86.1128 90.0459 83.7026 90.8302 73.7167 94.1238 64.2391 97.9886 54.8256 102.673 57.1963 105.053 59.5618 107.425 62.0136 109.721 67.6916 115.112 71.8302 120.836 75.759 127.594 79.5083 124.087 82.5167 120.149 85.6027 116.069 86.437 114.97 86.437 114.97 87.288 113.85 91.6806 108.051 96.0356 102.225 100.369 96.3809 100.966 95.5778 101.564 94.7745 102.18 93.947 102.737 93.1916 103.294 92.4361 103.869 91.6576 104.361 90.993 104.852 90.3282 105.359 89.6433 106.65 87.7366 107.674 85.8151 108.654 83.7337 104.839 83.7337 101.629 84.9168 98.0475 86.105ZM112.642 85.7273C111.03 87.8557 109.621 89.9455 108.218 92.2067 100.906 103.578 92.9781 114.708 83.7337 124.604 87.4208 125.833 89.0751 125.235 92.8297 124.312 94.0777 124.014 95.3258 123.715 96.6116 123.409 97.2752 123.248 97.9388 123.086 98.6225 122.921 111.114 119.899 123.515 117.514 136.274 115.874 137.321 115.737 138.368 115.599 139.447 115.457 140.363 115.345 141.278 115.232 142.221 115.117 144.798 114.733 144.798 114.733 147.531 112.642 139.838 103.767 132.079 96.1371 122.236 89.7146 121.328 89.1189 121.328 89.1189 120.401 88.5112 116.811 86.2307 116.811 86.2307 112.642 85.7273ZM16.9461 94.6988C15.0723 98.6326 13.2088 102.571 11.3548 106.514 10.7222 107.856 10.0869 109.196 9.4487 110.534 8.53328 112.456 7.62804 114.382 6.7247 116.31 5.90252 118.049 5.90252 118.049 5.06372 119.822 4.70851 120.742 4.35329 121.662 3.98732 122.61 4.31627 123.268 4.64522 123.926 4.98415 124.604 15.0349 117.737 25.0124 110.785 34.889 103.67 34.1784 100.433 34.1784 100.433 31.1003 99.0793 29.9451 98.559 28.7899 98.0386 27.5997 97.5023 26.4523 96.9742 25.3047 96.4461 24.1225 95.9019 20.8797 94.4642 20.8797 94.4642 16.9461 94.6988ZM8.97146 95.6956C2.06344 102.604-4.84459 109.512-11.962 116.629-10.7025 119.148-9.60942 119.471-7.10241 120.678-6.40595 121.019-5.7095 121.36-4.99193 121.711-2.85823 122.71-2.85823 122.71 0 123.607 1.69745 119.522 3.37388 115.429 5.04645 111.334 5.53024 110.17 6.01403 109.006 6.51248 107.807 6.96544 106.693 7.41839 105.578 7.88508 104.43 8.30791 103.401 8.73075 102.372 9.1664 101.313 10.2664 98.6179 10.2664 98.6179 8.97146 95.6956ZM45.8541 109.651C45.1899 110.508 44.5255 111.366 43.841 112.248 38.6206 118.954 33.3058 125.548 27.7822 132.005 24.0261 136.409 20.4393 140.923 16.9461 145.537 19.7563 146.943 20.9698 146.069 23.9244 145.091 24.962 144.753 25.9996 144.413 27.0687 144.063 28.1922 143.687 29.3157 143.311 30.4734 142.924 31.6211 142.547 32.7688 142.169 33.9513 141.78 37.6305 140.568 41.3062 139.346 44.9819 138.123 47.4699 137.301 49.9581 136.481 52.4465 135.66 58.5585 133.644 64.6677 131.619 70.7749 129.588 69.8248 128.471 68.8734 127.355 67.9216 126.239 67.392 125.618 66.8624 124.996 66.3167 124.356 60.465 117.646 53.9894 113.184 45.8541 109.651ZM34.889 110.648C32.4383 111.854 32.4383 111.854 29.7063 113.646 28.6648 114.301 27.6233 114.957 26.5503 115.632 25.4574 116.331 24.3646 117.03 23.2386 117.75 21.6282 118.764 21.6282 118.764 19.9852 119.799 14.5359 123.247 9.18275 126.764 3.98732 130.585 4.11999 131.182 4.25266 131.779 4.38936 132.394 5.58445 137.772 6.77954 143.15 7.97463 148.528 12.1492 144.569 15.6062 140.284 19.0644 135.693 19.6223 134.959 20.1802 134.223 20.755 133.466 26.214 126.253 31.5668 118.964 36.8827 111.645 36.2248 111.316 35.5669 110.987 34.889 110.648ZM-16.9461 125.6C-17.6406 127.383-18.3238 129.17-19.0021 130.958-19.3837 131.953-19.7653 132.947-20.1586 133.972-21.2415 136.518-21.2415 136.518-19.9366 138.559-16.3181 136.257-12.6996 133.954-8.97146 131.581-10.6148 127.471-10.6148 127.471-13.9556 125.6-14.9425 125.6-15.9293 125.6-16.9461 125.6ZM-1.99366 133.575C-2.36943 133.981-2.74521 134.388-3.13237 134.805-4.89002 136.702-6.64994 138.597-8.41075 140.491-9.04745 141.176-9.68416 141.861-10.3401 142.567-13.7998 146.274-17.3007 149.91-20.9334 153.45-24.7072 157.16-27.8847 161.131-30.9017 165.474-24.8192 163.577-19.0503 161.03-13.21 158.506-7.88588 156.231-2.53119 154.256 2.99049 152.515 3.34558 146.123 2.52258 140.508 0 134.572-0.657907 134.243-1.31581 133.914-1.99366 133.575ZM-25.9176 146.534C-27.2525 148.149-28.5803 149.77-29.9049 151.393-30.645 152.296-31.3852 153.198-32.1477 154.127-34.0889 156.279-34.0889 156.279-33.8922 158.496-29.9157 157.132-26.9126 155.503-23.9239 152.515-23.5065 149.854-23.5065 149.854-23.9239 147.531-24.5818 147.202-25.2397 146.873-25.9176 146.534ZM35.6366 150.023C34.0253 150.439 34.0253 150.439 32.3814 150.864 31.5641 151.079 30.7469 151.296 29.9049 151.518 31.7193 155.146 36.2412 156.193 39.7953 157.865 42.8119 159.465 45.2591 161.265 47.8478 163.48 48.0411 157.971 47.5966 153.755 45.8541 148.528 42.0665 148.528 39.2747 149.074 35.6366 150.023ZM18.9398 154.509C17.9403 158.693 16.9467 162.879 15.9585 167.067 15.6217 168.49 15.2833 169.914 14.9432 171.336 14.454 173.383 13.9707 175.433 13.4883 177.482 13.196 178.715 12.9037 179.947 12.6025 181.216 11.8315 184.521 11.8315 184.521 11.962 188.401 16.2983 187.072 20.1364 185.38 24.1264 183.229 25.838 182.308 25.838 182.308 27.5842 181.368 28.4621 180.891 28.4621 180.891 29.3578 180.404 31.1566 179.426 32.9602 178.457 34.7644 177.49 40.6862 174.498 40.6862 174.498 45.8541 170.458 37.9483 162.592 29.4954 157.966 18.9398 154.509ZM4.85564 160.459C3.82445 160.863 2.79326 161.268 1.73082 161.685 0.645661 162.112-0.4395 162.541-1.55755 162.982-2.64656 163.409-3.73558 163.838-4.8576 164.278-7.55859 165.34-10.259 166.403-12.9588 167.467-9.38196 173.983-5.76662 179.059 0.124604 183.728 0.990677 184.423 1.85675 185.118 2.74907 185.835 4.80093 187.595 4.80093 187.595 6.9778 187.404 9.53909 177.594 11.1489 168.648 10.9651 158.496 8.88259 158.496 6.75252 159.712 4.85564 160.459ZM-17.9429 171.455C-18.3798 172.122-18.8167 172.788-19.2668 173.475-23.9053 180.499-28.6902 187.399-33.5913 194.241-39.5459 201.322-39.5459 201.322-42.8637 209.334-35.7995 208.83-29.8507 207.212-23.2386 204.724-22.285 204.372-21.3313 204.02-20.3489 203.657-12.6119 200.74-5.26222 197.347 1.99366 193.385 1.99366 192.727 1.99366 192.069 1.99366 191.391 0.213358 189.861 0.213358 189.861-2.05596 188.276-8.40445 183.484-13.0122 177.637-17.9429 171.455ZM-27.9112 173.448C-31.6972 175.033-35.4743 176.637-39.2501 178.245-40.3269 178.696-41.4038 179.146-42.5132 179.611-43.5412 180.05-44.5691 180.491-45.6283 180.944-46.5783 181.346-47.5284 181.748-48.5073 182.162-51.121 183.334-51.121 183.334-52.8319 186.407-53.9393 193.54-52.2192 199.11-48.8446 205.347-47.8578 205.347-46.8709 205.347-45.8541 205.347-40.0484 199.184-35.6186 191.578-31.2755 184.352-30.6028 183.248-30.6028 183.248-29.9163 182.122-29.509 181.428-29.1018 180.733-28.6822 180.017-28.3164 179.399-27.9507 178.781-27.5739 178.144-26.6285 176.237-26.6285 176.237-27.9112 173.448ZM38.6817 179.928C37.9764 180.282 37.2712 180.635 36.5447 181 34.2879 182.135 32.0341 183.274 29.7803 184.413 28.2527 185.182 26.7251 185.951 25.1971 186.718 21.4479 188.604 17.7011 190.495 13.9556 192.388 15.8308 196.737 18.4902 198.051 22.6779 199.926 23.336 200.228 23.994 200.529 24.672 200.84 31.1567 203.682 37.8058 205.506 44.8573 206.344 47.0413 204.16 46.6058 199.474 46.9133 196.437 47.0024 195.578 47.0916 194.719 47.1834 193.833 47.7601 188.005 48.0399 182.298 47.8478 176.439 44.4746 176.439 41.6397 178.426 38.6817 179.928ZM-0.844968 198.563C-1.83215 199.028-2.81933 199.493-3.83643 199.972-4.89364 200.471-5.95086 200.97-7.04011 201.484-17.9389 206.562-29.086 211.64-40.87 214.318-38.5972 220.947-34.5656 224.813-29.0326 228.96-27.5253 230.106-27.5253 230.106-25.9876 231.276-22.9988 233.211-20.3607 234.299-16.9461 235.252-7.687 224.397 3.70526 210.929 5.98098 196.375 3.27771 196.375 1.59782 197.399-0.844968 198.563ZM9.96829 197.372C9.36885 198.947 9.36885 198.947 8.7573 200.553 3.6822 213.552-2.78388 224.967-10.9651 236.249-6.75551 235.61-3.34993 234.171 0.486733 232.347 1.10115 232.057 1.71557 231.767 2.34861 231.469 4.33012 230.533 6.30811 229.591 8.28614 228.648 10.9845 227.37 13.6846 226.097 16.3854 224.824 17.0431 224.514 17.7008 224.203 18.3785 223.884 24.6324 220.942 30.958 218.202 37.3382 215.548 39.9974 214.576 39.9974 214.576 40.87 212.325 40.1196 212.068 39.3692 211.813 38.596 211.55 29.0853 208.122 20.6681 203.452 11.962 198.369 11.304 198.04 10.6461 197.711 9.96829 197.372ZM-67.9284 220.05C-69.0795 220.315-69.0795 220.315-70.2537 220.586-72.6923 221.151-75.129 221.722-77.5658 222.293-79.2238 222.678-80.8819 223.061-82.5401 223.445-86.5943 224.384-90.647 225.33-94.6988 226.28-94.799 234.749-93.256 241.999-87.2849 248.335-84.6249 250.915-82.4985 252.047-78.7495 252.198-72.6778 248.257-68.2666 241.45-63.984 235.688-63.5296 235.077-63.0752 234.467-62.607 233.838-57.1573 226.668-57.1573 226.668-54.8256 218.306-59.3747 218.055-63.5342 219.01-67.9284 220.05ZM33.3977 221.872C32.5377 222.239 31.6777 222.606 30.7917 222.984 28.0241 224.164 25.2575 225.346 22.491 226.529 19.7565 227.698 17.0217 228.866 14.2864 230.032 12.5827 230.759 10.8794 231.487 9.17676 232.216 3.49251 234.642-2.22778 236.965-7.97463 239.239-7.97463 239.897-7.97463 240.555-7.97463 241.233 4.44351 248.329 18.951 250.089 32.8954 252.198 35.5683 246.12 37.6744 239.927 39.5617 233.569 39.7752 232.859 39.9888 232.15 40.2088 231.419 41.4795 227.054 42.3253 222.82 42.8637 218.306 39.8716 218.306 36.1848 220.678 33.3977 221.872ZM-48.8446 220.299C-49.1607 220.929-49.4768 221.558-49.8025 222.207-55.6885 233.491-63.0604 243.906-71.7717 253.195-68.1124 254.51-65.7398 253.855-62.0682 252.755-60.9468 252.422-59.8254 252.089-58.6701 251.746-57.4837 251.381-56.2972 251.017-55.0748 250.641-53.8697 250.277-52.6647 249.913-51.4231 249.538-42.4433 246.792-33.6254 243.755-24.9207 240.236-25.6081 239.69-26.2957 239.143-27.0039 238.581-30.1789 236.028-33.322 233.442-36.4466 230.828-37.2898 230.133-37.2898 230.133-38.1501 229.424-40.789 227.211-42.9682 225.153-45.1337 222.444-45.7004 221.737-46.2671 221.029-46.851 220.299-47.5089 220.299-48.1668 220.299-48.8446 220.299ZM-28.2889 245.267C-29.6048 245.701-30.9208 246.136-32.2371 246.57-33.2699 246.912-33.2699 246.912-34.3236 247.26-46.025 251.124-57.6763 254.773-69.778 257.182-63.7974 263.901-51.8331 269.711-42.8637 271.138-38.0795 270.869-36.1466 268.835-33.02 265.344-27.5011 259.024-21.5489 251.647-19.9366 243.226-22.9358 243.226-25.4476 244.319-28.2889 245.267ZM-13.9556 245.22C-14.246 245.686-14.5365 246.153-14.8356 246.633-24.9807 262.842-24.9807 262.842-31.5364 269.673-33.0084 270.926-33.0084 270.926-32.8954 272.134-25.5835 271.617-18.6848 270.331-11.5881 268.521-10.5593 268.261-9.53057 268.001-8.47062 267.733-1.43474 265.906 5.47136 263.809 12.3358 261.418 13.597 260.98 13.597 260.98 14.8839 260.532 19.2968 259.013 19.2968 259.013 22.9271 256.185 21.8921 255.931 21.8921 255.931 20.836 255.671 17.5432 254.855 14.2539 254.027 10.9651 253.195 9.71998 252.883 8.47484 252.571 7.19196 252.249-0.106189 250.37-7.04224 248.217-13.9556 245.22ZM18.196 262.684C17.4321 262.943 16.6682 263.201 15.8811 263.467 12.6191 264.57 9.36056 265.685 6.10193 266.798-3.16601 269.958-12.3571 272.996-21.9302 275.125-18.3592 277.505-15.0479 277.998-10.9028 278.676-10.1367 278.805-9.37048 278.934-8.5811 279.066 1.33539 280.701 10.8727 281.247 20.9334 281.106 24.2271 274.258 26.9479 267.519 28.908 260.172 25.0373 260.172 21.8115 261.438 18.196 262.684Z" fill="#F2F2F2" transform="matrix(1.00318 0 0 1 666 151)"/><path d="M0 0C5.07476 50.9659-6.58643 98.0004-26.9144 144.54-64.5011 145.936-113.868 136.391-143.274 111.318-149.747 105.11-154.497 98.8206-154.82 89.59-154.665 80.1455-149.795 72.5466-143.543 65.7907-140.309 62.6929-136.985 59.7219-133.575 56.8193-132.917 57.1482-132.259 57.4772-131.581 57.8161-132.183 58.3712-132.785 58.9264-133.404 59.4982-140.375 66.1549-143.541 71.7179-146.534 80.7432-144.836 80.2902-144.836 80.2902-143.104 79.8281-138.908 78.7097-134.711 77.5963-130.514 76.4842-128.697 76.002-126.88 75.5186-125.064 75.0338-122.454 74.3375-119.844 73.646-117.232 72.9554-116.42 72.7374-115.606 72.5193-114.769 72.2947-111.659 71.476-108.895 70.7749-105.664 70.7749-106.281 69.6441-106.898 68.5133-107.533 67.3483-111.341 59.6658-111.964 52.3461-111.645 43.8605-82.0738 26.2483-49.2678 14.1714-16.8112 2.98611-14.9846 2.35129-13.1643 1.69785-11.3531 1.02068-10.5736 0.736539-9.79405 0.452399-8.99093 0.159648-8.33021-0.0895564-7.66949-0.338761-6.98876-0.595518-4.43716-1.10633-2.49921-0.636266 0 0ZM-16.1985 8.47305C-17.8098 8.88938-17.8098 8.88938-19.4537 9.31412-20.271 9.53-21.0882 9.74587-21.9302 9.96829-20.1158 13.5972-15.5939 14.6433-12.0398 16.3153-9.02323 17.9155-6.57599 19.7155-3.98732 21.9302-3.79401 16.421-4.23857 12.2051-5.98098 6.9778-9.76861 6.9778-12.5604 7.52399-16.1985 8.47305ZM-32.8954 12.9588C-33.8948 17.1434-34.8884 21.3293-35.8766 25.5165-36.2134 26.9401-36.5518 28.3633-36.8919 29.7862-37.3811 31.8339-37.8645 33.8831-38.3468 35.9326-38.6391 37.1646-38.9315 38.3966-39.2326 39.6658-40.0037 42.9717-40.0037 42.9717-39.8732 46.851-35.5369 45.5217-31.6987 43.8305-27.7088 41.6799-25.9971 40.7585-25.9971 40.7585-24.251 39.8186-23.3731 39.3412-23.3731 39.3412-22.4773 38.8539-20.6785 37.8764-18.875 36.9079-17.0707 35.9404-11.1489 32.9484-11.1489 32.9484-5.98098 28.908-13.8868 21.0422-22.3397 16.4161-32.8954 12.9588ZM-46.9795 18.9087C-48.0107 19.3134-49.0419 19.7182-50.1043 20.1352-51.1895 20.5631-52.2746 20.9909-53.3927 21.4318-54.4817 21.8598-55.5707 22.2876-56.6927 22.7285-59.3937 23.79-62.0941 24.8531-64.7939 25.9176-61.2171 32.4325-57.6018 37.5093-51.7105 42.1783-50.8445 42.8735-49.9783 43.5687-49.0861 44.2849-47.0342 46.045-47.0342 46.045-44.8573 45.8541-42.2961 36.0439-40.6862 27.098-40.87 16.9461-42.9526 16.9461-45.0826 18.1623-46.9795 18.9087ZM-69.778 29.9049C-70.215 30.5718-70.6519 31.2386-71.1019 31.9257-75.7404 38.9494-80.5254 45.8491-85.4265 52.6915-91.381 59.7719-91.381 59.7719-94.6988 67.7844-87.6346 67.2803-81.6859 65.6624-75.0737 63.174-74.1201 62.822-73.1665 62.4699-72.184 62.1071-64.447 59.1909-57.0974 55.7974-49.8415 51.8351-49.8415 51.1772-49.8415 50.5193-49.8415 49.8415-51.6218 48.311-51.6218 48.311-53.8911 46.7264-60.2396 41.9351-64.8473 36.087-69.778 29.9049ZM-79.7463 31.8985C-83.5323 33.483-87.3094 35.0875-91.0853 36.6958-92.162 37.1461-93.2389 37.5965-94.3483 38.0605-95.3763 38.5006-96.4042 38.9407-97.4634 39.3942-98.4135 39.7962-99.3635 40.1981-100.343 40.6123-102.956 41.7836-102.956 41.7836-104.667 44.8573-105.775 51.9908-104.054 57.5602-100.68 63.7971-99.6929 63.7971-98.706 63.7971-97.6893 63.7971-91.8835 57.6352-87.4537 50.0276-83.1106 42.8014-82.4379 41.698-82.4379 41.698-81.7514 40.5723-81.3441 39.8778-80.9369 39.1832-80.5173 38.4674-80.1515 37.8493-79.7858 37.2312-79.409 36.5943-78.4636 34.6881-78.4636 34.6881-79.7463 31.8985ZM-13.1535 38.3779C-13.8587 38.7319-14.5639 39.086-15.2905 39.4507-17.5472 40.5846-19.801 41.7241-22.0548 42.8637-23.5824 43.6324-25.11 44.4008-26.638 45.1688-30.3872 47.0545-34.134 48.9451-37.8795 50.8383-36.0043 55.1871-33.3449 56.5016-29.1573 58.3768-28.4991 58.6781-27.8411 58.9795-27.1631 59.2899-20.6784 62.1323-14.0293 63.957-6.9778 64.7939-4.79381 62.6099-5.22937 57.9246-4.92184 54.8879-4.8327 54.0285-4.74355 53.1691-4.6517 52.2837-4.07501 46.4557-3.79521 40.7482-3.98732 34.889-7.36052 34.889-10.1954 36.8767-13.1535 38.3779ZM-52.6801 57.0139C-53.6673 57.4787-54.6544 57.9433-55.6715 58.4221-56.7287 58.9212-57.786 59.4202-58.8752 59.9344-69.7741 65.0121-80.9211 70.0903-92.7051 72.7685-90.4323 79.3975-86.4008 83.2632-80.8678 87.4095-79.3605 88.5563-79.3605 88.5563-77.8227 89.7263-74.834 91.6618-72.1958 92.7489-68.7812 93.7019-59.5222 82.8472-48.1299 69.3796-45.8541 54.8256-48.5574 54.8256-50.2373 55.8497-52.6801 57.0139ZM-41.8668 55.8224C-42.4662 57.3971-42.4662 57.3971-43.0778 59.0037-48.1529 72.0024-54.619 83.4173-62.8002 94.6988-58.5906 94.0599-55.1851 92.6214-51.3484 90.7971-50.7339 90.5073-50.1196 90.2175-49.4865 89.9189-47.505 88.9835-45.527 88.0407-43.549 87.0979-40.8507 85.8203-38.1505 84.5467-35.4497 83.2742-34.792 82.9639-34.1343 82.6535-33.4566 82.3338-27.2027 79.3929-20.8771 76.6523-14.4969 73.999-11.8377 73.0263-11.8377 73.0263-10.9651 70.7749-11.7155 70.5192-12.4659 70.2635-13.2391 70-22.7498 66.572-31.1671 61.9022-39.8732 56.8193-40.5311 56.4903-41.189 56.1614-41.8668 55.8224ZM-119.764 78.5003C-120.914 78.7657-120.914 78.7657-122.089 79.0367-124.528 79.6004-126.964 80.1717-129.4 80.7432-131.059 81.1278-132.717 81.512-134.376 81.8957-138.43 82.8349-142.482 83.7809-146.534 84.7305-146.635 93.1999-145.091 100.449-139.119 106.785-136.46 109.365-134.334 110.498-130.585 110.648-124.513 106.708-120.102 99.9002-115.82 94.1381-115.365 93.5277-114.91 92.9173-114.442 92.2884-108.992 85.1185-108.992 85.1185-106.661 76.7558-111.21 76.5059-115.369 77.4609-119.764 78.5003ZM-18.4375 80.3226C-19.2974 80.6893-20.1574 81.056-21.0435 81.4338-23.8111 82.614-26.5777 83.7967-29.3442 84.9797-32.0787 86.1483-34.8135 87.3163-37.5488 88.4828-39.2524 89.2096-40.9557 89.9374-42.6584 90.6665-48.3426 93.0922-54.0629 95.416-59.8097 97.6893-59.8097 98.3472-59.8097 99.0051-59.8097 99.6829-47.3917 106.779-32.8841 108.54-18.9398 110.648-16.2669 104.57-14.1608 98.3769-12.2735 92.0198-12.0599 91.31-11.8463 90.6-11.6263 89.8686-10.3557 85.5045-9.50985 81.27-8.97146 76.7558-11.9635 76.7558-15.6503 79.1282-18.4375 80.3226ZM-100.68 78.7495C-100.996 79.3791-101.312 80.0088-101.638 80.6575-107.524 91.9415-114.896 102.356-123.607 111.645-119.947 112.961-117.575 112.305-113.904 111.205-112.782 110.872-111.661 110.539-110.505 110.196-109.318 109.832-108.132 109.467-106.91 109.091-105.705 108.727-104.5 108.363-103.259 107.988-94.2784 105.242-85.4606 102.205-76.7558 98.6861-77.4434 98.1399-78.1308 97.5939-78.839 97.0312-82.014 94.4784-85.1571 91.8925-88.2817 89.2785-89.1249 88.5836-89.1249 88.5836-89.9853 87.8748-92.6241 85.6618-94.8033 83.6029-96.9688 80.895-97.5355 80.187-98.1022 79.479-98.6861 78.7495-99.344 78.7495-100.002 78.7495-100.68 78.7495ZM-80.124 103.717C-81.4399 104.152-82.756 104.586-84.0722 105.02-85.105 105.362-85.105 105.362-86.1587 105.711-97.8601 109.574-109.512 113.223-121.613 115.632-115.632 122.351-103.668 128.161-94.6988 129.588-89.9146 129.32-87.9817 127.285-84.8551 123.794-79.3362 117.474-73.384 110.097-71.7717 101.677-74.771 101.677-77.2827 102.769-80.124 103.717ZM-65.7907 103.67C-66.0811 104.137-66.3716 104.603-66.6707 105.084-76.8159 121.292-76.8159 121.292-83.3715 128.123-84.8435 129.376-84.8435 129.376-84.7305 130.585-77.4186 130.067-70.5199 128.781-63.4233 126.971-62.3944 126.711-61.3657 126.452-60.3058 126.184-53.2699 124.356-46.3637 122.259-39.4994 119.869-38.2381 119.43-38.2381 119.43-36.9513 118.983-32.5383 117.463-32.5383 117.463-28.908 114.635-29.9431 114.381-29.9431 114.381-30.9991 114.121-34.2919 113.306-37.5813 112.477-40.87 111.645-42.1151 111.333-43.3603 111.021-44.6432 110.699-51.9413 108.82-58.8773 106.668-65.7907 103.67ZM-33.6391 121.135C-34.403 121.393-35.1669 121.651-35.954 121.917-39.2161 123.021-42.4746 124.135-45.7332 125.249-55.0011 128.409-64.1922 131.446-73.7654 133.575-70.1943 135.956-66.883 136.448-62.7379 137.126-61.9718 137.255-61.2056 137.384-60.4162 137.517-50.4998 139.151-40.9624 139.698-30.9017 139.556-27.608 132.708-24.8872 125.969-22.9271 118.623-26.7979 118.623-30.0236 119.889-33.6391 121.135Z" fill="#F2F2F2" transform="matrix(1.00318 0 0 1 718 292.55)"/><path d="M0 0C7.66505 5.32778 13.0371 12.8064 15.3185 21.8835 17.3277 34.4855 16.455 48.2494 9.03376 58.9959 4.71668 64.1655-0.677156 68.4944-7.16471 70.5218-2.7022 75.39 1.30782 79.2362 8.12649 79.7386 11.3465 79.742 14.5411 79.6673 17.756 79.4932 17.756 82.7828 17.756 86.0723 17.756 89.4615 12.9591 91.86 6.33588 90.9548 1.21489 89.9522-7.27887 87.1117-15.2008 79.8994-20.1235 72.5154-22.6623 71.9337-22.6623 71.9337-25.606 71.7055-34.8358 70.3459-41.6961 65.9885-47.5675 58.7739-54.3951 48.4781-55.2469 36.3806-53.5562 24.4029-51.4905 14.9251-46.9811 7.41927-39.4487 1.24993-27.8726-6.06325-11.9333-6.84036 0 0ZM-36.322 12.768C-42.6791 20.949-44.2569 30.4983-43.0506 40.6169-41.2303 48.532-38.019 55.3761-31.0535 59.8682-24.8325 63.028-18.6966 63.6538-11.9152 62.0059-4.55772 59.5027-0.85973 55.551 2.78801 48.8095 6.38486 40.9518 6.10858 28.9073 3.73811 20.618 1.26793 14.6455-2.89177 10.1771-8.28614 6.7247-18.4125 3.22733-28.9306 5.13811-36.322 12.768Z" fill="#F2F2F2" transform="matrix(1.00318 0 0 1 492.188 479.21)"/><path d="M0 0C0 3.94744 0 7.89489 0 11.962-1.11022 11.4891-2.22044 11.0163-3.3643 10.529-10.9078 7.74843-17.4002 7.2768-25.0102 9.98384-27.125 11.0737-28.4217 12.0959-29.9049 13.9556-30.5699 17.3598-30.5699 17.3598-29.9049 20.9334-25.9408 25.8006-20.888 28.4608-15.4509 31.4624 0.575651 40.3837 0.575651 40.3837 2.99049 47.8478 3.7139 53.7082 3.88231 58.8857 1.37064 64.2955-4.53791 70.515-9.50687 73.6807-18.2116 74.0652-19.721 74.0836-21.2307 74.0871-22.7402 74.0769-23.9186 74.075-23.9186 74.075-25.1208 74.073-31.1602 73.9736-36.2032 72.9672-41.8668 70.7749-41.8668 66.8274-41.8668 62.88-41.8668 58.8129-36.8827 60.8066-36.8827 60.8066-34.8539 61.6555-27.4548 64.4783-19.9673 64.9747-12.3358 62.7379-9.02406 60.0362-8.47398 58.0376-7.97463 53.8288-9.39348 48.7615-12.0199 46.7728-16.3659 44.2733-17.2152 43.808-18.0646 43.3429-18.9398 42.8637-20.6925 41.8844-22.445 40.9047-24.1933 39.9174-25.3951 39.2407-26.601 38.5708-27.8112 37.9092-33.9642 34.4751-39.5579 30.8509-41.8668 23.9239-42.5331 17.724-42.6376 12.195-38.8763 6.9778-28.9389-4.22937-13.4526-3.64817 0 0Z" fill="#F2F2F2" transform="matrix(1.00318 0 0 1 638 476.963)"/><path d="M0 0C0 3.94744 0 7.89489 0 11.962-1.11022 11.4891-2.22044 11.0163-3.3643 10.529-11.9635 7.37041-20.4243 7.0851-28.908 10.9651-30.1168 14.5914-30.299 17.1229-29.9049 20.9334-26.0653 25.649-21.3664 28.0889-16.0739 30.8394-0.152654 39.1169-0.152654 39.1169 2.99049 47.8478 4.44935 54.2043 3.90767 58.916 0.996829 64.7939-2.98318 69.7421-7.77133 72.4639-13.9556 73.7654-23.7426 74.2653-32.6098 74.3583-41.8668 70.7749-41.8668 66.8274-41.8668 62.88-41.8668 58.8129-36.8827 60.8066-36.8827 60.8066-34.8539 61.6555-27.4868 64.466-19.8567 65.1445-12.3358 62.551-9.78094 60.6685-8.74196 59.8886-7.97463 56.8193-7.82029 53.3278-7.82029 53.3278-8.97146 49.8415-13.4439 45.5298-18.4591 42.7589-23.9239 39.8732-37.1079 32.9114-37.1079 32.9114-40.7454 26.7275-42.4842 20.8351-42.7268 15.5891-40.8077 9.71908-36.576 3.7128-31.8772 0.308199-24.7299-1.53029-16.271-2.93031-8.22546-2.23063 0 0Z" fill="#F2F2F2" transform="matrix(1.00318 0 0 1 426 476.963)"/><path d="M0 0C4.76829 2.93835 7.63482 7.14165 9.62563 12.3085 10.747 17.0435 10.747 17.0435 10.747 28.0086-1.09527 28.0086-12.9376 28.0086-25.1388 28.0086-23.6109 36.7334-23.6109 36.7334-18.161 41.9642-14.0562 44.2939-9.82207 44.636-5.2022 43.9579-1.06472 42.619 2.87266 40.9172 6.75975 38.9737 6.75975 42.2633 6.75975 45.5528 6.75975 48.942-1.9115 53.9871-12.0763 54.6841-21.8134 52.2712-28.0884 49.4729-32.4903 44.1697-34.9825 37.8523-37.7765 28.0146-36.7692 18.1277-32.1166 9.06881-25.3427-1.98764-11.7328-5.16914 0 0ZM-21.1515 10.0657C-23.6652 13.1709-25.1388 15.9551-25.1388 20.034-16.586 20.034-8.0332 20.034 0.778773 20.034-0.908268 12.0051-0.908268 12.0051-6.19903 7.07515-12.0693 5.19221-16.371 6.40512-21.1515 10.0657Z" fill="#F2F2F2" transform="matrix(1.00318 0 0 1 686.219 497.799)"/><path d="M0 0C4.71864 4.07519 7.45869 7.90455 8.97146 13.9556 8.97146 18.232 8.97146 22.5084 8.97146 26.9144-2.87087 26.9144-14.7132 26.9144-26.9144 26.9144-24.4956 36.5773-24.4956 36.5773-17.9429 41.8668-10.9724 44.1903-5.46784 42.6989 0.996829 39.8732 1.98369 39.4825 2.97055 39.092 3.98732 38.6894 4.64522 38.4222 5.30313 38.1548 5.98098 37.8795 5.98098 41.169 5.98098 44.4586 5.98098 47.8478-3.32271 52.5735-13.3643 53.6135-23.5852 51.2121-29.6702 48.5858-33.5184 43.142-36.0221 37.1709-38.1991 28.8769-38.4969 18.1638-34.889 10.2798-31.4806 4.68914-26.9352 0.542279-21.1203-2.42977-13.5655-3.76296-6.7339-3.90567 0 0ZM-20.9334 7.97463C-24.557 11.5982-25.2076 13.8193-26.9144 18.9398-18.3616 18.9398-9.8088 18.9398-0.996829 18.9398-1.75449 11.7867-1.75449 11.7867-5.98098 6.9778-11.5819 4.31132-15.5445 4.76196-20.9334 7.97463Z" fill="#F2F2F2" transform="matrix(1.00318 0 0 1 833 498.893)"/><path d="M0 0C0.582093 1.81182 0.582093 1.81182 1.17595 3.66024 6.48175 19.7217 13.2601 34.9863 22.7479 49.0432 23.9239 50.8383 23.9239 50.8383 23.9239 51.8351 21.7016 51.6938 19.4795 51.5474 17.2576 51.399 16.0201 51.3181 14.7828 51.2371 13.5078 51.1537 10.5845 50.8932 7.84064 50.4914 4.98415 49.8415 4.98415 49.5125 4.98415 49.1836 4.98415 48.8446 8.93159 48.8446 12.879 48.8446 16.9461 48.8446 14.6434 45.5551 12.3407 42.2656 9.96829 38.8763 5.03399 41.179 0.0996829 43.4817-4.98415 45.8541-4.32624 46.512-3.66833 47.17-2.99049 47.8478-4.94298 47.7074-6.89503 47.5609-8.84686 47.4117-9.93395 47.3307-11.021 47.2498-12.1411 47.1664-14.9524 46.851-14.9524 46.851-16.9461 45.8541-18.9344 45.5102-20.9294 45.2046-22.9271 44.9196-28.6192 44.0775-34.2452 43.061-39.8732 41.8668-37.2195 40.4954-34.8262 39.5037-31.8985 38.8763-32.6387 38.3212-33.3788 37.7661-34.1414 37.1942-36.817 34.9442-38.8488 32.7494-40.87 29.9049-40.87 29.247-40.87 28.5891-40.87 27.9112-44.8392 30.0061-47.2003 32.2665-49.8415 35.8858-45.4006 37.8596-45.4006 37.8596-40.87 39.8732-44.1016 40.9503-44.7547 40.8342-47.8595 39.8771-48.6144 39.649-49.3694 39.4209-50.1471 39.1859-50.9303 38.9398-51.7135 38.6937-52.5204 38.4402-53.3152 38.198-54.11 37.9558-54.9288 37.7063-56.8904 37.1072-58.8488 36.4975-60.8066 35.8858-57.868 28.673-51.3166 25.0806-44.9196 21.3072-44.0557 20.7933-43.1918 20.2793-42.3017 19.7497-30.893 13.0644-19.0291 7.20771-7.02064 1.68215-6.31543 1.35705-5.61021 1.03195-4.88364 0.697002-2.99049 0-2.99049 0 0 0ZM-11.8996 11.5881C-12.5647 11.8537-13.2297 12.1191-13.9149 12.3927-19.8249 14.8065-25.3939 17.7044-30.9017 20.9334-27.2674 23.3563-23.8485 23.8623-19.6251 24.5469-18.8318 24.6784-18.0384 24.8099-17.2211 24.9454-10.1057 26.045-3.2127 26.2301 3.98732 25.9176 3.56713 24.9449 3.14694 23.9721 2.71403 22.9699 2.16233 21.6888 1.6107 20.4078 1.05913 19.1267 0.643763 18.1658 0.643763 18.1658 0.220003 17.1855-0.948863 14.4676-2.05437 11.7798-2.99049 8.97146-6.18425 8.97146-8.97148 10.4146-11.8996 11.5881ZM-34.889 25.9176C-30.6242 31.1419-26.14 35.5922-20.9334 39.8732-19.9671 40.7366-19.0009 41.6002-18.0052 42.4898-14.6611 43.9913-14.1202 43.9837-10.7782 42.9883-5.28369 40.7849-0.134373 37.8453 4.98415 34.889 2.09308 33.2962-0.450902 32.486-3.69917 31.9336-4.60556 31.7752-5.51195 31.6168-6.44581 31.4536-7.40263 31.2921-8.35945 31.1305-9.34527 30.964-11.3185 30.6192-13.2913 30.2726-15.2639 29.9243-16.2277 29.7543-17.1914 29.5842-18.1844 29.4089-23.7831 28.3889-29.3376 27.1681-34.889 25.9176Z" fill="#F2F2F2" transform="matrix(1.00318 0 0 1 666 151)"/><path d="M0 0C3.61849 0 7.23698 0 10.9651 0 10.9651 21.382 10.9651 42.764 10.9651 64.7939 20.5048 64.7939 30.0444 64.7939 39.8732 64.7939 39.8732 67.7545 39.8732 70.7151 39.8732 73.7654 26.715 73.7654 13.5569 73.7654 0 73.7654 0 49.4228 0 25.0802 0 0Z" fill="#F2F2F2" transform="matrix(1.00318 0 0 1 521 475.966)"/><path d="M0 0C3.61849 0 7.23698 0 10.9651 0 11.3525 1.14227 11.7398 2.28452 12.1389 3.4614 13.5719 7.68498 15.0089 11.9072 16.447 16.1291 17.0697 17.9592 17.6914 19.7896 18.3121 21.6204 19.2026 24.2466 20.0969 26.8714 20.9918 29.496 21.2701 30.3195 21.5485 31.1428 21.8351 31.9912 22.8697 35.7205 22.8697 35.7205 24.9207 38.8763 29.5261 26.0471 34.1314 13.218 38.8763 0 42.4948 0 46.1133 0 49.8415 0 47.8489 6.93993 45.5375 13.619 42.852 20.3182 42.4801 21.2555 42.1082 22.1928 41.725 23.1584 40.5509 26.1149 39.3711 29.069 38.191 32.0231 37.3879 34.0426 36.585 36.0622 35.7827 38.082 33.8278 43.0004 31.8677 47.9167 29.9049 52.8319 26.2864 52.8319 22.6679 52.8319 18.9398 52.8319 14.9533 43.4413 11.2389 33.9649 7.61713 24.4286 6.65663 21.9048 5.68701 19.3846 4.71741 16.8644 4.10357 15.2512 3.49027 13.6378 2.87757 12.0243 2.58794 11.2756 2.29831 10.5269 1.99991 9.75559 0.68309 6.25739 0 3.78691 0 0Z" fill="#F2F2F2" transform="matrix(1.00318 0 0 1 742 496.9)"/><path d="M0 0C0 3.28954 0 6.57907 0 9.96829-2.31295 9.84493-2.31295 9.84493-4.67264 9.71908-8.0373 9.74759-9.80705 9.89281-12.8965 11.3389-19.0073 19.1164-18.4646 29.5753-18.6282 39.0009-18.6614 40.3483-18.6958 41.6956-18.7314 43.0428-18.8131 46.3057-18.8821 49.5684-18.9398 52.8319-22.2293 52.8319-25.5188 52.8319-28.908 52.8319-28.908 35.3974-28.908 17.9629-28.908 0-25.6185 0-22.329 0-18.9398 0-18.6108 2.30268-18.2818 4.60535-17.9429 6.9778-17.2233 6.03206-16.5037 5.08632-15.7624 4.11192-11.7906-0.618484-5.91187-2.95594 0 0Z" fill="#F2F2F2" transform="matrix(1.00318 0 0 1 737 496.9)"/><path d="M0 0C0 3.28954 0 6.57907 0 9.96829-2.31295 9.81409-2.31295 9.81409-4.67264 9.65678-8.61662 9.65678-9.65823 9.7422-12.9588 12.1489-16.5479 17.196-17.2576 21.5176-17.3589 27.6191-17.3781 28.3422-17.3975 29.0653-17.4173 29.8104-17.4766 32.1054-17.5231 34.4005-17.5691 36.6958-17.6072 38.2579-17.6462 39.8199-17.6859 41.3821-17.7813 45.1985-17.8652 49.0151-17.9429 52.8319-21.2325 52.8319-24.522 52.8319-27.9112 52.8319-27.9112 35.3974-27.9112 17.9629-27.9112 0-24.6217 0-21.3321 0-17.9429 0-17.614 1.97372-17.285 3.94744-16.9461 5.98098-16.391 5.19971-15.8358 4.41845-15.2639 3.61351-11.3474-0.832259-5.60677-2.80338 0 0Z" fill="#F2F2F2" transform="matrix(1.00318 0 0 1 882 496.9)"/><path d="M0 0C1.97372 0 3.94744 0 5.98098 0 8.80373 6.92175 11.4323 13.8974 13.9556 20.9334 14.1618 20.3347 14.3679 19.736 14.5803 19.1191 15.5113 16.4209 16.4467 13.7241 17.3822 11.0274 17.8689 9.61363 17.8689 9.61363 18.3654 8.17128 18.677 7.275 18.9886 6.37873 19.3097 5.45531 19.5968 4.62529 19.8839 3.79528 20.1797 2.94011 20.9334 0.996829 20.9334 0.996829 21.9302 0 23.904 0 25.8777 0 27.9112 0 27.9112 9.53965 27.9112 19.0793 27.9112 28.908 26.2664 28.908 24.6217 28.908 22.9271 28.908 22.5981 23.6448 22.2692 18.3815 21.9302 12.9588 20.3315 17.8337 20.3315 17.8337 18.7395 22.7108 17.0568 27.8005 17.0568 27.8005 15.9493 28.908 14.3045 28.908 12.6597 28.908 10.9651 28.908 8.9914 23.3158 7.01768 17.7236 4.98415 11.962 4.65519 17.5542 4.32624 23.1464 3.98732 28.908 2.6715 28.908 1.35569 28.908 0 28.908 0 19.3684 0 9.82874 0 0Z" fill="#F2F2F2" transform="matrix(1.00318 0 0 1 384 435.096)"/><path d="M0 0C0.328954 0.986861 0.657907 1.97372 0.996829 2.99049 0.667876 3.64839 0.338922 4.3063 0 4.98415-0.657907 5.12806-1.31581 5.27198-1.99366 5.42026-2.65157 5.6053-3.30947 5.79033-3.98732 5.98098-4.31627 6.96784-4.64522 7.9547-4.98415 8.97146-2.68147 8.97146-0.378795 8.97146 1.99366 8.97146 1.99366 6.99774 1.99366 5.02402 1.99366 2.99049 3.30947 2.33258 4.62529 1.67467 5.98098 0.996829 5.98098 3.62846 5.98098 6.26009 5.98098 8.97146 7.29679 8.97146 8.6126 8.97146 9.96829 8.97146 9.96829 9.95832 9.96829 10.9452 9.96829 11.962 8.65248 11.962 7.33666 11.962 5.98098 11.962 5.98098 16.5673 5.98098 21.1727 5.98098 25.9176 7.29679 25.9176 8.6126 25.9176 9.96829 25.9176 9.63934 27.5623 9.31038 29.2071 8.97146 30.9017 3.11509 30.0295 3.11509 30.0295 1.99366 28.908 1.92064 26.0544 1.90157 23.2254 1.93136 20.3727 1.9381 19.167 1.9381 19.167 1.94498 17.937 1.95677 15.9454 1.97465 13.9536 1.99366 11.962-0.309017 11.962-2.61169 11.962-4.98415 11.962-4.98415 17.8831-4.98415 23.8043-4.98415 29.9049-6.29996 29.9049-7.61577 29.9049-8.97146 29.9049-8.97146 23.9837-8.97146 18.0625-8.97146 11.962-9.95832 11.962-10.9452 11.962-11.962 11.962-11.962 10.9751-11.962 9.98823-11.962 8.97146-10.9751 8.97146-9.98823 8.97146-8.97146 8.97146-9.03315 7.86124-9.09482 6.75103-9.15837 5.60716-9.09668 4.41471-9.03501 3.22225-8.97146 1.99366-5.54715-0.289217-4.00194-0.177864 0 0Z" fill="#F2F2F2" transform="matrix(1.00318 0 0 1 534 434.099)"/><path d="M0 0C2.55437 1.86905 2.55437 1.86905 3.98732 4.98415 4.71188 10.0638 4.71537 14.3665 2.55437 19.0644-1.11265 21.7475-4.47288 22.2194-8.97146 21.9302-12.6301 20.3734-13.729 19.2796-15.9493 15.9493-16.632 10.8207-16.7672 6.39424-14.1425 1.86905-9.7984-1.85447-5.27239-1.33237 0 0ZM-9.71908 4.04962C-11.4614 6.75021-11.8337 8.75367-11.962 11.962-10.9902 14.8278-10.9902 14.8278-8.97146 16.9461-6.54109 18.0971-6.54109 18.0971-3.98732 17.9429-1.386 16.3635-1.01151 15.0007-0.124604 12.0866 0.0263151 8.31358-0.543873 6.8417-2.99049 3.98732-5.79358 2.86608-7.09338 2.45544-9.71908 4.04962Z" fill="#F2F2F2" transform="matrix(1.00318 0 0 1 474 443.071)"/><path d="M0 0C3.56337 2.04564 5.43109 3.19542 6.64293 7.13746 7.26613 11.4781 7.38254 15.1241 4.98415 18.9398 2.1477 21.9383 0.636549 22.8475-3.4889 23.3632-7.21723 22.8972-9.08025 22.3243-11.962 19.9366-14.248 16.0176-14.3476 12.4428-13.9556 7.97463-12.7681 4.82783-11.8808 2.71316-9.22067 0.623018-5.90876-0.296956-3.42901-0.413847 0 0ZM-7.72543 5.54486C-9.4375 8.88341-9.36841 11.2475-8.97146 14.9524-7.61692 17.3456-7.61692 17.3456-5.98098 18.9398-3.05585 18.674-3.05585 18.674 0 17.9429 2.47253 14.2341 2.45556 12.3627 1.99366 7.97463 0.393258 5.45952 0.393258 5.45952-1.99366 3.98732-5.87502 3.54471-5.87502 3.54471-7.72543 5.54486Z" fill="#F2F2F2" transform="matrix(1.00318 0 0 1 514 442.074)"/><path d="M0 0C1.99366 1.99366 1.99366 1.99366 1.99366 5.98098-2.86588 5.10875-2.86588 5.10875-3.98732 3.98732-5.6482 3.94681-7.31063 3.94473-8.97146 3.98732-8.97146 4.64522-8.97146 5.30313-8.97146 5.98098-7.80149 6.37803-7.80149 6.37803-6.60789 6.78311-5.09483 7.31123-5.09483 7.31123-3.5512 7.85003-2.54506 8.19698-1.53893 8.54391-0.502308 8.90138 1.99366 9.96829 1.99366 9.96829 2.99049 11.962 3.3643 14.8278 3.3643 14.8278 2.99049 17.9429 0.267134 21.0789-1.35332 21.8502-5.48256 22.3664-9.19755 21.9019-11.1131 21.3643-13.9556 18.9398-14.7655 16.2608-14.7655 16.2608-14.9524 13.9556-12.585 13.7687-12.585 13.7687-9.96829 13.9556-8.98143 15.4359-8.98143 15.4359-7.97463 16.9461-5.39903 17.1956-5.39903 17.1956-2.99049 16.9461-2.99049 15.9592-2.99049 14.9724-2.99049 13.9556-3.61498 13.7628-4.23948 13.5701-4.88291 13.3716-5.69758 13.112-6.51225 12.8524-7.35161 12.585-8.56591 12.2033-8.56591 12.2033-9.80475 11.814-11.962 10.9651-11.962 10.9651-13.9556 8.97146-14.3917 5.54486-14.3917 5.54486-13.9556 1.99366-10.0663-2.02114-5.06366-1.32312 0 0Z" fill="#F2F2F2" transform="matrix(1.00318 0 0 1 495 443.071)"/><path d="M0 0C2.92819 1.74445 2.92819 1.74445 4.98415 3.98732 4.98415 5.30313 4.98415 6.61895 4.98415 7.97463 2.51699 7.4812 2.51699 7.4812 0 6.9778 0 6.3199 0 5.66199 0 4.98415-2.33569 5.23895-4.6636 5.57498-6.9778 5.98098-8.48236 8.99008-8.14919 11.636-7.97463 14.9524-6.98777 16.4327-6.98777 16.4327-5.98098 17.9429-2.90709 18.1923-2.90709 18.1923 0 17.9429 0.328954 16.6271 0.657907 15.3113 0.996829 13.9556 2.6416 13.9556 4.28637 13.9556 5.98098 13.9556 5.15269 17.0616 4.47569 19.3939 2.30517 21.8056-1.0111 23.419-3.33485 23.3744-6.9778 22.9271-10.6528 20.9671-12.199 19.0373-13.3949 15.1393-14.205 10.9561-13.7039 7.9256-11.962 3.98732-8.293-0.100945-5.39511-0.770729 0 0Z" fill="#F2F2F2" transform="matrix(1.00318 0 0 1 438 442.074)"/><path d="M0 0C1.93136 1.05913 1.93136 1.05913 2.99049 2.99049 3.4892 6.90897 3.5882 9.07172 1.37064 12.3981-1.71141 14.4257-3.353 14.5598-6.9778 13.9556-9.34527 12.3358-9.34527 12.3358-10.9651 9.96829-11.5693 6.34349-11.4352 4.70189-9.40757 1.61985-6.08124-0.597713-3.91849-0.498716 0 0ZM-7.97463 2.99049C-8.30359 3.31944-8.63254 3.64839-8.97146 3.98732-8.68507 6.31935-8.35406 8.64641-7.97463 10.9651-7.64568 10.9651-7.31673 10.9651-6.9778 10.9651-6.9778 8.33349-6.9778 5.70186-6.9778 2.99049-7.30676 2.99049-7.63571 2.99049-7.97463 2.99049ZM-0.996829 2.99049C-1.99582 6.56241-1.99582 6.56241-0.996829 9.96829-0.338922 9.96829 0.318985 9.96829 0.996829 9.96829 0.996829 7.99457 0.996829 6.02085 0.996829 3.98732 0.338922 3.65836-0.318985 3.32941-0.996829 2.99049ZM-4.98415 3.98732C-4.98415 4.64522-4.98415 5.30313-4.98415 5.98098-4.32624 5.98098-3.66833 5.98098-2.99049 5.98098-2.99049 5.32307-2.99049 4.66516-2.99049 3.98732-3.64839 3.98732-4.3063 3.98732-4.98415 3.98732ZM-4.98415 7.97463C-4.98415 9.29045-4.98415 10.6063-4.98415 11.962-4.32624 11.962-3.66833 11.962-2.99049 11.962-3.64839 10.6461-4.3063 9.33032-4.98415 7.97463Z" fill="#F2F2F2" transform="matrix(1.00318 0 0 1 557 438.087)"/><path d="M0 0C-0.328954 1.31581-0.657907 2.63163-0.996829 3.98732-1.79866 4.11067-2.60048 4.23403-3.4266 4.36113-4.69102 4.66952-4.69102 4.66952-5.98098 4.98415-7.45706 7.93633-7.32982 10.8007-7.53852 14.0802-7.62204 15.3574-7.70557 16.6348-7.79163 17.9507-7.88222 19.4271-7.88222 19.4271-7.97463 20.9334-9.29045 20.9334-10.6063 20.9334-11.962 20.9334-11.962 14.0254-11.962 7.11736-11.962 0-7.01071-0.825206-4.65191-0.996839 0 0Z" fill="#F2F2F2" transform="matrix(1.00318 0 0 1 458 443.071)"/><path d="M0 0C1.31581 0 2.63163 0 3.98732 0 3.98732 6.90803 3.98732 13.8161 3.98732 20.9334 2.6715 20.9334 1.35569 20.9334 0 20.9334 0 14.0254 0 7.11736 0 0Z" fill="#F2F2F2" transform="matrix(1.00318 0 0 1 417 443.071)"/><path d="M0 0C1.4528-0.0807113 2.90688-0.138737 4.36113-0.186905 5.17066-0.2216 5.9802-0.256294 6.81426-0.29204 7.52614-0.195667 8.23802-0.0992936 8.97146 0 9.62937 0.986861 10.2873 1.97372 10.9651 2.99049 11.2941 2.00363 11.623 1.01677 11.962 0 12.9488 0 13.9357 0 14.9524 0 14.9524 2.63163 14.9524 5.26326 14.9524 7.97463 12.3208 7.97463 9.68918 7.97463 6.9778 7.97463 6.9778 6.00091 6.9778 4.02719 6.9778 1.99366 6.3199 1.99366 5.66199 1.99366 4.98415 1.99366 4.98415 3.96738 4.98415 5.9411 4.98415 7.97463 4.32624 7.97463 3.66833 7.97463 2.99049 7.97463 2.99049 6.00091 2.99049 4.02719 2.99049 1.99366 2.00363 1.99366 1.01677 1.99366 0 1.99366 0 1.33575 0 0.677844 0 0Z" fill="#F2F2F2" transform="matrix(1.00318 0 0 1 697 429.115)"/><path d="M0 0C1.99366 1.99366 1.99366 1.99366 2.24287 4.98415 1.99366 7.97463 1.99366 7.97463 0 9.96829-3.61351 9.59448-3.61351 9.59448-6.9778 8.97146-8.30516 3.54137-8.30516 3.54137-6.8532 1.12143-4.39125-0.355735-2.82487-0.362164 0 0ZM-5.98098 2.99049C-4.98415 6.9778-4.98415 6.9778-4.98415 6.9778ZM0 3.98732C-0.328954 4.64522-0.657907 5.30313-0.996829 5.98098-0.338922 5.98098 0.318985 5.98098 0.996829 5.98098 0.667876 5.32307 0.338922 4.66516 0 3.98732ZM-2.99049 6.9778C-1.99366 8.97146-1.99366 8.97146-1.99366 8.97146Z" fill="#F2F2F2" transform="matrix(1.00318 0 0 1 894 496.9)"/><path d="M0 0C0.657907 0 1.31581 0 1.99366 0 1.99366 0.657907 1.99366 1.31581 1.99366 1.99366 4.95424 2.48709 4.95424 2.48709 7.97463 2.99049 6.98777 3.48392 6.98777 3.48392 5.98098 3.98732 5.65202 4.64522 5.32307 5.30313 4.98415 5.98098 3.01042 4.66516 1.0367 3.34935-0.996829 1.99366-0.667876 1.33575-0.338922 0.677844 0 0Z" fill="#F2F2F2" transform="matrix(1.00318 0 0 1 603 184.892)"/><path d="M0 0C1.31581 0 2.63163 0 3.98732 0 3.98732 1.64477 3.98732 3.28954 3.98732 4.98415 2.6715 4.98415 1.35569 4.98415 0 4.98415 0 3.33938 0 1.69461 0 0Z" fill="#F2F2F2" transform="matrix(1.00318 0 0 1 417 435.096)"/></g></g></g><g clip-path="url(#clip3)"><g clip-path="url(#clip4)"><g clip-path="url(#clip5)"><path d="M0 0C0.583945 1.81758 0.583945 1.81758 1.17969 3.67188 5.12741 15.6222 9.9014 26.7848 15.8877 37.856 16.85 39.7109 17.6841 41.6314 18.4922 43.5586 20.257 47.3126 21.8085 50.1121 25.7993 51.729 30.7577 53.1561 35.8422 53.8247 40.9424 54.54 66.3831 58.3671 92.588 65.0476 115 78 115.99 78.5581 115.99 78.5581 117 79.1274 126.59 84.583 134.752 90.8109 142.573 98.5835 143.921 99.9218 145.292 101.237 146.664 102.551 150.659 106.422 154.317 110.101 157 115 157 115.99 157 116.98 157 118 156.219 118.11 155.438 118.219 154.634 118.332 125.544 122.482 97.1235 128.569 68.8125 136.438 67.6187 136.769 67.6187 136.769 66.4008 137.108 64.1679 137.732 61.937 138.362 59.707 138.996 58.7051 139.278 58.7051 139.278 57.683 139.566 54.5842 140.297 54.5842 140.297 52 142 52.0875 143.718 52.2416 145.433 52.4219 147.145 56.9184 196.265 44.5321 242.282 25 287-12.7063 288.4-62.2303 278.825-91.7305 253.672-98.2233 247.444-102.988 241.135-103.312 231.875-103.157 222.4-98.2714 214.777-92 208-88.7549 204.892-85.4213 201.912-82 199-81.34 199.33-80.68 199.66-80 200-80.6033 200.557-81.2066 201.114-81.8281 201.688-88.8218 208.365-91.9979 213.946-95 223-93.8646 222.697-92.7292 222.394-91.5593 222.082-87.3504 220.96-83.1401 219.843-78.9294 218.728-77.1065 218.244-75.2839 217.759-73.4617 217.272-70.8438 216.574-68.2248 215.88-65.6055 215.188-64.7897 214.969-63.974 214.75-63.1336 214.525-60.0136 213.703-57.2411 213-54 213-54.5981 212.031-55.1963 211.061-55.8125 210.062-59.2673 203.288-59.8845 195.437-61 188-64.96 190.31-68.92 192.62-73 195-73 192-73 192-71.1233 189.814-70.2589 188.979-69.3945 188.143-68.5039 187.281-68.0369 186.823-67.57 186.365-67.0889 185.893-65.587 184.422-64.0758 182.96-62.5625 181.5-55.177 174.356-48.3598 167.103-42 159-41.1572 157.965-40.3136 156.931-39.4688 155.898-24.4899 136.699-17.363 116.349-19 92-21.3457 77.552-29.917 65.2084-40 55-40.9185 53.9907-40.9185 53.9907-41.8555 52.9609-46.9752 47.4809-52.8817 43.3423-59.0234 39.1016-62 37-62 37-64 35-49.5077 23.0054-33.351 14.4968-16.5 6.3125-15.5275 5.8381-15.5275 5.8381-14.5354 5.35413-12.6833 4.45393-10.8271 3.56305-8.96875 2.67578-7.89045 2.15927-6.81215 1.64276-5.70117 1.1106-3 0-3 0 0 0ZM-11.9375 11.625C-12.6047 11.8914-13.2718 12.1577-13.9592 12.4321-19.888 14.8536-25.4747 17.7607-31 21-27.3541 23.4306-23.9244 23.9382-19.6875 24.625-18.8917 24.7569-18.0958 24.8888-17.2759 25.0247-10.1378 26.1278-3.22292 26.3135 4 26 3.57848 25.0242 3.15695 24.0484 2.72266 23.043 2.16921 21.7578 1.61582 20.4727 1.0625 19.1875 0.645811 18.2236 0.645811 18.2236 0.220703 17.2402-0.951881 14.5136-2.0609 11.8173-3 9-6.20392 9-9.00002 10.4477-11.9375 11.625ZM-35 26C-30.7216 31.241-26.2231 35.7054-21 40-20.0306 40.8662-19.0613 41.7325-18.0625 42.625-14.7077 44.1312-14.1651 44.1236-10.8125 43.125-5.3005 40.9146-0.1348 37.9657 5 35 2.09974 33.4021-0.452336 32.5893-3.71094 32.0352-4.62021 31.8763-5.52948 31.7174-6.46631 31.5537-7.42618 31.3916-8.38604 31.2295-9.375 31.0625-11.3545 30.7166-13.3336 30.3689-15.3125 30.0195-16.2793 29.8489-17.2461 29.6783-18.2422 29.5024-23.8588 28.4792-29.4309 27.2545-35 26ZM-45.8242 29.75C-46.7465 30.8638-46.7465 30.8638-47.6875 32-48.6214 33.1138-48.6214 33.1138-49.5742 34.25-50.28 35.1162-50.28 35.1162-51 36-50.3941 36.2952-49.7883 36.5904-49.1641 36.8945-47 38-47 38-44.375 39.6875-39.7092 41.502-35.857 40.7967-31 40-31.3867 39.5527-31.7734 39.1054-32.1719 38.6445-32.6927 38.04-33.2134 37.4354-33.75 36.8125-34.2979 36.1783-34.8457 35.5441-35.4102 34.8906-36.7253 33.3267-37.967 31.7014-39.1875 30.0625-39.7856 29.3819-40.3838 28.7013-41 28-44.0605 27.6539-44.0605 27.6539-45.8242 29.75ZM3.125 40.875C1.52012 41.6755 1.52012 41.6755-0.117188 42.4922-3.08133 43.9777-3.08133 43.9777-6 46-0.969489 49.3537 3.91406 49.1359 9.8125 49.0625 10.5054 49.058 11.1982 49.0535 11.9121 49.0488 13.6081 49.0371 15.3041 49.0192 17 49 15.6832 46.2316 14.2215 43.7423 12.4375 41.25 12.0031 40.6364 11.5687 40.0228 11.1211 39.3906 10.7511 38.9317 10.3812 38.4728 10 38 7.70727 38 5.09482 39.8877 3.125 40.875ZM-43 45C-42.34 45.66-41.68 46.32-41 47-36 52-31 57-26 62-27.9477 53.9962-27.9477 53.9962-32 47-35.749 45.2885-38.9006 44.7589-43 45ZM-24 50C-22.02 57.26-20.04 64.52-18 72-15.69 70.02-13.38 68.04-11 66-9.70299 65.0639-8.38647 64.1527-7.03516 63.2969-6.38096 62.8741-5.72676 62.4512-5.05273 62.0156-3.69937 61.155-2.34517 60.2957-0.990234 59.4375 0.70536 58.3399 2.35737 57.1754 4 56 4 55.34 4 54.68 4 54-5.45213 51.4656-14.2685 50.4547-24 50ZM15 57C15.6079 65.7339 16.6814 74.346 18 83 21.8585 81.6382 24.7087 79.8725 27.9375 77.375 32.8599 73.6982 37.9272 70.6249 43.3162 67.7026 46.3034 66.0638 48.6656 64.4684 51 62 38.9484 59.1558 27.3861 57.3172 15 57ZM-7.1875 69.8125C-10.145 72.4521-10.145 72.4521-11 76-7.56496 77.174-4.12659 78.3379-0.6875 79.5 0.288965 79.8339 1.26543 80.1677 2.27148 80.5117 3.20928 80.8275 4.14707 81.1434 5.11328 81.4688 5.97736 81.762 6.84143 82.0553 7.73169 82.3574 10.0881 83.1363 10.0881 83.1363 13 83 12.34 74.75 11.68 66.5 11 58 4.48657 58-2.81482 65.5231-7.1875 69.8125ZM57 65C38.1088 73.6103 38.1088 73.6103 25 88 26.1776 88.4544 26.1776 88.4544 27.3789 88.918 33.5747 91.3887 38.7033 93.9699 44 98 44.66 98 45.32 98 46 98 50.158 90.4389 53.5659 83.0359 56 74.75 56.2194 74.0114 56.4388 73.2729 56.6648 72.512 57.9349 68.7061 57.9349 68.7061 57 65ZM62 66C61.7809 67.0416 61.5617 68.0831 61.3359 69.1562 59.0756 79.5015 55.9627 89.1857 52 99 56.3136 97.686 60.3007 95.9866 64.3721 94.0798 76.9446 88.1948 89.8887 83.5307 103 79 98.1276 75.7518 92.5312 74.3398 87 72.5 85.8179 72.0965 84.6359 71.693 83.418 71.2773 76.3309 68.9098 69.3971 67.0794 62 66ZM-14 84C-13.67 91.92-13.34 99.84-13 108-7.42734 103.23-7.42734 103.23-1.875 98.4375-1.25367 97.9-0.632344 97.3624 0.0078125 96.8086 2.41645 94.6219 4.69967 92.3003 7 90 0.07 88.02-6.86 86.04-14 84ZM98.3594 86.3789C97.6001 86.6287 96.8409 86.8784 96.0587 87.1357 94.4439 87.6689 92.83 88.2045 91.2168 88.7424 88.8039 89.5446 86.3867 90.3323 83.9688 91.1191 73.9512 94.4232 64.4434 98.3003 55 103 57.3782 105.387 59.7513 107.767 62.2109 110.07 67.9069 115.478 72.0587 121.22 76 128 79.7612 124.482 82.7792 120.531 85.875 116.438 86.7119 115.336 86.7119 115.336 87.5657 114.212 91.9722 108.395 96.3411 102.55 100.688 96.6875 101.287 95.8818 101.887 95.076 102.505 94.2458 103.064 93.488 103.623 92.7301 104.199 91.9492 104.693 91.2824 105.186 90.6155 105.694 89.9285 106.989 88.0157 108.017 86.0881 109 84 105.172 84 101.952 85.1869 98.3594 86.3789ZM113 86C111.383 88.1352 109.97 90.2316 108.562 92.5 101.227 103.907 93.2738 115.073 84 125 87.6989 126.233 89.3584 125.633 93.125 124.707 94.377 124.408 95.629 124.109 96.9189 123.802 97.5846 123.64 98.2503 123.478 98.9362 123.312 111.467 120.28 123.908 117.888 136.707 116.243 137.758 116.105 138.808 115.967 139.891 115.824 140.809 115.712 141.727 115.599 142.673 115.483 145.259 115.098 145.259 115.098 148 113 140.283 104.097 132.499 96.4429 122.625 90 121.714 89.4024 121.714 89.4024 120.784 88.7927 117.183 86.505 117.183 86.505 113 86ZM17 95C15.1202 98.9463 13.2508 102.897 11.3909 106.853 10.7563 108.199 10.119 109.543 9.47876 110.886 8.56042 112.814 7.6523 114.746 6.74609 116.68 5.9213 118.424 5.9213 118.424 5.07983 120.203 4.72349 121.126 4.36714 122.049 4 123 4.33 123.66 4.66 124.32 5 125 15.0827 118.112 25.092 111.137 35 104 34.2871 100.752 34.2871 100.752 31.1992 99.3945 30.0404 98.8725 28.8815 98.3504 27.6875 97.8125 26.5364 97.2827 25.3852 96.7529 24.1992 96.207 20.9461 94.7647 20.9461 94.7647 17 95ZM9 96C2.07 102.93-4.86 109.86-12 117-10.7365 119.527-9.63999 119.851-7.125 121.062-6.42633 121.404-5.72766 121.746-5.00781 122.098-2.86732 123.1-2.86732 123.1 0 124 1.70285 119.902 3.38461 115.796 5.0625 111.688 5.54783 110.52 6.03316 109.353 6.5332 108.15 6.9876 107.032 7.44199 105.914 7.91016 104.762 8.33434 103.73 8.75852 102.698 9.19556 101.635 10.2991 98.9316 10.2991 98.9316 9 96ZM46 110C45.3336 110.86 44.6671 111.72 43.9805 112.605 38.7434 119.332 33.4117 125.947 27.8706 132.425 24.1025 136.843 20.5043 141.371 17 146 19.8191 147.41 21.0365 146.534 24.0005 145.553 25.0414 145.213 26.0823 144.872 27.1548 144.521 28.2819 144.144 29.409 143.767 30.5703 143.379 31.7217 143 32.873 142.621 34.0593 142.231 37.7502 141.015 41.4376 139.789 45.125 138.562 47.6209 137.738 50.117 136.915 52.6133 136.092 58.7448 134.069 64.8734 132.038 71 130 70.0469 128.88 69.0925 127.76 68.1377 126.641 67.6064 126.018 67.0751 125.394 66.5276 124.752 60.6573 118.02 54.1611 113.544 46 110ZM35 111C32.5415 112.21 32.5415 112.21 29.8008 114.008 28.756 114.665 27.7112 115.323 26.6348 116 25.5384 116.701 24.4421 117.402 23.3125 118.125 21.697 119.142 21.697 119.142 20.0488 120.18 14.5821 123.639 9.21196 127.167 4 131 4.1331 131.599 4.26619 132.198 4.40332 132.815 5.60221 138.21 6.80111 143.605 8 149 12.1878 145.029 15.6558 140.73 19.125 136.125 19.6847 135.388 20.2444 134.65 20.821 133.891 26.2974 126.655 31.6672 119.342 37 112 36.34 111.67 35.68 111.34 35 111ZM-17 126C-17.6967 127.788-18.3821 129.581-19.0625 131.375-19.4454 132.373-19.8282 133.37-20.2227 134.398-21.3091 136.952-21.3091 136.952-20 139-16.37 136.69-12.74 134.38-9 132-10.6486 127.876-10.6486 127.876-14 126-14.99 126-15.98 126-17 126ZM-2 134C-2.37697 134.407-2.75394 134.815-3.14233 135.234-4.90557 137.137-6.67109 139.038-8.4375 140.938-9.07623 141.625-9.71496 142.312-10.373 143.02-13.8437 146.739-17.3557 150.387-21 153.938-24.7858 157.66-27.9734 161.644-31 166-24.8981 164.097-19.1109 161.542-13.252 159.01-7.91096 156.728-2.53924 154.747 3 153 3.35622 146.588 2.5306 140.955 0 135-0.66 134.67-1.32 134.34-2 134ZM-26 147C-27.3392 148.62-28.6712 150.246-30 151.875-30.7425 152.78-31.485 153.685-32.25 154.617-34.1973 156.776-34.1973 156.776-34 159-30.0109 157.632-26.9982 155.998-24 153-23.5813 150.331-23.5813 150.331-24 148-24.66 147.67-25.32 147.34-26 147ZM35.75 150.5C34.1335 150.918 34.1335 150.918 32.4844 151.344 31.6645 151.56 30.8447 151.777 30 152 31.8202 155.64 36.3565 156.69 39.9219 158.367 42.9481 159.972 45.4031 161.778 48 164 48.1939 158.473 47.748 154.244 46 149 42.2003 149 39.3996 149.548 35.75 150.5ZM19 155C17.9974 159.198 17.0006 163.397 16.0093 167.598 15.6714 169.026 15.3319 170.454 14.9907 171.881 14.5 173.935 14.0151 175.991 13.5312 178.047 13.238 179.283 12.9447 180.519 12.6426 181.792 11.8691 185.108 11.8691 185.108 12 189 16.3501 187.667 20.2005 185.97 24.2031 183.812 25.9202 182.888 25.9202 182.888 27.6719 181.945 28.5526 181.466 28.5526 181.466 29.4512 180.978 31.2557 179.997 33.065 179.025 34.875 178.055 40.8156 175.053 40.8156 175.053 46 171 38.069 163.109 29.5892 158.468 19 155ZM4.87109 160.969C3.83662 161.375 2.80215 161.781 1.73633 162.199 0.647715 162.628-0.440898 163.058-1.5625 163.5-2.65498 163.929-3.74746 164.359-4.87305 164.801-7.58263 165.866-10.2916 166.932-13 168-9.4118 174.536-5.78496 179.629 0.125 184.312 0.993828 185.01 1.86266 185.707 2.75781 186.426 4.8162 188.192 4.8162 188.192 7 188 9.56943 178.159 11.1844 169.184 11 159 8.91084 159 6.774 160.22 4.87109 160.969ZM-18 172C-18.4383 172.669-18.8766 173.338-19.3281 174.027-23.9813 181.073-28.7815 187.995-33.6982 194.859-39.6717 201.962-39.6717 201.962-43 210-35.9134 209.494-29.9457 207.871-23.3125 205.375-22.3559 205.022-21.3992 204.669-20.4136 204.305-12.652 201.379-5.27896 197.975 2 194 2 193.34 2 192.68 2 192 0.214037 190.465 0.214037 190.465-2.0625 188.875-8.43118 184.068-13.0536 178.202-18 172ZM-28 174C-31.798 175.59-35.5871 177.199-39.375 178.812-40.4552 179.264-41.5355 179.716-42.6484 180.182-43.6797 180.623-44.7109 181.065-45.7734 181.52-46.7265 181.923-47.6796 182.326-48.6616 182.741-51.2836 183.917-51.2836 183.917-53 187-54.1109 194.156-52.3853 199.743-49 206-48.01 206-47.02 206-46 206-40.1758 199.818-35.7319 192.187-31.375 184.938-30.7001 183.831-30.7001 183.831-30.0115 182.701-29.6029 182.005-29.1944 181.308-28.7734 180.59-28.4065 179.97-28.0396 179.35-27.6616 178.711-26.7132 176.798-26.7132 176.798-28 174ZM38.8047 180.5C38.0972 180.855 37.3898 181.21 36.6609 181.576 34.397 182.714 32.136 183.857 29.875 185 28.3426 185.771 26.8101 186.542 25.2773 187.312 21.5161 189.204 17.7574 191.101 14 193 15.8812 197.363 18.549 198.681 22.75 200.562 23.4102 200.865 24.0703 201.167 24.7505 201.479 31.2558 204.33 37.9261 206.16 45 207 47.1909 204.809 46.754 200.109 47.0625 197.062 47.1519 196.2 47.2414 195.338 47.3335 194.45 47.912 188.603 48.1927 182.878 48 177 44.6161 177 41.7722 178.994 38.8047 180.5ZM-0.847656 199.195C-1.83798 199.661-2.8283 200.128-3.84863 200.608-4.90921 201.109-5.96979 201.609-7.0625 202.125-17.996 207.219-29.1785 212.313-41 215-38.72 221.65-34.6756 225.528-29.125 229.688-27.6129 230.838-27.6129 230.838-26.0703 232.012-23.072 233.953-20.4255 235.044-17 236-7.71145 225.111 3.71705 211.6 6 197 3.28814 197 1.6029 198.027-0.847656 199.195ZM10 198C9.39865 199.58 9.39865 199.58 8.78516 201.191 3.69391 214.231-2.79274 225.683-11 237-6.777 236.359-3.36059 234.916 0.488281 233.086 1.10465 232.795 1.72103 232.504 2.35608 232.205 4.34389 231.266 6.32818 230.321 8.3125 229.375 11.0194 228.093 13.7281 226.816 16.4375 225.539 17.0973 225.228 17.7571 224.916 18.437 224.596 24.7108 221.645 31.0565 218.896 37.457 216.234 40.1246 215.259 40.1246 215.259 41 213 40.2472 212.743 39.4944 212.487 38.7188 212.223 29.1778 208.784 20.7338 204.099 12 199 11.34 198.67 10.68 198.34 10 198ZM-68.1445 220.75C-69.2992 221.016-69.2992 221.016-70.4772 221.288-72.9235 221.854-75.368 222.427-77.8125 223-79.4758 223.386-81.1392 223.771-82.8027 224.156-86.8698 225.098-90.9353 226.047-95 227-95.1005 235.496-93.5526 242.769-87.5625 249.125-84.8941 251.713-82.7609 252.849-79 253-72.909 249.047-68.4838 242.218-64.1875 236.438-63.7317 235.825-63.2758 235.213-62.8062 234.582-57.3391 227.389-57.3391 227.389-55 219-59.5636 218.749-63.7363 219.707-68.1445 220.75ZM33.5039 222.578C32.6412 222.946 31.7785 223.314 30.8896 223.693 28.1132 224.877 25.3378 226.063 22.5625 227.25 19.8193 228.422 17.0758 229.594 14.3318 230.764 12.6227 231.493 10.914 232.223 9.20595 232.955 3.50362 235.388-2.23487 237.719-8 240-8 240.66-8 241.32-8 242 4.45764 249.119 19.0113 250.885 33 253 35.6814 246.903 37.7942 240.69 39.6875 234.312 39.9017 233.6 40.116 232.888 40.3367 232.155 41.6114 227.776 42.4599 223.529 43 219 39.9984 219 36.2999 221.38 33.5039 222.578ZM-49 221C-49.3171 221.632-49.6342 222.263-49.9609 222.914-55.8656 234.234-63.261 244.682-72 254-68.3291 255.32-65.9489 254.662-62.2656 253.559-61.1407 253.225-60.0157 252.891-58.8567 252.547-57.6665 252.181-56.4763 251.815-55.25 251.438-54.0411 251.073-52.8322 250.708-51.5867 250.332-42.5783 247.577-33.7324 244.53-25 241-25.6896 240.452-26.3793 239.904-27.0898 239.34-30.2749 236.779-33.428 234.185-36.5625 231.562-37.4084 230.865-37.4084 230.865-38.2715 230.154-40.9187 227.934-43.1049 225.869-45.2773 223.152-45.8458 222.442-46.4143 221.732-47 221-47.66 221-48.32 221-49 221ZM-28.3789 246.047C-29.699 246.483-31.0192 246.919-32.3396 247.354-33.3757 247.697-33.3757 247.697-34.4328 248.047-46.1714 251.923-57.8598 255.583-70 258-64.0003 264.74-51.998 270.569-43 272-38.2006 271.731-36.2616 269.69-33.125 266.188-27.5886 259.848-21.6174 252.447-20 244-23.0088 244-25.5285 245.096-28.3789 246.047ZM-14 246C-14.2913 246.468-14.5827 246.936-14.8828 247.418-25.0602 263.678-25.0602 263.678-31.6367 270.531-33.1134 271.788-33.1134 271.788-33 273-25.6649 272.481-18.7442 271.191-11.625 269.375-10.5929 269.114-9.56089 268.854-8.49756 268.585-1.4393 266.752 5.48876 264.648 12.375 262.25 13.6403 261.81 13.6403 261.81 14.9312 261.361 19.3582 259.837 19.3582 259.837 23 257 21.9617 256.745 21.9617 256.745 20.9023 256.484 17.599 255.666 14.2992 254.835 11 254 9.7509 253.687 8.5018 253.374 7.21484 253.051-0.106527 251.166-7.06464 249.007-14 246ZM18.2539 263.52C17.4876 263.779 16.7212 264.038 15.9316 264.305 12.6592 265.412 9.39034 266.53 6.12134 267.647-3.17608 270.817-12.3964 273.864-22 276-18.4176 278.388-15.0958 278.882-10.9375 279.562-10.1689 279.692-9.40029 279.821-8.6084 279.954 1.33964 281.594 10.9073 282.142 21 282 24.3042 275.13 27.0336 268.37 29 261 25.1169 261 21.8809 262.27 18.2539 263.52Z" fill="#D14A3C" transform="matrix(1 0 0 1.00036 666 150.016)"/><path d="M0 0C5.0909 51.128-6.60738 98.3121-27 145-64.7063 146.4-114.23 136.825-143.73 111.672-150.223 105.444-154.988 99.1349-155.312 89.875-155.157 80.4004-150.271 72.7774-144 66-140.755 62.8923-137.421 59.9119-134 57-133.34 57.33-132.68 57.66-132 58-132.603 58.5569-133.207 59.1138-133.828 59.6875-140.822 66.3653-143.998 71.946-147 81-145.297 80.5456-145.297 80.5456-143.559 80.082-139.35 78.9601-135.14 77.8431-130.929 76.7275-129.106 76.2438-127.284 75.7588-125.462 75.2725-122.844 74.574-120.225 73.8803-117.605 73.1875-116.79 72.9688-115.974 72.75-115.134 72.5247-112.014 71.7034-109.241 71-106 71-106.619 69.8656-107.238 68.7312-107.875 67.5625-111.695 59.8556-112.32 52.5126-112 44-82.3349 26.3318-49.4245 14.2165-16.8647 2.99561-15.0323 2.35877-13.2062 1.70325-11.3892 1.02393-10.6072 0.738882-9.8252 0.453838-9.01953 0.160156-8.35671-0.0898413-7.69389-0.339839-7.01099-0.597412-4.45127-1.10985-2.50716-0.63829 0 0ZM-16.25 8.5C-17.8665 8.91766-17.8665 8.91766-19.5156 9.34375-20.3355 9.56031-21.1553 9.77687-22 10-20.1798 13.6405-15.6435 14.6899-12.0781 16.3672-9.05193 17.9725-6.59691 19.7782-4 22-3.80608 16.4732-4.25205 12.2439-6 7-9.79968 7-12.6004 7.54792-16.25 8.5ZM-33 13C-34.0026 17.1979-34.9994 21.3971-35.9907 25.5977-36.3286 27.0258-36.6681 28.4535-37.0093 29.8809-37.5 31.9352-37.9849 33.9909-38.4688 36.0469-38.762 37.2828-39.0553 38.5187-39.3574 39.792-40.1309 43.1084-40.1309 43.1084-40 47-35.6499 45.6665-31.7995 43.9699-27.7969 41.8125-26.0798 40.8882-26.0798 40.8882-24.3281 39.9453-23.4474 39.4663-23.4474 39.4663-22.5488 38.9775-20.7443 37.9969-18.935 37.0253-17.125 36.0547-11.1844 33.0532-11.1844 33.0532-6 29-13.931 21.1091-22.4108 16.4683-33 13ZM-47.1289 18.9688C-48.1634 19.3748-49.1979 19.7809-50.2637 20.1992-51.3523 20.6285-52.4409 21.0577-53.5625 21.5-54.655 21.9293-55.7475 22.3585-56.873 22.8008-59.5826 23.8657-62.2916 24.9322-65 26-61.4118 32.5357-57.785 37.6286-51.875 42.3125-51.0062 43.0099-50.1373 43.7073-49.2422 44.4258-47.1838 46.1915-47.1838 46.1915-45 46-42.4306 36.1586-40.8156 27.1842-41 17-43.0892 17-45.226 18.2201-47.1289 18.9688ZM-70 30C-70.4383 30.669-70.8766 31.338-71.3281 32.0273-75.9813 39.0733-80.7815 45.9949-85.6982 52.8591-91.6717 59.962-91.6717 59.962-95 68-87.9134 67.4943-81.9457 65.8713-75.3125 63.375-74.3559 63.0218-73.3992 62.6686-72.4136 62.3047-64.652 59.3792-57.279 55.9749-50 52-50 51.34-50 50.68-50 50-51.786 48.4647-51.786 48.4647-54.0625 46.875-60.4312 42.0685-65.0536 36.2018-70 30ZM-80 32C-83.798 33.5895-87.5871 35.1991-91.375 36.8125-92.4552 37.2643-93.5355 37.7161-94.6484 38.1816-95.6797 38.6231-96.7109 39.0646-97.7734 39.5195-98.7265 39.9228-99.6796 40.326-100.662 40.7415-103.284 41.9165-103.284 41.9165-105 45-106.111 52.1562-104.385 57.7433-101 64-100.01 64-99.02 64-98 64-92.1758 57.8185-87.7319 50.1867-83.375 42.9375-82.7001 41.8306-82.7001 41.8306-82.0115 40.7014-81.6029 40.0046-81.1944 39.3078-80.7734 38.5898-80.4065 37.9697-80.0396 37.3496-79.6616 36.7107-78.7132 34.7984-78.7132 34.7984-80 32ZM-13.1953 38.5C-13.9028 38.8551-14.6102 39.2103-15.3391 39.5762-17.603 40.7137-19.864 41.8568-22.125 43-23.6574 43.7712-25.1899 44.542-26.7227 45.3125-30.4839 47.2042-34.2426 49.1008-38 51-36.1188 55.3626-33.451 56.6813-29.25 58.5625-28.5898 58.8648-27.9297 59.1671-27.2495 59.4785-20.7442 62.3299-14.0739 64.1604-7 65-4.80906 62.8091-5.246 58.1089-4.9375 55.0625-4.84807 54.2004-4.75864 53.3382-4.6665 52.45-4.08797 46.6035-3.80728 40.8778-4 35-7.38393 35-10.2278 36.994-13.1953 38.5ZM-52.8477 57.1953C-53.838 57.6615-54.8283 58.1276-55.8486 58.6079-56.9092 59.1086-57.9698 59.6092-59.0625 60.125-69.996 65.2189-81.1785 70.3133-93 73-90.72 79.6501-86.6756 83.5281-81.125 87.6875-79.6129 88.838-79.6129 88.838-78.0703 90.0117-75.072 91.9534-72.4255 93.0439-69 94-59.7115 83.1107-48.283 69.6003-46 55-48.7119 55-50.3971 56.0274-52.8477 57.1953ZM-42 56C-42.6013 57.5797-42.6013 57.5797-43.2148 59.1914-48.3061 72.2314-54.7927 83.6826-63 95-58.777 94.3591-55.3606 92.916-51.5117 91.0859-50.8953 90.7952-50.279 90.5045-49.6439 90.2049-47.6561 89.2665-45.6718 88.3208-43.6875 87.375-40.9806 86.0933-38.2719 84.8156-35.5625 83.5391-34.9027 83.2278-34.2429 82.9164-33.563 82.5957-27.2892 79.6454-20.9435 76.8961-14.543 74.2344-11.8754 73.2586-11.8754 73.2586-11 71-11.7528 70.7435-12.5056 70.487-13.2812 70.2227-22.8222 66.7838-31.2662 62.0991-40 57-40.66 56.67-41.32 56.34-42 56ZM-120.145 78.75C-121.299 79.0163-121.299 79.0163-122.477 79.2881-124.924 79.8536-127.368 80.4267-129.812 81-131.476 81.3859-133.139 81.7713-134.803 82.1562-138.87 83.0984-142.935 84.0474-147 85-147.101 93.4964-145.553 100.769-139.562 107.125-136.894 109.713-134.761 110.849-131 111-124.909 107.047-120.484 100.218-116.188 94.4375-115.732 93.8252-115.276 93.2129-114.806 92.582-109.339 85.3893-109.339 85.3893-107 77-111.564 76.7493-115.736 77.7073-120.145 78.75ZM-18.4961 80.5781C-19.3588 80.946-20.2215 81.3138-21.1104 81.6928-23.8868 82.8768-26.6622 84.0632-29.4375 85.25-32.1807 86.4223-34.9242 87.594-37.6682 88.7643-39.3773 89.4934-41.086 90.2235-42.7941 90.9549-48.4964 93.3883-54.2349 95.7195-60 98-60 98.66-60 99.32-60 100-47.5424 107.119-32.9887 108.885-19 111-16.3186 104.903-14.2058 98.6898-12.3125 92.3125-12.0983 91.6004-11.884 90.8882-11.6633 90.1545-10.3886 85.7765-9.5401 81.5285-9 77-12.0016 77-15.7001 79.3799-18.4961 80.5781ZM-101 79C-101.317 79.6316-101.634 80.2633-101.961 80.9141-107.866 92.234-115.261 102.682-124 112-120.329 113.32-117.949 112.662-114.266 111.559-113.141 111.225-112.016 110.891-110.857 110.547-109.666 110.181-108.476 109.815-107.25 109.438-106.041 109.073-104.832 108.708-103.587 108.332-94.5783 105.577-85.7324 102.53-77 99-77.6897 98.4521-78.3793 97.9043-79.0898 97.3398-82.2749 94.7789-85.428 92.1848-88.5625 89.5625-89.4084 88.8654-89.4084 88.8654-90.2715 88.1543-92.9187 85.9343-95.1049 83.8688-97.2773 81.1523-97.8458 80.4421-98.4143 79.7318-99 79-99.66 79-100.32 79-101 79ZM-80.3789 104.047C-81.699 104.483-83.0192 104.919-84.3396 105.354-85.3757 105.697-85.3757 105.697-86.4328 106.047-98.1714 109.923-109.86 113.583-122 116-116 122.74-103.998 128.569-95 130-90.2006 129.731-88.2616 127.69-85.125 124.188-79.5886 117.848-73.6174 110.447-72 102-75.0088 102-77.5285 103.096-80.3789 104.047ZM-66 104C-66.2913 104.468-66.5827 104.936-66.8828 105.418-77.0602 121.678-77.0602 121.678-83.6367 128.531-85.1134 129.788-85.1134 129.788-85 131-77.6649 130.481-70.7442 129.191-63.625 127.375-62.5929 127.114-61.5609 126.854-60.4976 126.585-53.4393 124.752-46.5112 122.648-39.625 120.25-38.3597 119.81-38.3597 119.81-37.0688 119.361-32.6418 117.837-32.6418 117.837-29 115-30.0383 114.745-30.0383 114.745-31.0977 114.484-34.401 113.666-37.7008 112.835-41 112-42.2491 111.687-43.4982 111.374-44.7852 111.051-52.1065 109.166-59.0646 107.007-66 104ZM-33.7461 121.52C-34.5124 121.779-35.2788 122.038-36.0684 122.305-39.3408 123.412-42.6097 124.53-45.8787 125.647-55.1761 128.817-64.3964 131.864-74 134-70.4176 136.388-67.0958 136.882-62.9375 137.562-62.1689 137.692-61.4003 137.821-60.6084 137.954-50.6604 139.594-41.0927 140.142-31 140-27.6958 133.13-24.9664 126.37-23 119-26.8831 119-30.1191 120.27-33.7461 121.52Z" fill="#C9C9CA" transform="matrix(1 0 0 1.00036 718 292.067)"/><path d="M0 0C7.68943 5.34473 13.0786 12.8471 15.3672 21.9531 17.3828 34.5952 16.5073 48.4029 9.0625 59.1836 4.73168 64.3696-0.67931 68.7123-7.1875 70.7461-2.7108 75.6298 1.31198 79.4882 8.15234 79.9922 11.3826 79.9957 14.5874 79.9207 17.8125 79.7461 17.8125 83.0461 17.8125 86.3461 17.8125 89.7461 13.0003 92.1522 6.35603 91.2441 1.21875 90.2383-7.30202 87.3888-15.2492 80.1536-20.1875 72.7461-22.7344 72.1625-22.7344 72.1625-25.6875 71.9336-34.9466 70.5697-41.8287 66.1984-47.7188 58.9609-54.5681 48.6323-55.4226 36.4963-53.7266 24.4805-51.6543 14.9726-47.1305 7.44287-39.5742 1.25391-27.9613-6.08254-11.9713-6.86212 0 0ZM-36.4375 12.8086C-42.8149 21.0156-44.3977 30.5953-43.1875 40.7461-41.3614 48.6864-38.1399 55.5522-31.1523 60.0586-24.9115 63.2285-18.7561 63.8563-11.9531 62.2031-4.57222 59.692-0.862465 55.7277 2.79688 48.9648 6.40517 41.0821 6.12801 28.9993 3.75 20.6836 1.27196 14.6921-2.90097 10.2095-8.3125 6.74609-18.4711 3.2376-29.0226 5.15445-36.4375 12.8086Z" fill="#1A1817" transform="matrix(1 0 0 1.00036 492.188 479.387)"/><path d="M0 0C0 3.96 0 7.92 0 12-1.11375 11.5256-2.2275 11.0513-3.375 10.5625-10.9425 7.77308-17.4555 7.29995-25.0898 10.0156-27.2113 11.1089-28.5121 12.1344-30 14-30.6671 17.415-30.6671 17.415-30 21-26.0233 25.8827-20.9544 28.5513-15.5 31.5625 0.577482 40.5122 0.577482 40.5122 3 48 3.72571 53.879 3.89466 59.073 1.375 64.5-4.55234 70.7393-9.53711 73.9151-18.2695 74.3008-19.7837 74.3193-21.2982 74.3228-22.8125 74.3125-23.9947 74.3106-23.9947 74.3106-25.2007 74.3086-31.2593 74.2089-36.3184 73.1993-42 71-42 67.04-42 63.08-42 59-37 61-37 61-34.9648 61.8516-27.5421 64.6834-20.0308 65.1814-12.375 62.9375-9.05276 60.2272-8.50094 58.2222-8 54-9.42336 48.9166-12.0581 46.9216-16.418 44.4141-17.27 43.9474-18.1221 43.4808-19 43-20.7583 42.0176-22.5164 41.0348-24.2703 40.0444-25.4759 39.3655-26.6856 38.6935-27.8997 38.0298-34.0722 34.5848-39.6837 30.949-42 24-42.6684 17.7804-42.7732 12.2338-39 7-29.031-4.24282-13.4954-3.65977 0 0Z" fill="#1A1817" transform="matrix(1 0 0 1.00036 638 477.133)"/><path d="M0 0C0 3.96 0 7.92 0 12-1.11375 11.5256-2.2275 11.0513-3.375 10.5625-12.0016 7.39385-20.4893 7.10764-29 11-30.2126 14.6378-30.3954 17.1774-30 21-26.1482 25.7306-21.4344 28.1782-16.125 30.9375-0.15314 39.2413-0.15314 39.2413 3 48 4.4635 54.3767 3.9201 59.1034 1 65-2.99267 69.9639-7.79605 72.6944-14 74-23.8181 74.5015-32.7135 74.5948-42 71-42 67.04-42 63.08-42 59-37 61-37 61-34.9648 61.8516-27.5742 64.6711-19.9199 65.3517-12.375 62.75-9.81205 60.8615-8.76977 60.0791-8 57-7.84517 53.4974-7.84517 53.4974-9 50-13.4867 45.6746-18.5178 42.8949-24 40-37.2259 33.0161-37.2259 33.0161-40.875 26.8125-42.6193 20.9014-42.8627 15.6387-40.9375 9.75-36.6923 3.72461-31.9786 0.309179-24.8086-1.53516-16.3228-2.93963-8.25162-2.23773 0 0Z" fill="#1A1817" transform="matrix(1 0 0 1.00036 426 477.133)"/><path d="M0 0C4.78346 2.9477 7.65911 7.16437 9.65625 12.3477 10.7812 17.0977 10.7812 17.0977 10.7812 28.0977-1.09875 28.0977-12.9788 28.0977-25.2188 28.0977-23.686 36.8502-23.686 36.8502-18.2188 42.0977-14.1009 44.4348-9.85331 44.778-5.21875 44.0977-1.06811 42.7546 2.8818 41.0474 6.78125 39.0977 6.78125 42.3977 6.78125 45.6977 6.78125 49.0977-1.91758 54.1588-12.1147 54.858-21.8828 52.4375-28.1777 49.6303-32.5936 44.3102-35.0938 37.9727-37.8967 28.1037-36.8862 18.1854-32.2188 9.09766-25.4233-1.99396-11.7701-5.18558 0 0ZM-21.2188 10.0977C-23.7405 13.2128-25.2188 16.0059-25.2188 20.0977-16.6388 20.0977-8.05875 20.0977 0.78125 20.0977-0.911157 12.0433-0.911157 12.0433-6.21875 7.09766-12.1077 5.20873-16.4231 6.42549-21.2188 10.0977Z" fill="#1A1817" transform="matrix(1 0 0 1.00036 686.219 498.042)"/><path d="M0 0C4.73365 4.08815 7.48242 7.92969 9 14 9 18.29 9 22.58 9 27-2.88 27-14.76 27-27 27-24.5735 36.6936-24.5735 36.6936-18 42-11.0073 44.3309-5.48523 42.8347 1 40 1.99 39.6081 2.98 39.2163 4 38.8125 4.66 38.5444 5.32 38.2762 6 38 6 41.3 6 44.6 6 48-3.33328 52.7407-13.4068 53.784-23.6602 51.375-29.7646 48.7403-33.625 43.2792-36.1367 37.2891-38.3206 28.9688-38.6194 18.2216-35 10.3125-31.5807 4.70406-27.0209 0.544004-21.1875-2.4375-13.6087-3.77493-6.75532-3.91809 0 0ZM-21 8C-24.6351 11.6351-25.2878 13.8633-27 19-18.42 19-9.84 19-1 19-1.76007 11.8242-1.76007 11.8242-6 7-11.6187 4.32503-15.5939 4.77711-21 8Z" fill="#1A1817" transform="matrix(1 0 0 1.00036 833 499.14)"/><path d="M0 0C0.583945 1.81758 0.583945 1.81758 1.17969 3.67188 6.50237 19.7844 13.3023 35.0976 22.8203 49.1992 24 51 24 51 24 52 21.7706 51.8582 19.5415 51.7114 17.3125 51.5625 16.0711 51.4813 14.8298 51.4001 13.5508 51.3164 10.6182 51.0551 7.86558 50.652 5 50 5 49.67 5 49.34 5 49 8.96 49 12.92 49 17 49 14.69 45.7 12.38 42.4 10 39 5.05 41.31 0.1 43.62-5 46-4.34 46.66-3.68 47.32-3 48-4.9587 47.8592-6.91696 47.7122-8.875 47.5625-9.96555 47.4813-11.0561 47.4001-12.1797 47.3164-15 47-15 47-17 46-18.9946 45.655-20.996 45.3484-23 45.0625-28.7102 44.2177-34.3541 43.198-40 42-37.3379 40.6242-34.937 39.6294-32 39-32.7425 38.4431-33.485 37.8862-34.25 37.3125-36.9341 35.0554-38.9724 32.8536-41 30-41 29.34-41 28.68-41 28-44.9818 30.1015-47.3504 32.3691-50 36-45.545 37.98-45.545 37.98-41 40-44.2419 41.0806-44.8971 40.9641-48.0117 40.0039-48.769 39.7751-49.5264 39.5463-50.3066 39.3105-51.0923 39.0637-51.878 38.8168-52.6875 38.5625-53.4848 38.3195-54.2821 38.0765-55.1035 37.8262-57.0714 37.2252-59.036 36.6136-61 36-58.0521 28.7642-51.4798 25.1604-45.0625 21.375-44.1958 20.8594-43.3292 20.3438-42.4363 19.8125-30.9913 13.106-19.0896 7.23064-7.04297 1.6875-6.33552 1.36137-5.62806 1.03523-4.89917 0.699219-3 0-3 0 0 0ZM-11.9375 11.625C-12.6047 11.8914-13.2718 12.1577-13.9592 12.4321-19.888 14.8536-25.4747 17.7607-31 21-27.3541 23.4306-23.9244 23.9382-19.6875 24.625-18.8917 24.7569-18.0958 24.8888-17.2759 25.0247-10.1378 26.1278-3.22292 26.3135 4 26 3.57848 25.0242 3.15695 24.0484 2.72266 23.043 2.16921 21.7578 1.61582 20.4727 1.0625 19.1875 0.645811 18.2236 0.645811 18.2236 0.220703 17.2402-0.951881 14.5136-2.0609 11.8173-3 9-6.20392 9-9.00002 10.4477-11.9375 11.625ZM-35 26C-30.7216 31.241-26.2231 35.7054-21 40-20.0306 40.8662-19.0613 41.7325-18.0625 42.625-14.7077 44.1312-14.1651 44.1236-10.8125 43.125-5.3005 40.9146-0.1348 37.9657 5 35 2.09974 33.4021-0.452336 32.5893-3.71094 32.0352-4.62021 31.8763-5.52948 31.7174-6.46631 31.5537-7.42618 31.3916-8.38604 31.2295-9.375 31.0625-11.3545 30.7166-13.3336 30.3689-15.3125 30.0195-16.2793 29.8489-17.2461 29.6783-18.2422 29.5024-23.8588 28.4792-29.4309 27.2545-35 26Z" fill="#C6C6C7" transform="matrix(1 0 0 1.00036 666 150.016)"/><path d="M0 0C3.63 0 7.26 0 11 0 11 21.45 11 42.9 11 65 20.57 65 30.14 65 40 65 40 67.97 40 70.94 40 74 26.8 74 13.6 74 0 74 0 49.58 0 25.16 0 0Z" fill="#1B1918" transform="matrix(1 0 0 1.00036 521 476.132)"/><path d="M0 0C3.63 0 7.26 0 11 0 11.3886 1.1459 11.7771 2.29179 12.1775 3.47241 13.6151 7.70943 15.0566 11.9451 16.4993 16.1804 17.124 18.0163 17.7477 19.8526 18.3704 21.6892 19.2637 24.3237 20.1608 26.9569 21.0586 29.5898 21.3378 30.4159 21.617 31.2419 21.9046 32.093 22.9424 35.8341 22.9424 35.8341 25 39 29.62 26.13 34.24 13.26 39 0 42.63 0 46.26 0 50 0 48.0011 6.96201 45.6824 13.6623 42.9883 20.3828 42.6152 21.3231 42.2421 22.2634 41.8577 23.2321 40.6799 26.198 39.4963 29.1615 38.3125 32.125 37.5068 34.1509 36.7014 36.1769 35.8965 38.2031 33.9354 43.1372 31.9691 48.0691 30 53 26.37 53 22.74 53 19 53 15.0009 43.5795 11.2747 34.0729 7.64136 24.5063 6.6778 21.9745 5.7051 19.4463 4.73242 16.918 4.11662 15.2997 3.50137 13.6812 2.88672 12.0625 2.59617 11.3115 2.30562 10.5604 2.00627 9.78662 0.685263 6.27729 0 3.79896 0 0Z" fill="#1A1817" transform="matrix(1 0 0 1.00036 742 497.14)"/><path d="M0 0C0 3.3 0 6.6 0 10-2.32031 9.87625-2.32031 9.87625-4.6875 9.75-8.06287 9.7786-9.83825 9.92428-12.9375 11.375-19.0678 19.1772-18.5233 29.6694-18.6875 39.125-18.7208 40.4766-18.7553 41.8282-18.791 43.1797-18.8729 46.453-18.9422 49.7261-19 53-22.3 53-25.6 53-29 53-29 35.51-29 18.02-29 0-25.7 0-22.4 0-19 0-18.67 2.31-18.34 4.62-18 7-17.2781 6.05125-16.5562 5.1025-15.8125 4.125-11.8281-0.620451-5.93068-2.96534 0 0Z" fill="#1A1817" transform="matrix(1 0 0 1.00036 737 497.14)"/><path d="M0 0C0 3.3 0 6.6 0 10-2.32031 9.84531-2.32031 9.84531-4.6875 9.6875-8.64403 9.6875-9.68895 9.77319-13 12.1875-16.6005 17.2507-17.3125 21.586-17.4141 27.707-17.4334 28.4324-17.4528 29.1578-17.4727 29.9052-17.5322 32.2075-17.5788 34.5099-17.625 36.8125-17.6632 38.3796-17.7023 39.9466-17.7422 41.5137-17.8379 45.3423-17.922 49.171-18 53-21.3 53-24.6 53-28 53-28 35.51-28 18.02-28 0-24.7 0-21.4 0-18 0-17.67 1.98-17.34 3.96-17 6-16.4431 5.21625-15.8862 4.4325-15.3125 3.625-11.3835-0.834906-5.6246-2.8123 0 0Z" fill="#1A1817" transform="matrix(1 0 0 1.00036 882 497.14)"/><path d="M0 0C1.98 0 3.96 0 6 0 8.83173 6.94377 11.4687 13.9416 14 21 14.2068 20.3994 14.4136 19.7988 14.6267 19.1799 15.5606 16.4731 16.499 13.7678 17.4375 11.0625 17.9257 9.64421 17.9257 9.64421 18.4238 8.19727 18.7364 7.29814 19.049 6.39902 19.3711 5.47266 19.6591 4.64 19.9471 3.80735 20.2439 2.94946 21 1 21 1 22 0 23.98 0 25.96 0 28 0 28 9.57 28 19.14 28 29 26.35 29 24.7 29 23 29 22.67 23.72 22.34 18.44 22 13 20.3962 17.8904 20.3962 17.8904 18.7991 22.783 17.1111 27.8889 17.1111 27.8889 16 29 14.35 29 12.7 29 11 29 9.02 23.39 7.04 17.78 5 12 4.67 17.61 4.34 23.22 4 29 2.68 29 1.36 29 0 29 0 19.43 0 9.86 0 0Z" fill="#1A1817" transform="matrix(1 0 0 1.00036 384 435.118)"/><path d="M0 0C0.33 0.99 0.66 1.98 1 3 0.67 3.66 0.34 4.32 0 5-0.66 5.14437-1.32 5.28875-2 5.4375-2.66 5.62313-3.32 5.80875-4 6-4.33 6.99-4.66 7.98-5 9-2.69 9-0.38 9 2 9 2 7.02 2 5.04 2 3 3.32 2.34 4.64 1.68 6 1 6 3.64 6 6.28 6 9 7.32 9 8.64 9 10 9 10 9.99 10 10.98 10 12 8.68 12 7.36 12 6 12 6 16.62 6 21.24 6 26 7.32 26 8.64 26 10 26 9.67 27.65 9.34 29.3 9 31 3.125 30.125 3.125 30.125 2 29 1.92675 26.1373 1.90762 23.2993 1.9375 20.4375 1.94427 19.228 1.94427 19.228 1.95117 17.9941 1.96299 15.9961 1.98093 13.998 2 12-0.31 12-2.62 12-5 12-5 17.94-5 23.88-5 30-6.32 30-7.64 30-9 30-9 24.06-9 18.12-9 12-9.99 12-10.98 12-12 12-12 11.01-12 10.02-12 9-11.01 9-10.02 9-9 9-9.06188 7.88625-9.12375 6.7725-9.1875 5.625-9.12562 4.42875-9.06375 3.2325-9 2-5.5648-0.290137-4.01467-0.17843 0 0Z" fill="#1A1817" transform="matrix(1 0 0 1.00036 534 434.117)"/><path d="M0 0C2.5625 1.875 2.5625 1.875 4 5 4.72687 10.0958 4.73037 14.4122 2.5625 19.125-1.11619 21.8167-4.48711 22.2901-9 22-12.6703 20.4382-13.7727 19.3409-16 16-16.6849 10.8551-16.8205 6.41458-14.1875 1.875-9.82957-1.86037-5.28916-1.33661 0 0ZM-9.75 4.0625C-11.4979 6.77168-11.8713 8.78151-12 12-11.0252 14.875-11.0252 14.875-9 17-6.5619 18.1547-6.5619 18.1547-4 18-1.39041 16.4156-1.01473 15.0484-0.125 12.125 0.0263988 8.34003-0.545603 6.86346-3 4-5.81201 2.8752-7.11594 2.46325-9.75 4.0625Z" fill="#1A1817" transform="matrix(1 0 0 1.00036 474 443.121)"/><path d="M0 0C3.57471 2.05215 5.44837 3.20558 6.66406 7.16016 7.28924 11.5146 7.40602 15.1722 5 19 2.15453 22.0081 0.638574 22.9202-3.5 23.4375-7.24019 22.97-9.10913 22.3953-12 20-14.2933 16.0686-14.3932 12.4824-14 8-12.8087 4.84319-11.9186 2.72179-9.25 0.625-5.92756-0.297901-3.43992-0.415163 0 0ZM-7.75 5.5625C-9.46752 8.91167-9.39821 11.2833-9 15-7.64115 17.4008-7.64115 17.4008-6 19-3.06557 18.7334-3.06557 18.7334 0 18 2.48039 14.2794 2.46337 12.402 2 8 0.394509 5.47689 0.394509 5.47689-2 4-5.89371 3.55599-5.89371 3.55599-7.75 5.5625Z" fill="#191817" transform="matrix(1 0 0 1.00036 514 442.12)"/><path d="M0 0C2 2 2 2 2 6-2.875 5.125-2.875 5.125-4 4-5.66617 3.95936-7.33388 3.95728-9 4-9 4.66-9 5.32-9 6-7.82631 6.39832-7.82631 6.39832-6.62891 6.80469-5.11104 7.33449-5.11104 7.33449-3.5625 7.875-2.55316 8.22305-1.54383 8.57109-0.503906 8.92969 2 10 2 10 3 12 3.375 14.875 3.375 14.875 3 18 0.267984 21.146-1.35762 21.9197-5.5 22.4375-9.22681 21.9716-11.1484 21.4323-14 19-14.8125 16.3125-14.8125 16.3125-15 14-12.625 13.8125-12.625 13.8125-10 14-9.01 15.485-9.01 15.485-8 17-5.4162 17.2503-5.4162 17.2503-3 17-3 16.01-3 15.02-3 14-3.62648 13.8066-4.25297 13.6133-4.89844 13.4141-5.7157 13.1537-6.53297 12.8933-7.375 12.625-8.59316 12.2421-8.59316 12.2421-9.83594 11.8516-12 11-12 11-14 9-14.4375 5.5625-14.4375 5.5625-14 2-10.0983-2.02757-5.07977-1.32733 0 0Z" fill="#1B1817" transform="matrix(1 0 0 1.00036 495 443.121)"/><path d="M0 0C2.9375 1.75 2.9375 1.75 5 4 5 5.32 5 6.64 5 8 2.525 7.505 2.525 7.505 0 7 0 6.34 0 5.68 0 5-2.34312 5.25561-4.67843 5.59271-7 6-8.50934 9.01868-8.17511 11.673-8 15-7.01 16.485-7.01 16.485-6 18-2.91634 18.2502-2.91634 18.2502 0 18 0.33 16.68 0.66 15.36 1 14 2.65 14 4.3 14 6 14 5.16908 17.1159 4.48993 19.4556 2.3125 21.875-1.01432 23.4935-3.34546 23.4488-7 23-10.6867 21.0338-12.2378 19.0979-13.4375 15.1875-14.2502 10.991-13.7475 7.95081-12 4-8.31938-0.101266-5.41227-0.773181 0 0Z" fill="#1A1817" transform="matrix(1 0 0 1.00036 438 442.12)"/><path d="M0 0C1.9375 1.0625 1.9375 1.0625 3 3 3.5003 6.93095 3.59961 9.10058 1.375 12.4375-1.71685 14.4716-3.36367 14.6061-7 14-9.375 12.375-9.375 12.375-11 10-11.6061 6.36367-11.4716 4.71685-9.4375 1.625-6.10058-0.599614-3.93095-0.500302 0 0ZM-8 3C-8.33 3.33-8.66 3.66-9 4-8.7127 6.33945-8.38063 8.67391-8 11-7.67 11-7.34 11-7 11-7 8.36-7 5.72-7 3-7.33 3-7.66 3-8 3ZM-1 3C-2.00217 6.58328-2.00217 6.58328-1 10-0.34 10 0.32 10 1 10 1 8.02 1 6.04 1 4 0.34 3.67-0.32 3.34-1 3ZM-5 4C-5 4.66-5 5.32-5 6-4.34 6-3.68 6-3 6-3 5.34-3 4.68-3 4-3.66 4-4.32 4-5 4ZM-5 8C-5 9.32-5 10.64-5 12-4.34 12-3.68 12-3 12-3.66 10.68-4.32 9.36-5 8Z" fill="#191716" transform="matrix(1 0 0 1.00036 557 438.119)"/><path d="M0 0C-0.33 1.32-0.66 2.64-1 4-1.80438 4.12375-2.60875 4.2475-3.4375 4.375-4.70594 4.68437-4.70594 4.68437-6 5-7.48078 7.96157-7.35314 10.8351-7.5625 14.125-7.64629 15.4063-7.73008 16.6877-7.81641 18.0078-7.90729 19.4889-7.90729 19.4889-8 21-9.32 21-10.64 21-12 21-12 14.07-12 7.14-12 0-7.03301-0.827831-4.66671-1.00001 0 0Z" fill="#1A1817" transform="matrix(1 0 0 1.00036 458 443.121)"/><path d="M0 0C1.32 0 2.64 0 4 0 4 6.93 4 13.86 4 21 2.68 21 1.36 21 0 21 0 14.07 0 7.14 0 0Z" fill="#1A1817" transform="matrix(1 0 0 1.00036 417 443.121)"/><path d="M0 0C1.45742-0.080968 2.91613-0.139178 4.375-0.1875 5.18711-0.222305 5.99922-0.257109 6.83594-0.292969 7.55008-0.196289 8.26422-0.0996094 9 0 9.66 0.99 10.32 1.98 11 3 11.33 2.01 11.66 1.02 12 0 12.99 0 13.98 0 15 0 15 2.64 15 5.28 15 8 12.36 8 9.72 8 7 8 7 6.02 7 4.04 7 2 6.34 2 5.68 2 5 2 5 3.98 5 5.96 5 8 4.34 8 3.68 8 3 8 3 6.02 3 4.04 3 2 2.01 2 1.02 2 0 2 0 1.34 0 0.68 0 0Z" fill="#1B1818" transform="matrix(1 0 0 1.00036 697 429.116)"/><path d="M0 0C2 2 2 2 2.25 5 2 8 2 8 0 10-3.625 9.625-3.625 9.625-7 9-8.33158 3.55263-8.33158 3.55263-6.875 1.125-4.40522-0.356867-2.83386-0.363316 0 0ZM-6 3C-5 7-5 7-5 7ZM0 4C-0.33 4.66-0.66 5.32-1 6-0.34 6 0.32 6 1 6 0.67 5.34 0.34 4.68 0 4ZM-3 7C-2 9-2 9-2 9Z" fill="#1C1918" transform="matrix(1 0 0 1.00036 894 497.14)"/><path d="M0 0C0.66 0 1.32 0 2 0 2 0.66 2 1.32 2 2 4.97 2.495 4.97 2.495 8 3 7.01 3.495 7.01 3.495 6 4 5.67 4.66 5.34 5.32 5 6 3.02 4.68 1.04 3.36-1 2-0.67 1.34-0.34 0.68 0 0Z" fill="#A5605C" transform="matrix(1 0 0 1.00036 603 184.028)"/><path d="M0 0C1.32 0 2.64 0 4 0 4 1.65 4 3.3 4 5 2.68 5 1.36 5 0 5 0 3.35 0 1.7 0 0Z" fill="#1A1917" transform="matrix(1 0 0 1.00036 417 435.118)"/></g></g></g></g></svg>